<?xml version="1.0" encoding="UTF-8"?>
<svg xmlns="http://www.w3.org/2000/svg" xmlns:xlink="http://www.w3.org/1999/xlink" viewBox="0 0 400 600">
  <defs>
    <style>
      .cls-1, .cls-2, .cls-3, .cls-4, .cls-5, .cls-6, .cls-7, .cls-8, .cls-9, .cls-10, .cls-11, .cls-12, .cls-13, .cls-14 {
        fill: none;
      }

      .cls-2 {
        stroke-width: 1.53px;
      }

      .cls-2, .cls-15, .cls-16, .cls-17, .cls-6, .cls-8, .cls-9, .cls-10, .cls-11, .cls-13, .cls-14 {
        stroke-miterlimit: 10;
      }

      .cls-2, .cls-8, .cls-10 {
        stroke: #ccc;
      }

      .cls-3, .cls-18, .cls-4, .cls-5, .cls-7, .cls-12 {
        stroke-linejoin: round;
      }

      .cls-3, .cls-18, .cls-5, .cls-6, .cls-7, .cls-8, .cls-10, .cls-11, .cls-12 {
        stroke-linecap: round;
      }

      .cls-3, .cls-4, .cls-12 {
        stroke: #70777d;
      }

      .cls-18, .cls-15, .cls-19, .cls-20, .cls-21 {
        fill: #fff;
      }

      .cls-18, .cls-15, .cls-5, .cls-7 {
        stroke: #3c4043;
      }

      .cls-18, .cls-5 {
        stroke-width: 1.25px;
      }

      .cls-22 {
        letter-spacing: -.01em;
      }

      .cls-15, .cls-16, .cls-17, .cls-7 {
        stroke-width: 1.15px;
      }

      .cls-16 {
        fill: #fbbc04;
        stroke: #fbbc04;
      }

      .cls-23 {
        clip-path: url(#clippath);
      }

      .cls-24 {
        letter-spacing: -.02em;
      }

      .cls-17 {
        fill: #34a853;
        stroke: #34a853;
      }

      .cls-25, .cls-26 {
        fill: #f6f6f6;
      }

      .cls-27 {
        fill: #f9bc09;
      }

      .cls-28 {
        fill: #669df6;
      }

      .cls-29 {
        fill: #4285f4;
      }

      .cls-30 {
        fill: #70777d;
      }

      .cls-31 {
        fill: #3c4043;
      }

      .cls-32 {
        fill: #282828;
      }

      .cls-33, .cls-34 {
        fill: #4d4d4d;
      }

      .cls-35 {
        letter-spacing: .01em;
      }

      .cls-20 {
        opacity: .32;
      }

      .cls-20, .cls-8, .cls-36, .cls-10, .cls-11, .cls-37, .cls-26, .cls-21 {
        isolation: isolate;
      }

      .cls-6 {
        stroke: #c5023c;
      }

      .cls-6, .cls-8, .cls-10, .cls-11 {
        stroke-width: 1.3px;
      }

      .cls-38 {
        letter-spacing: 0em;
      }

      .cls-34 {
        font-size: 12px;
      }

      .cls-34, .cls-21 {
        font-family: GoogleSans-Medium, 'Google Sans';
        font-weight: 500;
      }

      .cls-39 {
        clip-path: url(#clippath-1);
      }

      .cls-8 {
        opacity: .7;
      }

      .cls-40 {
        letter-spacing: 0em;
      }

      .cls-36, .cls-10, .cls-11 {
        opacity: .79;
      }

      .cls-9 {
        stroke: #f2f2f2;
      }

      .cls-11 {
        stroke: #52575b;
      }

      .cls-41 {
        fill: #f8f9fa;
        fill-rule: evenodd;
      }

      .cls-12 {
        stroke-width: .89px;
      }

      .cls-42 {
        letter-spacing: 0em;
      }

      .cls-13 {
        stroke-width: 2.36px;
      }

      .cls-13, .cls-14 {
        stroke: #f9bc09;
      }

      .cls-43 {
        letter-spacing: 0em;
      }

      .cls-44 {
        letter-spacing: -.07em;
      }

      .cls-14 {
        stroke-width: 2.77px;
      }

      .cls-21 {
        font-size: 9.15px;
      }
    </style>
    <clipPath id="clippath">
      <circle class="cls-1" cx="82.17" cy="257.35" r="13.05"/>
    </clipPath>
    <clipPath id="clippath-1">
      <circle class="cls-1" cx="82.1" cy="381.3" r="13.1"/>
    </clipPath>
  </defs>
  <g id="Layer_1" data-name="Layer 1">
    <rect class="cls-26" x="49.89" y="51.26" width="300.13" height="170.82"/>
    <g>
      <path class="cls-29" d="m159.11,103.23c6.66-2.57,12.83,1.5,18.19,4.92,2.95,1.88,5.89,2.83,9.4,2.57,3.63-.28,7.2-1.4,10.86-1.15,6.86.48,12.51,4.97,19.13,6.66.54.14.44.93-.13.93h-65.39c.85-2.65,1.85-5.25,2.93-7.8.73-1.72,1.65-3.93,3.19-5.11.54-.42,1.16-.76,1.82-1.01Z"/>
      <path class="cls-16" d="m218.47,77.34c-1.54,3.59-2.18,7.61-1.63,11.76,1.64,12.3,12.93,20.93,25.21,19.3,4.76-.63,8.54-2.13,11.81-5.16-7.47-13.3-20.52-23.05-35.4-25.9Z"/>
      <path class="cls-7" d="m205.67,75.83v102.12"/>
      <path class="cls-7" d="m261.32,140.23h-111.3"/>
      <path class="cls-7" d="m149.37,197.62h-23.58"/>
      <path class="cls-7" d="m285.15,197.62h-23.6"/>
      <path class="cls-7" d="m261.97,131.8c0-31.05-25.21-56.22-56.3-56.22s-56.3,25.18-56.3,56.22v65.82h112.6v-65.82Z"/>
      <path class="cls-19" d="m223.7,186.18c-2.03-1.48-1.36-4.57,1.1-5.19.33-.08.66-.18,1-.32,2.76-1.04,13.61-8.85,17.98-8.4,0,0,3.14.09,3.15,2.05.01,1.66-4.77,2.24-5.59,2.73-2.02,1.2-3.27,3.42-5.05,4.87-1.86,1.5-3.64,3.05-5.97,3.69-1.05.28-5.64,1.26-6.59.59.01,0,0-.01-.02-.02Z"/>
      <path class="cls-7" d="m224.93,186.47s6.69-.29,12.31-5.86"/>
      <path class="cls-7" d="m244.08,175.67c.44-.3,3.9-1.04,2.98-2.49-.64-1.01-3.23-.99-4.18-.97-2.42.07-5.8,1.2-7.64,2.8"/>
      <path class="cls-15" d="m171.57,182.56s-4.7,4.51-1.71,7.3c1.71,1.61,10.27,2.86,11.43,4.94,1.35,2.43-2.72,2.81-2.72,2.81,0,0-11.7.35-13.09-2.19-1.39-2.54-2.45-13.08,6.09-12.87Z"/>
      <path class="cls-31" d="m166.3,188.46l2.59-1.18s1.54-4.71,2.5-5.02c.01,0-5.09,1.74-5.09,6.2Z"/>
      <path class="cls-17" d="m245.32,197.62c6.05,0,10.96-4.9,10.96-10.96s-4.9-10.96-10.96-10.96-10.96,4.9-10.96,10.96,4.9,10.96,10.96,10.96Z"/>
      <path class="cls-7" d="m248.81,176.28c-1.1-.37-2.27-.57-3.5-.57-6.05,0-10.96,4.9-10.96,10.96s4.9,10.96,10.96,10.96c4.39,0,8.17-2.58,9.92-6.3"/>
      <path class="cls-19" d="m252.37,194.28c-.93-1.99-3.95-2.74-13.63-2.1-9.67.64-11.85-4.09-13.91-5.87-.19-.16-.33-.33-.48-.5l-.8-2.03c0,.21.02.42.07.64-.06-.23-.08-.46-.08-.68v.03c.02-.65.25-1.23.61-1.6.01-.01.02-.03.05-.05.05-.05.1-.08.16-.13.11-.07.22-.15.34-.18.03-.01.05-.03.07-.07.09-.03.17-.08.26-.09,1.25-.17,8.54-1.63,9.94-2.78,1.4-1.15,1.2-3.13,1.2-3.13,0,0-1.9-1.66-2.9-2.68s-.65-2.76-1.78-5.25c-1.12-2.48-5.02-3.16-6.09-4.53-.96-1.23-.16-5.49-.16-5.5-.05.19-2.15.72-2.42.95-.56.48-1.03,1.05-1.44,1.66-.8,1.18-1.38,2.5-2.21,3.67-2.27,3.15-6.41,5.33-10.3,4.84-2.72-.34-5.33-1.39-7.78-2.56-5.91-2.83-11.32-6.74-16.44-10.79-17.19-14.08-30.56-6.9-34.86-1.64-4.48,5.48-6.28,5.75-12.31,2.92-9.25-4.34-11.15-9.96-14.71-15.94-2.57-7.75-3.44-13.75-2.29-21.77.42-1.48.15-4.32-1.15-5.16-1.38-.88-2.82,2.19-3.63,3.61,0,3.84-.93,5.97-.93,9.11,0,8.15,2.5,14.26,5.71,21.66,3.45,5.65,8.48,9.56,14.32,12.61,2.01.72,4.02,1.79,5.54,3.29,1.66,1.64,2.19,4.08,2.82,6.33,4.82,11.01,11.13,17.89,19.83,26.37,1.28,1.07,14.83.25,14.83.25,0,0,2.33.49,1.11-1.28-1.2-1.78-11.41-3.95-12.61-5.16-1.01-1.02-.7-3.52,0-4.58,3-4.56,9.49-5.02,14.36-4.45,7.48.88,12.57,7.04,19.16,10,5.76,2.59,12.16,3.2,18.11,5.18,3.41,1.13,27.39.87,28.59.72,1.21-.14,6.77-1.35,5.84-3.35Zm-28.58-9.33s-.03-.07-.05-.11c.02.03.03.07.05.11Z"/>
      <path class="cls-31" d="m230.31,173.82c.49,0,.89-.4.89-.89s-.4-.89-.89-.89-.89.4-.89.89.4.89.89.89Z"/>
      <path class="cls-7" d="m175.52,170.59c.37,3.08.5,8.09-1.9,10.47-1.65,1.64-4.13,2.07-5.89,3.57-1.8,1.53-2.45,3.71-1.31,5.86,1.18,2.21,10.26,3.03,12.77,5.15.79.68.29,1.98-.76,1.98h-12.62c-2.64,0-4.56-2.67-6.26-4.34-3.45-3.43-6.65-7.03-9.79-10.73,0,0-4.84-4.83-7.54-16.19-.99-4.13-7.06-5.08-10.22-6.91-14.23-8.3-18.76-26.16-15.86-41.51.21-1.1.85-3.22,1.95-3.73,3.64-1.71,2.37,6.03,2.17,7.55-1.96,14.06,5.1,30.9,19.2,35.97,3.91,1.41,5.2,2.33,7.76-.78,3.04-3.71,6.74-7.13,11.37-8.66,7.69-2.55,16.37-.94,24.08,5.8,7.71,6.74,14.02,10.68,18.03,12.59"/>
      <path class="cls-31" d="m227.73,181.08s-1.66,3.92-1.21,5.07l-2.21.24s-1.16-3.01-.01-4.35c1.15-1.34,3.44-.95,3.44-.95Z"/>
      <path class="cls-7" d="m171.83,182.26s9.25-2.42,15.65,1.71c6.41,4.13,12.53,10.24,30.45,13.09,0,0,18.85.57,28.59.57,0,0,7.19-.83,5.84-3.35-1.03-1.93-5.19-2.42-8.08-2.31-2.81.1-6.37-.1-11.85-.61-5.48-.49-9.11-6.47-8.67-8.54.42-2.06,1.85-1.49,5.26-2.06,3.11-.52,6.6-1,7.08-4.02.09-.55-.15-1.11-.6-1.44-.78-.6-2.03-1.62-2.26-2.2-1.04-2.77-.49-5.34-3.22-6.93-1.47-.86-4.37-1.48-4.84-3.43-.34-1.41.39-2.74.3-4.14-.08-1.33-1.41-.94-2.19-.34-.77.6-1.39,1.39-1.94,2.19-1.81,2.62-4.72,9.02-11.2,8.39-6.47-.63-9.49-2.14-9.49-2.14"/>
    </g>
    <rect class="cls-25" x="69.6" y="497.1" width="260.8" height="90.7"/>
    <g>
      <polyline class="cls-2" points="317.5 421.4 321 418 324.5 421.4"/>
      <polyline class="cls-2" points="324.5 427 321 430.5 317.5 427"/>
    </g>
    <line class="cls-8" x1="72" y1="424.2" x2="128.7" y2="424.2"/>
    <rect class="cls-20" x="49.1" y="223.4" width="300" height="1.9"/>
    <polyline class="cls-41" points="316.1 187.7 316.1 195.2 321.1 195.2 327.3 201.3 327.3 181.5 321.1 187.6 316.1 187.6 316.1 187.7"/>
    <g>
      <circle class="cls-28" cx="82.2" cy="451.3" r="8.8"/>
      <text class="cls-21" transform="translate(78.65 454.83)"><tspan x="0" y="0">G</tspan></text>
    </g>
    <g>
      <circle class="cls-14" cx="82.34" cy="257.43" r="13.39"/>
      <g class="cls-23">
        <g id="dCTiGC.tif">
          <path class="cls-27" d="m80.47,263.2c-.17-.08-.25-.08-.34-.17-.42-.25-.93-.59-1.36-.93-.59-.42-1.02-.85-1.44-1.44-.34-.51-.68-1.02-.85-1.61-.25-.68-.34-1.36-.42-2.03v-.08l-.08-.08c0,.08-.08.08-.08.17v1.44c0,.34.08.68.17,1.02.08.34.17.68.34.93.17.34.34.68.59,1.02.51.68,1.1,1.27,1.78,1.78.25.17.51.34.76.51.34.17.68.42,1.02.59.51.25,1.02.51,1.53.76.34.17.68.25.93.42.08,0,.17.08.25.17.08,0,.17,0,.25.08.59.25,1.19.51,1.78.76.51.25,1.02.42,1.53.68.34.17.76.34,1.1.51.25.17.59.34.85.51.34.17.68.42,1.02.59.34.25.68.42,1.02.68.08.08.25.17.34.25h-17.71c-.08,0-.17,0-.17-.17-.08-.34-.17-.76-.17-1.1-.08-.34-.17-.76-.25-1.1,0-.17-.08-.42-.08-.59s-.08-.42-.08-.59v-.08c-.08-.93-.25-1.78-.25-2.71,0-.42,0-.85.08-1.27s.08-.93.17-1.36.17-.76.25-1.19c.08-.25.17-.51.25-.76.08-.25.17-.59.34-.85.17-.34.34-.76.51-1.1s.25-.59.42-.93c.59-1.1,1.36-2.03,2.29-2.88.42-.42.85-.76,1.36-1.1.34-.25.68-.51,1.1-.68.42-.25.76-.42,1.19-.59.34-.17.68-.25,1.1-.42v.59c-.08.59-.08,1.19-.17,1.78,0,.08,0,.25-.08.34,0,.08.08.17.17.17.42.08.93.17,1.36.34.42.08.76.34,1.02.68.17.25.34.59.42.93.17.76.51,1.36,1.1,1.86.17.17.42.25.68.42.08.08.25.08.34.17.08,0,.08.08.08.17,0,.34-.08.68-.08.93-.17.68-.42,1.27-.93,1.7-.34.25-.68.42-1.1.59-.51.08-1.02.17-1.53.25-.42,0-.76.08-1.1.25-.17.08-.42.17-.59.25-.25.17-.42.42-.51.76-.08.25,0,.51.08.76q-.17-.08-.17,0Z"/>
        </g>
      </g>
      <path class="cls-19" d="m81.83,257.35c.34,0,.59-.25.59-.59s-.25-.59-.59-.59-.59.25-.59.59c-.08.34.25.59.59.59Z"/>
    </g>
    <g>
      <circle class="cls-13" cx="82.3" cy="381.4" r="13.4"/>
      <g class="cls-39">
        <g id="dCTiGC.tif-2" data-name="dCTiGC.tif">
          <path class="cls-27" d="m80.4,387.2c-.1-.1-.2-.1-.3-.1-.5-.3-.9-.6-1.4-.9-.6-.4-1.1-.9-1.5-1.4s-.6-1-.8-1.6c-.2-.7-.4-1.3-.4-2v-.2c0,.1-.1.1-.1.1v1.4c0,.4.1.7.2,1.1.1.3.2.6.3.9.2.4.4.7.6,1,.5.7,1.1,1.3,1.8,1.8.2.2.5.4.8.5.3.2.7.4,1,.6.5.3,1,.5,1.5.7.3.1.7.3,1,.4.1,0,.2.1.2.1.1,0,.2,0,.3.1.6.2,1.2.5,1.8.8.5.2,1,.4,1.5.7.4.2.7.3,1.1.5.3.1.6.3.8.5.4.2.7.4,1.1.6.3.2.7.5,1,.7.1.1.2.2.4.3h-17.8c-.1,0-.2,0-.2-.2-.1-.4-.1-.8-.2-1.1-.1-.4-.1-.8-.2-1.1,0-.2,0-.4-.1-.6,0-.2-.1-.4-.1-.6v-.1c-.1-.9-.3-1.8-.2-2.7,0-.4,0-.9.1-1.3,0-.4.1-.9.2-1.3s.1-.8.2-1.2c.1-.3.1-.5.2-.8s.2-.6.3-.9c.2-.4.3-.7.5-1.1.1-.3.3-.6.5-.9.6-1.1,1.4-2.1,2.3-2.9.4-.4.9-.8,1.3-1.1.3-.3.7-.5,1.1-.7s.8-.4,1.2-.6c.3-.1.7-.3,1.1-.4v.6c0,.6-.1,1.2-.2,1.8v.3c0,.1,0,.2.2.2.5.1.9.2,1.4.4.4.1.8.3,1,.7.2.3.3.6.4.9.2.7.5,1.4,1.1,1.9.2.2.5.3.7.4.1.1.2.1.4.2,0,0,.1.1.1.2,0,.3-.1.7-.1,1-.1.7-.4,1.2-.9,1.7-.3.3-.7.5-1.1.6-.5.1-1,.2-1.5.2-.4,0-.8.1-1.1.3-.2.1-.4.2-.6.3-.3.2-.5.4-.6.7-.1.3,0,.5.1.8-.4-.4-.4-.3-.4-.2Z"/>
        </g>
      </g>
      <path class="cls-19" d="m81.7,381.3c.3,0,.6-.3.6-.6s-.3-.6-.6-.6-.6.3-.6.6.3.6.6.6Z"/>
    </g>
    <line class="cls-8" x1="119.2" y1="389.5" x2="149" y2="389.5"/>
    <text class="cls-34" transform="translate(117.18 377.08)"><tspan class="cls-24" x="0" y="0">C</tspan><tspan class="cls-22" x="8.7" y="0">a</tspan><tspan class="cls-35" x="15.13" y="0">t</tspan><tspan class="cls-42" x="19.96" y="0">s</tspan><tspan class="cls-40" x="25.76" y="0">t</tspan><tspan class="cls-43" x="30.47" y="0">u</tspan><tspan class="cls-44" x="37.49" y="0">ff</tspan><tspan x="45.3" y="0">.</tspan><tspan class="cls-42" x="48.44" y="0">c</tspan><tspan class="cls-22" x="55.09" y="0">o</tspan><tspan class="cls-38" x="62.23" y="0">m</tspan></text>
    <line class="cls-9" x1="49.1" y1="355.3" x2="350" y2="355.3"/>
    <line class="cls-9" x1="49.1" y1="405.3" x2="350" y2="405.3"/>
    <line class="cls-9" x1="49.1" y1="474.6" x2="350" y2="474.6"/>
    <line class="cls-11" x1="72" y1="289.2" x2="276.2" y2="289.2"/>
    <line class="cls-8" x1="72" y1="302.7" x2="149.5" y2="302.7"/>
    <polygon class="cls-30" points="321.9 287.3 325.9 291.3 329.9 287.3 321.9 287.3"/>
    <line class="cls-6" x1="275.6" y1="379.8" x2="327.4" y2="379.8"/>
    <path class="cls-25" d="m323.8,459.7H100.3c-.9,0-1.7-.8-1.7-1.7v-13.4c0-.9.8-1.7,1.7-1.7h223.5c.9,0,1.7.8,1.7,1.7v13.4c0,1-.8,1.7-1.7,1.7Z"/>
    <g>
      <path class="cls-5" d="m78.3,9.5h243.9c15.8,0,28.7,12.8,28.7,28.7v523.6c0,15.8-12.8,28.7-28.7,28.7H78.3c-15.8,0-28.7-12.8-28.7-28.7V38.2c0-15.9,12.8-28.7,28.7-28.7Z"/>
      <path class="cls-18" d="m49.6,38.2c0-15.8,12.8-28.7,28.7-28.7h243.9c15.8,0,28.7,12.8,28.7,28.7v14.3H49.6v-14.3Z"/>
      <path class="cls-18" d="m350.8,561.8c0,15.8-12.8,28.7-28.7,28.7H78.3c-15.8,0-28.7-12.8-28.7-28.7v-14.3h301.3l-.1,14.3h0Z"/>
      <path class="cls-5" d="m153.6,23.8h0c0,4,3.2,7.2,7.2,7.2h78.9c4,0,7.2-3.2,7.2-7.2h0"/>
    </g>
    <g>
      <rect class="cls-12" x="150.7" y="324.1" width="3.3" height="7.6"/>
      <path class="cls-12" d="m142.4,337.1l6-5.2v-7.8l-8.4-.9c-.9-.1-1.7.5-2,1.3l-1.6,6.3c-.1.6.3,1.1.9,1.1h5.5c-1.7,2.2-.9,4.3-.4,5.2Z"/>
    </g>
    <g>
      <rect class="cls-12" x="74.9" y="328.8" width="3.5" height="8"/>
      <path class="cls-12" d="m87.2,323l-6.4,5.5v8.3l9.1,1c.9.1,1.7-.5,2-1.3l1.7-6.8c.1-.6-.3-1.1-.9-1.1h-6c1.9-2.3,1.1-4.6.5-5.6Z"/>
    </g>
    <path class="cls-3" d="m196.9,335.6v-2.5h0c0-2.5,2-4.5,4.5-4.5h11.5m0,0l-4-4m4,4l-4,4"/>
    <g>
      <path class="cls-3" d="m261.3,320.8v11m0-.1l4.1-4.1m-4.1,4.1l-4.1-4.1"/>
      <line class="cls-3" x1="255.8" y1="334.4" x2="266.9" y2="334.4"/>
    </g>
    <g>
      <rect class="cls-4" x="312.2" y="322.5" width="12.9" height="12.9"/>
      <polyline class="cls-4" points="322.6 337.7 309.8 337.7 309.8 324.9"/>
      <g>
        <line class="cls-4" x1="318.7" y1="326.1" x2="318.7" y2="331.7"/>
        <line class="cls-4" x1="315.9" y1="328.9" x2="321.5" y2="328.9"/>
      </g>
    </g>
  </g>
  <g id="Layer_2" data-name="Layer 2">
    <path class="cls-29" d="m329.06,265.59h-91.08c-.53,0-.92-.46-.92-.92v-19.71c0-.53.46-.92.92-.92h91.08c.53,0,.92.38.92.92v19.63c0,.61-.38.99-.92.99Z"/>
    <g>
      <path class="cls-19" d="m258.11,249.91h1.99l2.17,5.75h.09l2.17-5.75h2v8.18h-1.53v-4.03l.09-1.36h-.09l-2.08,5.39h-1.2l-2.09-5.39h-.09l.09,1.36v4.03h-1.52v-8.18Z"/>
      <path class="cls-19" d="m268.57,257.62c-.37-.43-.55-1.04-.55-1.82v-3.54h1.5v3.36c0,.4.1.71.29.93.19.22.44.34.75.34.43,0,.77-.16,1.02-.47.25-.31.38-.71.38-1.19v-2.97h1.5v5.83h-1.4v-.73h-.09c-.18.28-.42.5-.74.67-.32.16-.67.25-1.05.25-.7,0-1.23-.22-1.6-.65Z"/>
      <path class="cls-19" d="m275.12,257.73c-.4-.36-.59-.84-.59-1.42,0-.39.1-.73.31-1.03.21-.3.49-.53.85-.69.36-.16.75-.24,1.19-.24.6,0,1.12.09,1.54.26v-.25c0-.32-.12-.58-.36-.78-.24-.2-.56-.3-.96-.3-.27,0-.54.06-.79.19-.26.13-.47.29-.63.5l-.96-.75c.28-.37.63-.65,1.06-.85.43-.2.89-.3,1.39-.3.89,0,1.57.21,2.03.62.46.41.7,1.01.7,1.81v3.59h-1.47v-.59h-.09c-.18.23-.41.42-.69.56s-.62.22-.99.22c-.62,0-1.12-.18-1.52-.54Zm2.91-1.04c.25-.28.38-.6.38-.98-.39-.18-.8-.27-1.22-.27-.78,0-1.17.29-1.17.87,0,.24.08.43.25.58s.41.22.72.22c.44,0,.78-.14,1.04-.42Z"/>
      <path class="cls-19" d="m283.94,252.26h1.4v.73h.09c.17-.28.42-.5.74-.67.32-.16.67-.25,1.04-.25.7,0,1.23.21,1.6.64.37.43.55,1.01.55,1.75v3.62h-1.5v-3.44c0-.37-.1-.66-.29-.87-.19-.21-.46-.31-.8-.31-.4,0-.73.16-.98.47-.25.31-.37.7-.37,1.18v2.97h-1.5v-5.83Z"/>
      <path class="cls-19" d="m291.57,260.24c-.49-.33-.81-.73-.98-1.19l1.41-.57c.12.29.31.52.56.69.25.17.54.25.86.25.47,0,.85-.14,1.12-.43.28-.29.42-.7.42-1.23v-.46h-.09c-.18.26-.42.46-.72.59-.3.14-.63.21-1.02.21-.48,0-.93-.12-1.34-.37-.42-.25-.75-.6-1-1.05s-.38-.98-.38-1.58.12-1.13.38-1.58c.25-.45.58-.8,1-1.05.41-.25.86-.37,1.34-.37.38,0,.72.07,1.02.21.3.14.54.33.72.59h.09v-.62h1.44v5.43c0,.62-.12,1.17-.37,1.62-.24.46-.59.81-1.04,1.06-.45.25-.97.37-1.58.37-.74,0-1.35-.17-1.84-.5Zm2.94-3.95c.3-.29.45-.69.45-1.21s-.15-.93-.44-1.22c-.29-.29-.65-.43-1.08-.43s-.79.14-1.09.43-.45.69-.45,1.21.15.92.45,1.21.66.43,1.09.43.78-.15,1.07-.44Z"/>
      <path class="cls-19" d="m298.06,257.73c-.4-.36-.59-.84-.59-1.42,0-.39.1-.73.31-1.03.21-.3.49-.53.85-.69.36-.16.75-.24,1.19-.24.6,0,1.12.09,1.54.26v-.25c0-.32-.12-.58-.36-.78-.24-.2-.56-.3-.96-.3-.27,0-.54.06-.79.19-.26.13-.47.29-.63.5l-.96-.75c.28-.37.63-.65,1.06-.85.43-.2.89-.3,1.39-.3.89,0,1.57.21,2.03.62.46.41.7,1.01.7,1.81v3.59h-1.47v-.59h-.09c-.18.23-.41.42-.69.56s-.62.22-.99.22c-.62,0-1.12-.18-1.52-.54Zm2.91-1.04c.25-.28.38-.6.38-.98-.39-.18-.8-.27-1.22-.27-.78,0-1.17.29-1.17.87,0,.24.08.43.25.58s.41.22.72.22c.44,0,.78-.14,1.04-.42Z"/>
      <path class="cls-19" d="m305.91,257.81l-2.46-5.55h1.7l1.51,3.62h.09l1.45-3.62h1.67l-3.6,8.29h-1.61l1.25-2.74Z"/>
    </g>
    <g class="cls-37">
      <path class="cls-33" d="m112.92,241.15c-.69-.39-1.23-.93-1.64-1.61-.4-.68-.61-1.45-.61-2.29s.2-1.6.61-2.29c.4-.68.95-1.22,1.64-1.61s1.44-.59,2.26-.59c.66,0,1.26.12,1.81.35.55.23,1.02.56,1.4.97l-.91.91c-.58-.66-1.35-.98-2.3-.98-.56,0-1.08.13-1.57.4-.49.27-.88.65-1.16,1.15-.29.5-.43,1.06-.43,1.69s.15,1.21.44,1.7c.29.49.68.87,1.16,1.14.48.27,1.01.4,1.58.4.9,0,1.64-.28,2.21-.85.18-.18.34-.4.46-.67.12-.27.21-.57.26-.9h-2.95v-1.16h4.18c.05.27.07.5.07.7,0,.54-.09,1.06-.26,1.55s-.44.93-.8,1.3c-.38.42-.84.73-1.38.95-.54.22-1.14.33-1.8.33-.82,0-1.57-.2-2.26-.59Z"/>
      <path class="cls-33" d="m120.84,234.26c-.17-.17-.26-.38-.26-.62s.09-.44.26-.61.38-.25.62-.25.45.08.62.25.26.37.26.61-.09.45-.26.62-.38.26-.62.26-.45-.09-.62-.26Zm-.03,1.16h1.3v6.12h-1.3v-6.12Z"/>
      <path class="cls-33" d="m124.4,241.48c-.34-.17-.61-.41-.8-.73-.19-.31-.29-.67-.29-1.07,0-.42.11-.79.34-1.1.22-.31.53-.54.91-.71.38-.16.81-.25,1.28-.25.36,0,.69.03.98.1.29.07.53.15.7.23v-.32c0-.39-.14-.71-.43-.95-.29-.24-.66-.37-1.12-.37-.31,0-.61.07-.89.21s-.5.33-.67.57l-.89-.68c.26-.38.61-.67,1.05-.88s.91-.31,1.43-.31c.88,0,1.56.22,2.05.65.48.44.73,1.05.73,1.83v3.83h-1.26v-.76h-.07c-.18.27-.43.5-.76.68-.33.18-.7.27-1.12.27-.44,0-.83-.09-1.18-.26Zm2.28-1.03c.26-.16.47-.37.62-.63.15-.26.22-.55.22-.85-.19-.11-.41-.2-.66-.26-.25-.06-.51-.1-.78-.1-.5,0-.87.1-1.11.3-.24.2-.35.46-.35.79,0,.29.11.52.32.71.22.18.5.28.86.28.32,0,.61-.08.88-.23Zm-1.15-6.45c.22-.06.39-.14.49-.23.1-.09.16-.21.16-.35,0-.12-.04-.21-.13-.28-.09-.06-.21-.1-.36-.1-.22,0-.43.04-.62.13l-.24-.72c.35-.13.68-.19,1-.19.41,0,.72.09.94.28.22.19.33.46.33.81,0,.38-.12.68-.35.9-.23.22-.56.36-.98.43l-.23-.68Z"/>
      <path class="cls-33" d="m130.21,235.42h1.22v.84h.07c.18-.3.44-.55.78-.74s.7-.29,1.1-.29c.44,0,.82.1,1.15.31.32.21.56.48.7.83.22-.34.5-.62.85-.83s.76-.31,1.23-.31c.7,0,1.24.21,1.6.64.36.43.54,1.01.54,1.75v3.92h-1.28v-3.71c0-.94-.4-1.42-1.2-1.42-.44,0-.8.18-1.07.53-.28.35-.41.79-.41,1.32v3.28h-1.28v-3.71c0-.94-.41-1.42-1.24-1.42-.42,0-.77.18-1.04.53s-.41.8-.41,1.33v3.26h-1.3v-6.12Z"/>
      <path class="cls-33" d="m144.63,243.82c-.49-.34-.82-.75-.99-1.23l1.2-.5c.13.33.34.59.63.79.29.2.63.3,1.01.3.57,0,1.01-.17,1.33-.52.32-.35.48-.84.48-1.47v-.59h-.07c-.2.3-.47.53-.8.7s-.72.25-1.15.25c-.52,0-1-.13-1.43-.39-.44-.26-.78-.63-1.04-1.11-.26-.48-.39-1.03-.39-1.65s.13-1.17.39-1.65c.26-.48.61-.85,1.04-1.12.44-.27.91-.4,1.43-.4.42,0,.81.09,1.15.26.34.17.61.41.81.7h.07v-.77h1.24v5.8c0,.66-.13,1.22-.38,1.69-.26.47-.62.82-1.07,1.06-.46.24-.99.36-1.59.36-.74,0-1.36-.17-1.85-.51Zm2.77-3.69c.27-.16.49-.38.65-.68.16-.3.25-.65.25-1.06s-.08-.78-.25-1.08-.38-.53-.65-.68c-.27-.15-.57-.23-.9-.23s-.63.08-.91.23-.5.38-.66.68-.25.66-.25,1.08.08.76.25,1.06c.16.3.38.53.66.68.28.15.58.23.91.23s.63-.08.9-.24Z"/>
      <path class="cls-33" d="m151.17,234.26c-.17-.17-.26-.38-.26-.62s.09-.44.26-.61.38-.25.62-.25.45.08.62.25c.17.17.26.37.26.61s-.09.45-.26.62c-.17.17-.38.26-.62.26s-.45-.09-.62-.26Zm-.03,1.16h1.3v6.12h-1.3v-6.12Z"/>
      <path class="cls-33" d="m154.72,241.48c-.34-.17-.61-.41-.8-.73-.19-.31-.29-.67-.29-1.07,0-.42.11-.79.34-1.1.22-.31.53-.54.91-.71s.81-.25,1.28-.25c.36,0,.69.03.98.1.29.07.53.15.7.23v-.32c0-.39-.14-.71-.43-.95s-.66-.37-1.12-.37c-.31,0-.61.07-.89.21-.28.14-.5.33-.67.57l-.89-.68c.26-.38.61-.67,1.05-.88.44-.21.91-.31,1.43-.31.88,0,1.56.22,2.05.65.48.44.73,1.05.73,1.83v3.83h-1.26v-.76h-.07c-.18.27-.43.5-.76.68-.33.18-.7.27-1.12.27-.44,0-.83-.09-1.18-.26Zm2.28-1.03c.26-.16.47-.37.62-.63s.22-.55.22-.85c-.19-.11-.41-.2-.66-.26-.25-.06-.51-.1-.78-.1-.5,0-.88.1-1.11.3-.24.2-.35.46-.35.79,0,.29.11.52.32.71.22.18.5.28.86.28.32,0,.61-.08.88-.23Zm-.58-7.78h1.46l-.96,1.57h-1.07l.56-1.57Z"/>
      <path class="cls-33" d="m163.33,232.95h1.29v5.04h.05l2.54-2.57h1.61v.07l-2.36,2.35,2.45,3.62v.07h-1.54l-1.82-2.81-.92.92v1.88h-1.29v-8.59Z"/>
      <path class="cls-33" d="m169.71,232.95h1.3v2.35l-.07.96h.07c.18-.3.44-.55.79-.74.35-.19.73-.29,1.15-.29.74,0,1.31.22,1.7.67s.59,1.04.59,1.78v3.86h-1.28v-3.7c0-.47-.12-.83-.38-1.07-.25-.24-.57-.36-.97-.36-.3,0-.57.09-.81.26-.24.17-.44.4-.58.69-.14.29-.21.59-.21.91v3.26h-1.3v-8.59Z"/>
      <path class="cls-33" d="m177.24,241.07c-.39-.44-.58-1.06-.58-1.85v-3.79h1.29v3.61c0,.5.12.87.35,1.13s.54.38.94.38c.32,0,.6-.08.85-.25s.44-.39.57-.67c.13-.28.2-.58.2-.91v-3.29h1.28v6.12h-1.21v-.83h-.07c-.18.3-.44.54-.79.73-.35.19-.73.29-1.14.29-.74,0-1.3-.22-1.69-.67Zm1.65-7.07c.22-.06.39-.14.49-.23.1-.09.16-.21.16-.35,0-.12-.04-.21-.13-.28-.09-.06-.21-.1-.36-.1-.22,0-.43.04-.62.13l-.24-.72c.35-.13.68-.19,1-.19.41,0,.72.09.94.28.22.19.33.46.33.81,0,.38-.12.68-.35.9-.23.22-.56.36-.98.43l-.23-.68Z"/>
      <path class="cls-33" d="m183.67,235.42h1.22v.84h.07c.18-.3.44-.55.79-.74.35-.19.73-.29,1.14-.29.74,0,1.3.22,1.68.65.38.44.58,1.03.58,1.79v3.86h-1.29v-3.7c0-.48-.12-.84-.36-1.07s-.57-.35-.98-.35c-.3,0-.57.08-.81.25-.24.17-.42.39-.55.67-.13.28-.2.58-.2.91v3.29h-1.29v-6.12Z"/>
      <path class="cls-33" d="m191.47,243.82c-.49-.34-.82-.75-.99-1.23l1.2-.5c.13.33.34.59.63.79.29.2.63.3,1.01.3.57,0,1.01-.17,1.33-.52.32-.35.48-.84.48-1.47v-.59h-.07c-.2.3-.47.53-.8.7s-.72.25-1.15.25c-.52,0-1-.13-1.43-.39-.44-.26-.78-.63-1.04-1.11-.26-.48-.39-1.03-.39-1.65s.13-1.17.39-1.65c.26-.48.61-.85,1.04-1.12.44-.27.91-.4,1.43-.4.42,0,.81.09,1.15.26.34.17.61.41.81.7h.07v-.77h1.24v5.8c0,.66-.13,1.22-.38,1.69-.26.47-.62.82-1.07,1.06-.46.24-.99.36-1.59.36-.74,0-1.36-.17-1.85-.51Zm2.77-3.69c.27-.16.49-.38.65-.68.16-.3.25-.65.25-1.06s-.08-.78-.25-1.08-.38-.53-.65-.68c-.27-.15-.57-.23-.9-.23s-.63.08-.91.23-.5.38-.66.68-.25.66-.25,1.08.08.76.25,1.06c.16.3.38.53.66.68.28.15.58.23.91.23s.63-.08.9-.24Z"/>
      <path class="cls-33" d="m201.88,241.31c-.48-.28-.85-.67-1.12-1.16-.27-.49-.4-1.05-.4-1.67s.13-1.18.4-1.67c.27-.49.64-.88,1.12-1.16.48-.28,1.02-.42,1.63-.42.67,0,1.24.15,1.71.45.47.3.81.71,1.01,1.24l-1.18.48c-.29-.66-.81-.98-1.57-.98-.34,0-.65.09-.93.26-.28.17-.51.41-.67.73s-.25.67-.25,1.08.08.77.25,1.08.39.55.67.73c.29.17.59.26.93.26.38,0,.71-.09.99-.26.28-.17.49-.42.64-.75l1.16.5c-.24.52-.6.93-1.07,1.24-.47.3-1.04.46-1.7.46-.61,0-1.15-.14-1.63-.42Z"/>
      <path class="cls-33" d="m207.39,232.95h1.3v2.35l-.07.96h.07c.18-.3.44-.55.79-.74s.73-.29,1.15-.29c.74,0,1.31.22,1.71.67.39.44.59,1.04.59,1.78v3.86h-1.29v-3.7c0-.47-.12-.83-.38-1.07-.25-.24-.57-.36-.97-.36-.3,0-.57.09-.81.26-.24.17-.44.4-.58.69-.14.29-.21.59-.21.91v3.26h-1.3v-8.59Z"/>
      <path class="cls-33" d="m215.61,241.31c-.49-.28-.87-.67-1.14-1.17-.27-.5-.41-1.05-.41-1.66s.14-1.16.41-1.66c.27-.5.65-.89,1.14-1.17.49-.28,1.04-.43,1.66-.43s1.16.14,1.64.43c.49.29.87.68,1.14,1.18.27.5.41,1.04.41,1.64s-.14,1.16-.41,1.66-.65.89-1.13,1.17c-.48.28-1.04.43-1.65.43s-1.17-.14-1.66-.43Zm2.6-1.01c.29-.17.52-.41.7-.72.18-.31.26-.68.26-1.09s-.09-.78-.26-1.09c-.18-.31-.41-.55-.7-.72-.29-.17-.6-.25-.95-.25s-.66.08-.96.25c-.29.17-.53.41-.7.72s-.26.68-.26,1.09.09.78.26,1.09.41.55.7.72c.29.17.61.25.96.25s.66-.08.95-.25Z"/>
      <path class="cls-33" d="m117.5,249.02h-.74v6.92h-1.21v-.82h-.07c-.18.28-.44.52-.78.71-.34.2-.74.29-1.19.29-.55,0-1.05-.14-1.5-.41-.45-.28-.8-.66-1.06-1.16s-.38-1.06-.38-1.68.13-1.18.38-1.67c.26-.49.61-.88,1.06-1.16.45-.28.95-.42,1.5-.42.45,0,.84.1,1.19.29.34.2.6.44.78.73h.07l-.07-.82v-.82h-1.75v-.95h1.75v-.72h1.28v.72h.74v.95Zm-2.9,5.67c.28-.17.51-.41.68-.73s.26-.67.26-1.08-.09-.77-.26-1.08-.4-.55-.68-.73c-.29-.17-.59-.26-.91-.26s-.62.09-.91.26c-.28.17-.51.41-.68.73-.17.31-.26.67-.26,1.08s.09.77.26,1.08c.17.31.4.55.68.73.28.17.59.26.91.26s.62-.09.91-.26Z"/>
      <path class="cls-33" d="m119.42,255.71c-.49-.28-.87-.67-1.14-1.17-.27-.5-.41-1.05-.41-1.66s.14-1.16.41-1.66c.27-.5.65-.89,1.14-1.17.49-.28,1.04-.43,1.66-.43s1.16.14,1.64.43.87.68,1.14,1.18c.27.5.41,1.04.41,1.64s-.14,1.16-.41,1.66c-.27.5-.65.89-1.13,1.17-.48.28-1.03.43-1.65.43s-1.17-.14-1.66-.43Zm2.6-1.01c.29-.17.52-.41.7-.72s.26-.68.26-1.09-.09-.78-.26-1.09-.41-.55-.7-.72c-.29-.17-.6-.25-.95-.25s-.66.08-.95.25c-.29.17-.53.41-.7.72-.18.31-.26.68-.26,1.09s.09.78.26,1.09c.18.31.41.55.7.72.29.17.61.25.95.25s.66-.08.95-.25Zm-2.83-6.13l1.29-1.44h1.13l1.31,1.44v.08h-1.25l-.56-.7h-.12l-.56.7h-1.24v-.08Zm2.17-2.88h1.46l.53,1.49h-.98l-1.01-1.49Z"/>
      <path class="cls-33" d="m129.45,255.71c-.48-.28-.85-.67-1.12-1.16-.27-.49-.4-1.05-.4-1.67s.13-1.18.4-1.67c.27-.49.64-.88,1.12-1.16.48-.28,1.02-.42,1.63-.42.67,0,1.24.15,1.71.45.47.3.81.71,1.01,1.24l-1.18.48c-.29-.66-.81-.98-1.57-.98-.34,0-.65.09-.93.26-.28.17-.51.41-.67.73s-.25.67-.25,1.08.08.77.25,1.08.39.55.67.73c.28.17.59.26.93.26.38,0,.71-.09.99-.26.28-.17.49-.42.64-.75l1.16.5c-.24.52-.6.93-1.07,1.24-.47.3-1.04.46-1.71.46-.61,0-1.15-.14-1.63-.42Z"/>
      <path class="cls-33" d="m134.96,247.35h1.29v2.35l-.07.96h.07c.18-.3.44-.55.79-.74s.73-.29,1.15-.29c.74,0,1.31.22,1.7.67s.59,1.04.59,1.78v3.86h-1.28v-3.7c0-.47-.13-.83-.38-1.07-.25-.24-.57-.36-.97-.36-.3,0-.57.09-.81.26-.24.17-.44.4-.58.69-.14.29-.21.59-.21.91v3.26h-1.29v-8.59Z"/>
      <path class="cls-33" d="m143.18,255.71c-.49-.28-.87-.67-1.14-1.17-.27-.5-.41-1.05-.41-1.66s.14-1.16.41-1.66c.27-.5.65-.89,1.14-1.17.49-.28,1.04-.43,1.66-.43.33,0,.65.04.97.11.05,0,.15.02.3.05.15.02.3.04.46.04.24,0,.41-.04.5-.11s.14-.2.14-.37v-.88h.98v1.13c0,.32-.07.57-.22.76-.14.18-.34.28-.6.28-.09,0-.18-.01-.26-.04v.05c.61.58.91,1.32.91,2.24,0,.61-.14,1.16-.41,1.66-.27.5-.65.89-1.13,1.17-.48.28-1.03.43-1.65.43s-1.17-.14-1.66-.43Zm2.6-1.01c.29-.17.52-.41.7-.72s.26-.68.26-1.09-.09-.78-.26-1.09-.41-.55-.7-.72c-.29-.17-.6-.25-.95-.25s-.66.08-.95.25c-.29.17-.53.41-.7.72-.18.31-.26.68-.26,1.09s.09.78.26,1.09c.18.31.41.55.7.72.29.17.61.25.95.25s.66-.08.95-.25Z"/>
      <path class="cls-33" d="m149.34,248.66c-.17-.17-.26-.38-.26-.62s.09-.44.26-.61.38-.25.62-.25.45.08.62.25.26.37.26.61-.09.45-.26.62-.38.26-.62.26-.45-.09-.62-.26Zm-.03,1.16h1.3v6.12h-1.3v-6.12Z"/>
      <path class="cls-33" d="m156.21,255.71c-.48-.28-.85-.67-1.12-1.16-.27-.49-.4-1.05-.4-1.67s.13-1.18.4-1.67c.27-.49.64-.88,1.12-1.16.48-.28,1.02-.42,1.63-.42.67,0,1.24.15,1.71.45.47.3.81.71,1.01,1.24l-1.18.48c-.29-.66-.81-.98-1.57-.98-.34,0-.65.09-.93.26-.28.17-.51.41-.67.73s-.25.67-.25,1.08.08.77.25,1.08.39.55.67.73c.28.17.59.26.93.26.38,0,.71-.09.99-.26.28-.17.49-.42.64-.75l1.16.5c-.24.52-.6.93-1.07,1.24-.47.3-1.04.46-1.71.46-.61,0-1.15-.14-1.63-.42Z"/>
      <path class="cls-33" d="m162.25,255.47c-.39-.44-.58-1.06-.58-1.85v-3.79h1.3v3.61c0,.5.12.87.35,1.13s.54.38.94.38c.32,0,.6-.08.85-.25.25-.17.44-.39.57-.67.13-.28.2-.58.2-.91v-3.29h1.28v6.12h-1.21v-.83h-.07c-.18.3-.44.54-.79.73-.35.19-.73.29-1.14.29-.74,0-1.3-.22-1.69-.67Zm1.65-7.07c.22-.06.39-.14.49-.23.1-.09.16-.21.16-.35,0-.12-.04-.21-.13-.28-.09-.06-.21-.1-.36-.1-.22,0-.43.04-.62.13l-.24-.72c.35-.13.68-.19,1-.19.41,0,.72.09.94.28.22.19.33.46.33.81,0,.38-.12.68-.35.9-.23.22-.56.36-.98.43l-.23-.68Z"/>
      <path class="cls-33" d="m169.36,255.88c-.34-.17-.61-.41-.8-.73-.19-.31-.29-.67-.29-1.07,0-.42.11-.79.34-1.1.22-.31.53-.54.91-.71s.81-.25,1.28-.25c.36,0,.69.03.98.1.29.07.53.15.7.23v-.32c0-.39-.14-.71-.43-.95s-.66-.37-1.12-.37c-.31,0-.61.07-.89.21-.28.14-.5.33-.67.57l-.89-.68c.26-.38.61-.67,1.05-.88.44-.21.91-.31,1.43-.31.88,0,1.56.22,2.05.65.48.44.73,1.05.73,1.83v3.83h-1.26v-.76h-.07c-.18.27-.43.5-.76.68-.33.18-.7.27-1.12.27-.44,0-.83-.09-1.18-.26Zm2.28-1.03c.26-.16.47-.37.62-.63s.22-.55.22-.85c-.19-.11-.41-.2-.66-.26-.25-.06-.51-.1-.78-.1-.5,0-.88.1-1.11.3-.24.2-.35.46-.35.79,0,.29.11.52.32.71.22.18.5.28.86.28.32,0,.61-.08.88-.23Z"/>
      <path class="cls-33" d="m177.97,249.82h1.22v.84h.07c.18-.3.45-.55.78-.74s.7-.29,1.1-.29c.44,0,.82.1,1.15.31.32.21.56.48.7.83.22-.34.5-.62.85-.83.35-.21.76-.31,1.23-.31.7,0,1.24.21,1.6.64.36.43.54,1.01.54,1.75v3.92h-1.29v-3.71c0-.94-.4-1.42-1.2-1.42-.44,0-.8.18-1.07.53-.28.35-.41.79-.41,1.32v3.28h-1.28v-3.71c0-.94-.41-1.42-1.24-1.42-.42,0-.77.18-1.04.53-.27.36-.41.8-.41,1.33v3.26h-1.29v-6.12Z"/>
      <path class="cls-33" d="m189.88,255.71c-.48-.28-.85-.67-1.12-1.16-.27-.49-.4-1.05-.4-1.66,0-.58.13-1.13.39-1.63s.62-.9,1.09-1.19c.46-.3.99-.44,1.57-.44.62,0,1.15.13,1.6.4.45.27.79.64,1.03,1.11.24.47.35,1.01.35,1.61,0,.16,0,.3-.02.41h-4.73c.05.58.26,1.03.62,1.35.36.32.78.47,1.26.47.39,0,.73-.09,1.01-.27s.5-.42.67-.71l1.07.52c-.28.5-.65.9-1.12,1.19-.46.29-1.02.43-1.67.43-.59,0-1.13-.14-1.6-.42Zm3.22-3.53c-.02-.22-.09-.45-.21-.67-.13-.22-.31-.41-.56-.56s-.55-.22-.91-.22c-.43,0-.8.13-1.1.4s-.51.62-.62,1.06h3.4Zm-3.21-5.12h1.48l.56,1.57h-1.09l-.95-1.57Z"/>
      <path class="cls-33" d="m196.87,255.71c-.49-.28-.87-.67-1.14-1.17s-.41-1.05-.41-1.66.13-1.16.41-1.66.65-.89,1.14-1.17c.49-.28,1.04-.43,1.66-.43s1.16.14,1.64.43.87.68,1.14,1.18c.27.5.41,1.04.41,1.64s-.14,1.16-.41,1.66c-.27.5-.65.89-1.13,1.17-.48.28-1.03.43-1.65.43s-1.17-.14-1.66-.43Zm2.6-1.01c.29-.17.52-.41.7-.72s.26-.68.26-1.09-.09-.78-.26-1.09-.41-.55-.7-.72-.6-.25-.95-.25-.66.08-.95.25c-.29.17-.53.41-.7.72s-.26.68-.26,1.09.09.78.26,1.09.41.55.7.72c.29.17.61.25.95.25s.66-.08.95-.25Z"/>
      <path class="cls-33" d="m203.07,255.68c-.18-.18-.26-.39-.26-.64s.09-.46.26-.64c.18-.18.39-.26.65-.26s.47.09.64.26.26.39.26.64-.09.46-.26.64c-.17.18-.38.26-.64.26s-.47-.09-.65-.26Zm0-5.63v-2.7h1.29v2.7l-.13,3.16h-1.04l-.12-3.16Z"/>
    </g>
    <g class="cls-36">
      <line class="cls-10" x1="152.59" y1="266.11" x2="177.84" y2="266.11"/>
    </g>
    <g id="Stark_-_YTADS_ad_badge_VI-44" data-name="Stark - YTADS ad badge_VI-44">
      <path class="cls-32" d="m145.79,266.09c0-.11.06-.28.17-.33.11-.11.22-.17.39-.17s.28.06.39.17.17.22.17.33-.06.28-.17.33c-.11.11-.22.17-.39.17s-.28-.06-.39-.17c-.11-.06-.17-.17-.17-.33Z"/>
      <g>
        <path d="m114.57,265.95v.22c0,.36-.05.68-.14.96s-.23.52-.41.73-.39.35-.63.46-.51.16-.81.16-.57-.06-.81-.16-.46-.26-.63-.46-.32-.44-.41-.73-.15-.61-.15-.96v-.22c0-.36.05-.68.15-.96s.24-.52.41-.73.39-.35.63-.46.52-.16.81-.16.57.06.81.16.46.26.63.46.31.44.41.73c.1.29.14.61.14.96Zm-.98.22v-.23c0-.25-.02-.47-.07-.66s-.12-.35-.2-.48-.19-.23-.32-.29-.27-.1-.44-.1-.31.03-.44.1-.23.17-.32.29-.15.29-.2.48-.07.41-.07.66v.23c0,.25.02.47.07.66s.11.35.2.48.2.23.33.3.28.1.44.1.31-.03.44-.1.23-.17.32-.3.15-.29.2-.48.07-.41.07-.66Zm-.33,1.54l1.27,1.01-.61.53-1.25-1.01.59-.53Z"/>
        <path d="m117.39,266.86h.28c0,.23-.03.44-.08.64s-.13.37-.24.52-.24.26-.41.34-.36.12-.58.12c-.17,0-.33-.02-.47-.07s-.26-.13-.37-.23-.18-.24-.24-.4-.09-.36-.09-.6v-2.26h.93v2.27c0,.1.01.19.04.26s.06.13.1.18.1.08.16.1.13.03.2.03c.19,0,.34-.04.45-.12s.19-.18.24-.32.07-.29.07-.45Zm-.1.72v-2.66h.93v3.5h-.88l-.06-.84Z"/>
        <path d="m120.93,266.29v.53h-.51c-.12,0-.23.02-.32.04s-.17.07-.22.12-.1.11-.13.18-.04.14-.04.22.02.15.06.22.09.12.16.15.15.06.24.06c.14,0,.26-.03.36-.08s.18-.13.24-.21.09-.16.09-.23l.25.39c-.03.09-.08.18-.14.28s-.13.18-.23.26-.2.15-.33.2-.28.08-.45.08c-.22,0-.42-.04-.6-.13s-.32-.22-.42-.37-.15-.34-.15-.54c0-.18.03-.35.1-.49s.17-.26.3-.36c.13-.09.3-.17.51-.22s.44-.08.71-.08h.54-.02Zm-.12,1.33v-1.55c0-.11-.02-.21-.06-.29s-.09-.14-.17-.19-.18-.07-.3-.07c-.1,0-.19.02-.27.06s-.13.09-.18.15-.06.14-.06.23h-.93c0-.15.03-.29.1-.42s.17-.25.3-.35.29-.18.47-.24.39-.09.61-.09c.27,0,.51.04.72.14.21.09.37.23.5.41s.18.41.18.68v1.49c0,.19.01.35.03.47s.06.23.1.32v.06h-.94c-.04-.09-.08-.22-.1-.36s-.03-.29-.03-.43h.01Zm-.12-3.31h-.7l-.05-.44c.11,0,.19-.02.26-.03s.12-.04.14-.07.04-.07.04-.12-.01-.08-.03-.11-.06-.05-.1-.07-.09-.03-.15-.03-.12-.01-.18-.01l.02-.42c.2,0,.37.02.53.04s.28.07.39.13.18.12.23.2.08.17.08.26c0,.15-.05.26-.15.33s-.22.12-.34.13v.21h.01Z"/>
        <path d="m123.37,265.67v2.75h-.93v-3.5h.87l.06.74Zm-.14.88h-.25c0-.26.03-.49.1-.7s.16-.39.28-.53.26-.26.43-.34.35-.12.56-.12c.17,0,.31.02.45.07s.25.12.35.23.17.24.23.41.08.38.08.62v2.23h-.94v-2.23c0-.15-.02-.28-.07-.36s-.1-.15-.19-.18-.18-.06-.3-.06-.23.02-.33.07-.17.12-.23.2-.1.19-.13.3-.04.24-.04.37v.02Z"/>
        <path d="m126.04,266.71v-.07c0-.26.03-.51.1-.73s.16-.41.28-.56.27-.28.45-.36.37-.13.59-.13c.23,0,.43.04.58.13.15.08.29.21.39.37s.18.34.24.56.1.45.13.7v.15c-.03.24-.08.47-.14.68s-.15.39-.25.55-.24.28-.39.36-.34.13-.56.13-.41-.04-.58-.13-.32-.21-.45-.37-.22-.35-.28-.56-.1-.45-.1-.71Zm2.35-1.79h.84v3.38c0,.32-.07.59-.21.81s-.34.39-.59.51-.55.17-.88.17c-.15,0-.3-.02-.46-.06s-.32-.1-.46-.18-.27-.19-.37-.31l.41-.55c.11.13.23.22.37.29s.3.1.47.1.31-.03.42-.09c.12-.06.2-.15.27-.27s.09-.26.09-.42v-2.58l.09-.8h0Zm-1.42,1.73v.07c0,.14.02.28.04.4s.07.24.13.33.13.17.22.22.19.08.32.08c.17,0,.31-.04.42-.11s.19-.17.24-.3.08-.28.09-.44v-.42c0-.14-.02-.26-.06-.37s-.08-.2-.14-.28-.13-.14-.23-.18-.2-.07-.33-.07-.23.03-.32.08-.17.13-.22.23-.1.2-.13.34-.04.26-.04.41v.02Z"/>
        <path d="m133.04,267.76c.12,0,.22-.02.3-.07s.16-.1.21-.19.08-.18.08-.29h.88c0,.25-.07.46-.2.66s-.3.34-.52.45-.46.17-.73.17-.51-.04-.71-.14-.37-.22-.5-.37-.23-.35-.3-.56-.1-.45-.1-.69v-.09c0-.25.03-.48.1-.69s.17-.4.3-.56.3-.29.5-.37.44-.14.71-.14c.29,0,.54.06.76.17s.39.26.51.47.19.45.19.72h-.88c0-.12-.03-.22-.07-.31s-.12-.17-.2-.23-.19-.09-.32-.09c-.14,0-.25.03-.33.09s-.15.13-.2.23-.08.21-.1.33-.03.25-.03.39v.09c0,.14.01.26.03.39s.05.24.1.33.12.17.2.23.2.08.34.08h-.02Z"/>
        <path d="m137.05,266.29v.53h-.51c-.12,0-.23.02-.32.04s-.17.07-.22.12-.1.11-.13.18-.04.14-.04.22.02.15.06.22.09.12.16.15.15.06.24.06c.14,0,.26-.03.36-.08s.18-.13.24-.21.09-.16.09-.23l.25.39c-.03.09-.08.18-.14.28s-.13.18-.23.26-.2.15-.33.2-.28.08-.45.08c-.22,0-.42-.04-.6-.13s-.32-.22-.42-.37-.15-.34-.15-.54c0-.18.03-.35.1-.49s.17-.26.3-.36.3-.17.51-.22.44-.08.71-.08h.54-.02Zm-.12,1.33v-1.55c0-.11-.02-.21-.06-.29s-.09-.14-.17-.19-.18-.07-.3-.07c-.1,0-.19.02-.27.06s-.13.09-.18.15-.06.14-.06.23h-.93c0-.15.03-.29.1-.42s.17-.25.3-.35.29-.18.47-.24.39-.09.61-.09c.27,0,.51.04.72.14.21.09.37.23.5.41s.18.41.18.68v1.49c0,.19.01.35.03.47s.06.23.1.32v.06h-.94c-.04-.09-.08-.22-.1-.36s-.03-.29-.03-.43h.01Zm-.92-3.19l.63-.99h1.01l-.89.99s-.76,0-.76,0Z"/>
        <path d="m138.44,266.7v-.07c0-.25.04-.49.11-.71s.18-.4.32-.56.31-.28.52-.37.44-.13.71-.13.5.04.71.13c.2.09.38.22.52.37s.25.35.32.56.11.45.11.71v.07c0,.25-.04.49-.11.71s-.18.4-.32.57-.31.29-.52.37-.44.13-.71.13-.5-.04-.71-.13-.38-.22-.52-.37-.25-.35-.32-.57-.11-.45-.11-.71h0Zm.93-.07v.07c0,.15.01.28.04.41s.07.24.13.34.13.17.23.23.2.08.34.08.24-.03.33-.08.17-.13.22-.23.1-.21.13-.34.04-.26.04-.41v-.07c0-.14-.01-.28-.04-.4s-.07-.24-.13-.34-.13-.18-.23-.23-.2-.08-.34-.08-.24.03-.34.08-.17.13-.22.23-.1.21-.13.34-.04.26-.04.4Z"/>
      </g>
    </g>
  </g>
</svg>