<svg xmlns="http://www.w3.org/2000/svg" xmlns:xlink="http://www.w3.org/1999/xlink" viewBox="0 0 1200 675"><defs><style>.cls-1,.cls-11,.cls-18,.cls-21,.cls-5{fill:none;}.cls-2{fill:#f6f6f6;}.cls-3{fill:#4285f4;}.cls-4{fill:#fbbc04;stroke:#fbbc04;}.cls-11,.cls-14,.cls-21,.cls-4,.cls-7,.cls-9{stroke-miterlimit:10;}.cls-4,.cls-5,.cls-7,.cls-9{stroke-width:1.15px;}.cls-16,.cls-17,.cls-18,.cls-5,.cls-7{stroke:#3c4043;}.cls-14,.cls-16,.cls-17,.cls-18,.cls-19,.cls-21,.cls-5{stroke-linecap:round;}.cls-16,.cls-17,.cls-18,.cls-19,.cls-5{stroke-linejoin:round;}.cls-6,.cls-7{fill:#fff;}.cls-17,.cls-8{fill:#3c4043;}.cls-9{fill:#34a853;stroke:#34a853;}.cls-10{fill:url(#linear-gradient);}.cls-11{stroke:#f9bc09;stroke-width:3.63px;}.cls-12{clip-path:url(#clip-path);}.cls-13{fill:#f9bc09;}.cls-14{fill:#f4f4f4;}.cls-14,.cls-21{stroke:#bdc1c6;}.cls-15{clip-path:url(#clip-path-2);}.cls-16{fill:#db8661;}.cls-19{fill:#e6e8eb;stroke:#e6e8eb;}.cls-20{fill:#e84436;}.cls-22{fill:#636669;}</style><linearGradient id="linear-gradient" x1="600.06" y1="542.16" x2="600.06" y2="650.93" gradientUnits="userSpaceOnUse"><stop offset="0" stop-color="#fff"/><stop offset="0.02" stop-color="#f5f5f5"/><stop offset="0.16" stop-color="#c2c2c2"/><stop offset="0.3" stop-color="#969696"/><stop offset="0.44" stop-color="#727272"/><stop offset="0.58" stop-color="#575757"/><stop offset="0.72" stop-color="#434343"/><stop offset="0.86" stop-color="#373737"/><stop offset="1" stop-color="#333"/></linearGradient><clipPath id="clip-path"><circle class="cls-1" cx="68.97" cy="610.99" r="20.2"/></clipPath><clipPath id="clip-path-2"><rect class="cls-1" x="1030.1" y="575.02" width="114.22" height="68.34"/></clipPath></defs><g id="Layer_1" data-name="Layer 1"><rect class="cls-2" x="0.12" y="1.19" width="1199.88" height="673.81"/></g><g id="Layer_2" data-name="Layer 2"><path class="cls-3" d="M469.72,199.66c21.24-8.18,40.94,4.79,58,15.68,9.4,6,18.79,9,30,8.19,11.59-.88,23-4.46,34.65-3.65,21.9,1.53,39.91,15.86,61,21.23a1.5,1.5,0,0,1-.4,3H444.39c2.71-8.44,5.89-16.74,9.36-24.89,2.34-5.48,5.26-12.54,10.16-16.3A22.2,22.2,0,0,1,469.72,199.66Z"/><path class="cls-4" d="M659,117.1a71.49,71.49,0,0,0,75.22,99.05c15.17-2,27.23-6.8,37.68-16.45C748.11,157.27,706.49,126.2,659,117.1Z"/><path class="cls-5" d="M618.22,112.27V438"/><path class="cls-5" d="M795.7,317.68h-355"/><path class="cls-5" d="M438.65,500.72H363.44"/><path class="cls-5" d="M871.72,500.72H796.47"/><path class="cls-5" d="M797.78,290.78c0-99-80.4-179.31-179.56-179.31s-179.56,80.3-179.56,179.31V500.72H797.78Z"/><path class="cls-6" d="M675.75,464.21a9.28,9.28,0,0,1,3.51-16.56,21.72,21.72,0,0,0,3.18-1c8.8-3.3,43.42-28.21,57.34-26.79,0,0,10,.28,10.05,6.53,0,5.3-15.2,7.15-17.83,8.71-6.44,3.82-10.42,10.9-16.12,15.55-5.92,4.79-11.62,9.73-19,11.76-3.37.91-18,4-21,1.89C675.86,464.28,675.82,464.24,675.75,464.21Z"/><path class="cls-5" d="M679.66,465.15s21.34-.91,39.25-18.7"/><path class="cls-5" d="M740.73,430.69c1.39-.94,12.43-3.3,9.5-7.95-2-3.23-10.3-3.16-13.34-3.09-7.71.22-18.49,3.81-24.37,8.93"/><path class="cls-7" d="M509.49,452.66S494.5,467,504,475.93c5.45,5.12,32.75,9.12,36.44,15.76,4.31,7.74-8.66,9-8.66,9s-37.32,1.13-41.74-7S482.26,452,509.49,452.66Z"/><path class="cls-8" d="M492.67,471.48l8.27-3.75s4.89-15,8-16C508.94,451.72,492.67,457.28,492.67,471.48Z"/><path class="cls-9" d="M744.68,500.72a34.94,34.94,0,1,0-34.94-34.94A34.94,34.94,0,0,0,744.68,500.72Z"/><path class="cls-5" d="M755.83,432.65a34.95,34.95,0,1,0,20.49,48"/><path class="cls-6" d="M767.16,490.05c-3-6.36-12.61-8.74-43.46-6.69s-37.79-13.05-44.37-18.72a13.52,13.52,0,0,1-1.54-1.6l-2.55-6.47a9.71,9.71,0,0,0,.22,2,8.54,8.54,0,0,1-.26-2.15l0,.11a7.61,7.61,0,0,1,1.9-5.12.48.48,0,0,1,.14-.15c.15-.14.33-.25.51-.4a4.65,4.65,0,0,1,1.1-.58c.11,0,.15-.11.22-.22a3.49,3.49,0,0,1,.84-.29c4-.55,27.23-5.19,31.69-8.89s3.84-10,3.84-10-6.07-5.3-9.25-8.56-2.08-8.8-5.67-16.74-16-10.08-19.4-14.43c-3.07-3.91-.51-17.51-.51-17.55-.15.63-6.88,2.31-7.72,3a26.12,26.12,0,0,0-4.6,5.3c-2.56,3.76-4.39,8-7.06,11.69-7.23,10.05-20.43,17-32.85,15.43-8.67-1.1-17-4.43-24.82-8.15-18.86-9-36.11-21.49-52.45-34.43-54.82-44.92-97.47-22-111.18-5.23-14.29,17.47-20,18.35-39.25,9.32-29.5-13.85-35.57-31.76-46.93-50.84-8.19-24.71-11-43.86-7.31-69.44,1.35-4.72.47-13.78-3.66-16.45-4.38-2.81-9,7-11.58,11.51,0,12.25-3,19-3,29.06,0,26,8,45.47,18.2,69.08,11,18,27,30.48,45.68,40.2,6.4,2.3,12.83,5.7,17.66,10.49,5.3,5.23,7,13,9,20.18,15.39,35.12,35.49,57.05,63.23,84.1,4.09,3.39,47.29.8,47.29.8s7.42,1.57,3.55-4.09-36.41-12.61-40.21-16.45c-3.21-3.25-2.23-11.22,0-14.62,9.58-14.55,30.27-16,45.8-14.18,23.87,2.81,40.09,22.44,61.11,31.91,18.38,8.26,38.78,10.19,57.75,16.52,10.89,3.61,87.35,2.77,91.19,2.3S770.12,496.41,767.16,490.05ZM676,460.29a2.73,2.73,0,0,1-.14-.36A1,1,0,0,1,676,460.29Z"/><path class="cls-8" d="M696.8,424.81A2.86,2.86,0,1,0,694,422,2.85,2.85,0,0,0,696.8,424.81Z"/><path class="cls-5" d="M522.06,414.51c1.17,9.82,1.6,25.8-6.07,33.39-5.26,5.22-13.16,6.61-18.79,11.39S489.38,471.12,493,478c3.77,7,32.72,9.67,40.72,16.42a3.61,3.61,0,0,1-2.41,6.32H491.1c-8.41,0-14.55-8.51-20-13.84-11-10.94-21.2-22.4-31.21-34.23,0,0-15.43-15.4-24.05-51.64-3.15-13.18-22.52-16.21-32.61-22.05-45.39-26.46-59.83-83.43-50.58-132.37.65-3.51,2.7-10.26,6.21-11.9,11.62-5.44,7.57,19.23,6.91,24.09-6.25,44.85,16.26,98.54,61.22,114.71,12.46,4.49,16.59,7.44,24.75-2.48,9.68-11.83,21.49-22.74,36.25-27.63,24.53-8.14,52.2-3,76.8,18.5s44.7,34.06,57.49,40.16"/><path class="cls-8" d="M688.58,447.94s-5.3,12.5-3.88,16.16l-7.05.76s-3.69-9.61,0-13.89S688.58,447.94,688.58,447.94Z"/><path class="cls-5" d="M510.29,451.71s29.5-7.72,49.93,5.44,39.94,32.68,97.11,41.74c0,0,60.12,1.83,91.19,1.83,0,0,22.94-2.64,18.64-10.67-3.29-6.14-16.56-7.72-25.77-7.39-8.95.33-20.32-.33-37.79-1.93s-29.06-20.65-27.67-27.23,5.88-4.75,16.78-6.58c9.9-1.65,21-3.18,22.58-12.83a4.79,4.79,0,0,0-1.9-4.61c-2.48-1.9-6.47-5.15-7.2-7-3.32-8.85-1.57-17-10.27-22.12-4.68-2.74-13.92-4.71-15.42-10.92-1.1-4.5,1.24-8.74,1-13.2-.26-4.24-4.5-3-7-1.09a30.54,30.54,0,0,0-6.18,7c-5.77,8.37-15.06,28.76-35.71,26.75S602.32,402,602.32,402"/><rect class="cls-10" x="0.12" y="532.28" width="1199.88" height="142.72"/><circle class="cls-11" cx="69.27" cy="611.19" r="20.6"/><g class="cls-12"><g id="dCTiGC.tif"><path class="cls-13" d="M66.47,620.09c-.2-.1-.4-.1-.5-.2-.7-.5-1.4-.9-2.1-1.4a12,12,0,0,1-2.3-2.2,10.4,10.4,0,0,1-1.9-5.6v-.2l-.1-.1c0,.1-.1.1-.1.2v2.2a9,9,0,0,0,.3,1.6,5.78,5.78,0,0,0,.5,1.4c.3.6.6,1.1.9,1.6a10.31,10.31,0,0,0,2.8,2.7,8.34,8.34,0,0,0,1.2.8c.5.3,1.1.6,1.6.9a25.57,25.57,0,0,0,2.4,1.1l1.5.6a.52.52,0,0,0,.4.2c.1.1.3,0,.4.1.9.4,1.9.8,2.8,1.2s1.5.7,2.3,1c.6.3,1.1.5,1.7.8.4.2.9.5,1.3.7a14,14,0,0,1,1.6,1,14.31,14.31,0,0,1,1.5,1.1c.2.1.3.3.5.4H55.67c-.2,0-.3,0-.3-.3l-.3-1.8-.3-1.8a2.77,2.77,0,0,1-.1-.9c-.1-.3-.1-.6-.2-.9v-.1a19.81,19.81,0,0,1-.3-4.2,12.75,12.75,0,0,1,.1-2l.3-2.1a11.63,11.63,0,0,1,.4-1.8,5.64,5.64,0,0,1,.4-1.2,5,5,0,0,1,.5-1.3,13,13,0,0,1,.8-1.7,9.14,9.14,0,0,1,.7-1.4,17,17,0,0,1,3.5-4.5c.7-.6,1.3-1.2,2-1.7a9.91,9.91,0,0,1,1.7-1.1c.6-.3,1.2-.6,1.9-.9.5-.2,1.1-.4,1.7-.6v.9a26.35,26.35,0,0,0-.2,2.8c0,.2-.1.3-.1.5s.1.2.2.3c.7.2,1.4.3,2.1.5a2.92,2.92,0,0,1,1.6,1.1,3.39,3.39,0,0,1,.6,1.5,5.12,5.12,0,0,0,1.7,2.9,10.91,10.91,0,0,0,1.1.6l.6.3c.1,0,.1.2.1.2a7.72,7.72,0,0,1-.2,1.5,4.46,4.46,0,0,1-1.4,2.6,5.56,5.56,0,0,1-1.7.9,19.67,19.67,0,0,1-2.4.3,8.47,8.47,0,0,0-1.7.4,3.55,3.55,0,0,0-.9.4,1.33,1.33,0,0,0-.8,1.1,2.46,2.46,0,0,0,.1,1.2C66.37,619.89,66.37,620,66.47,620.09Z"/></g></g><path class="cls-6" d="M68.47,611a.9.9,0,1,0-.9-.9A.9.9,0,0,0,68.47,611Z"/><path class="cls-6" d="M112,630.6a6.35,6.35,0,0,1-2.42-2.43,7.09,7.09,0,0,1,0-6.84A6.21,6.21,0,0,1,112,618.9a6.7,6.7,0,0,1,3.41-.89,6.12,6.12,0,0,1,4.77,2.11l-1.39,1.35a4.58,4.58,0,0,0-1.48-1.19,4.33,4.33,0,0,0-1.88-.39,4.86,4.86,0,0,0-2.4.6,4.39,4.39,0,0,0-1.71,1.71,5.08,5.08,0,0,0-.63,2.55,5,5,0,0,0,.63,2.54A4.39,4.39,0,0,0,113,629a4.76,4.76,0,0,0,2.4.61,4.62,4.62,0,0,0,3.69-1.82l1.42,1.37a6.63,6.63,0,0,1-2.25,1.71,6.88,6.88,0,0,1-2.88.61A6.79,6.79,0,0,1,112,630.6Z"/><path class="cls-6" d="M123.15,631.09a2.91,2.91,0,0,1-1.21-1.09,3,3,0,0,1-.43-1.6,2.78,2.78,0,0,1,.5-1.65,3.25,3.25,0,0,1,1.37-1.06,5,5,0,0,1,1.93-.37,6,6,0,0,1,1.46.16,4.52,4.52,0,0,1,1.06.35v-.49a1.79,1.79,0,0,0-.65-1.43,2.48,2.48,0,0,0-1.68-.55,3,3,0,0,0-1.33.32,2.71,2.71,0,0,0-1,.85l-1.33-1a4,4,0,0,1,1.58-1.31,4.94,4.94,0,0,1,2.15-.47,4.46,4.46,0,0,1,3.07,1,3.54,3.54,0,0,1,1.09,2.75v5.74h-1.89v-1.13h-.11a3.14,3.14,0,0,1-1.14,1,3.41,3.41,0,0,1-1.67.41A3.83,3.83,0,0,1,123.15,631.09Zm3.42-1.55a2.51,2.51,0,0,0,.92-.94,2.61,2.61,0,0,0,.34-1.28,4,4,0,0,0-1-.4,5.06,5.06,0,0,0-1.17-.14,2.55,2.55,0,0,0-1.67.45,1.5,1.5,0,0,0-.53,1.19,1.32,1.32,0,0,0,.49,1.06,1.89,1.89,0,0,0,1.29.41A2.51,2.51,0,0,0,126.57,629.54Z"/><path class="cls-6" d="M134.3,631.29a2.34,2.34,0,0,1-.88-.54,2.88,2.88,0,0,1-.77-2.13V623.7h-1.6V622h1.6v-2.59h1.94V622h2.25v1.69h-2.25v4.52a1.62,1.62,0,0,0,.29,1.09,1.21,1.21,0,0,0,.94.35,1.89,1.89,0,0,0,.56-.08,2.51,2.51,0,0,0,.52-.26v1.89a3.62,3.62,0,0,1-1.46.27A3.49,3.49,0,0,1,134.3,631.29Z"/><path class="cls-6" d="M139.68,630.79a3.6,3.6,0,0,1-1.43-1.78l1.74-.75a2.57,2.57,0,0,0,.92,1.12,2.42,2.42,0,0,0,1.35.39,2.69,2.69,0,0,0,1.3-.28.9.9,0,0,0,.52-.84.94.94,0,0,0-.44-.8,4.17,4.17,0,0,0-1.38-.51l-1.1-.25a3.9,3.9,0,0,1-1.81-1,2.27,2.27,0,0,1-.72-1.73,2.21,2.21,0,0,1,.47-1.4,3.08,3.08,0,0,1,1.28-.94,4.38,4.38,0,0,1,1.76-.34,4.73,4.73,0,0,1,2.25.51,2.94,2.94,0,0,1,1.4,1.47l-1.67.76a2,2,0,0,0-2-1.1,2.14,2.14,0,0,0-1.14.29.83.83,0,0,0-.46.72q0,.81,1.41,1.17l1.33.32a4.35,4.35,0,0,1,2,1,2.28,2.28,0,0,1,.69,1.69,2.45,2.45,0,0,1-.49,1.52,3.16,3.16,0,0,1-1.36,1,4.92,4.92,0,0,1-1.91.36A4.51,4.51,0,0,1,139.68,630.79Z"/><path class="cls-6" d="M150.24,631.29a2.38,2.38,0,0,1-.87-.54,2.84,2.84,0,0,1-.77-2.13V623.7H147V622h1.6v-2.59h1.94V622h2.25v1.69h-2.25v4.52a1.62,1.62,0,0,0,.29,1.09,1.19,1.19,0,0,0,.94.35,1.77,1.77,0,0,0,.55-.08,2.56,2.56,0,0,0,.53-.26v1.89a3.84,3.84,0,0,1-2.61.08Z"/><path class="cls-6" d="M155.48,630.48a4.1,4.1,0,0,1-.87-2.78V622h1.94v5.42a2.43,2.43,0,0,0,.53,1.69,1.79,1.79,0,0,0,1.4.58,2.24,2.24,0,0,0,1.28-.38,2.47,2.47,0,0,0,.85-1,3.16,3.16,0,0,0,.3-1.37V622h1.93v9.18H161V630h-.11a3,3,0,0,1-1.19,1.1,3.62,3.62,0,0,1-1.71.43A3.17,3.17,0,0,1,155.48,630.48Z"/><path class="cls-6" d="M166.26,623.7h-1.68V622h1.68v-.76a2.9,2.9,0,0,1,.89-2.26,3.14,3.14,0,0,1,2.26-.83,3.9,3.9,0,0,1,1.17.16v1.87l-.36-.11a2.16,2.16,0,0,0-.72-.1,1.27,1.27,0,0,0-.94.38,1.46,1.46,0,0,0-.38,1.06V622h3.91v-.76A2.9,2.9,0,0,1,173,619a3.17,3.17,0,0,1,2.28-.83,4.6,4.6,0,0,1,1.42.21v1.89l-.64-.21a2.3,2.3,0,0,0-.62-.07,1.37,1.37,0,0,0-1,.37,1.4,1.4,0,0,0-.4,1.07V622h2.3v1.69H174v7.49h-1.94V623.7h-3.91v7.49h-1.92Z"/><path class="cls-6" d="M177.18,630.79a1.35,1.35,0,0,1,0-1.9,1.39,1.39,0,0,1,1.94,0,1.39,1.39,0,0,1,0,1.91,1.28,1.28,0,0,1-1,.4A1.31,1.31,0,0,1,177.18,630.79Z"/><path class="cls-6" d="M183.45,630.85a4.42,4.42,0,0,1-1.69-1.74,5.55,5.55,0,0,1,0-5,4.42,4.42,0,0,1,1.69-1.74,4.74,4.74,0,0,1,2.44-.63,4.66,4.66,0,0,1,2.57.68,3.82,3.82,0,0,1,1.52,1.86l-1.76.72a2.38,2.38,0,0,0-2.36-1.48,2.64,2.64,0,0,0-1.4.39,2.8,2.8,0,0,0-1,1.09,3.83,3.83,0,0,0,0,3.24,2.8,2.8,0,0,0,1,1.09,2.64,2.64,0,0,0,1.4.39,2.72,2.72,0,0,0,1.48-.39,2.51,2.51,0,0,0,1-1.13l1.74.76a4.24,4.24,0,0,1-1.6,1.85,4.6,4.6,0,0,1-2.56.69A4.74,4.74,0,0,1,183.45,630.85Z"/><path class="cls-6" d="M193.45,630.84a4.52,4.52,0,0,1-1.71-1.76,5.35,5.35,0,0,1,0-5,4.52,4.52,0,0,1,1.71-1.76,4.93,4.93,0,0,1,2.49-.64,4.76,4.76,0,0,1,2.46.65,4.45,4.45,0,0,1,1.71,1.76,5.25,5.25,0,0,1,0,5,4.43,4.43,0,0,1-1.7,1.76,4.74,4.74,0,0,1-2.47.64A4.84,4.84,0,0,1,193.45,630.84Zm3.91-1.52a2.77,2.77,0,0,0,1-1.08,3.56,3.56,0,0,0,0-3.28,2.77,2.77,0,0,0-2.46-1.46,2.83,2.83,0,0,0-2.49,1.46,3.64,3.64,0,0,0,0,3.28,2.85,2.85,0,0,0,3.91,1.08Z"/><path class="cls-6" d="M202.33,622h1.83v1.26h.11a3.23,3.23,0,0,1,1.17-1.12,3.39,3.39,0,0,1,1.66-.43,3.14,3.14,0,0,1,1.72.47,2.75,2.75,0,0,1,1.05,1.24,3.77,3.77,0,0,1,1.27-1.24,3.55,3.55,0,0,1,1.84-.47,2.94,2.94,0,0,1,2.4,1,3.92,3.92,0,0,1,.81,2.61v5.89h-1.93v-5.56q0-2.13-1.8-2.13a2,2,0,0,0-1.61.8,3.1,3.1,0,0,0-.62,2v4.91H208.3v-5.56c0-1.42-.61-2.13-1.85-2.13a1.89,1.89,0,0,0-1.57.81,3.2,3.2,0,0,0-.61,2v4.9h-1.94Z"/><path class="cls-6" d="M110.63,602.22a4.49,4.49,0,0,1,0-7.8,4.51,4.51,0,0,1,2.26-.59,4.67,4.67,0,0,1,1.81.35,4,4,0,0,1,1.4,1l-.91.91a3,3,0,0,0-2.3-1,3.23,3.23,0,0,0-1.58.4,3,3,0,0,0-1.16,1.15,3.27,3.27,0,0,0-.43,1.69,3.19,3.19,0,0,0,.44,1.7,3,3,0,0,0,1.16,1.14,3.17,3.17,0,0,0,1.58.4,3,3,0,0,0,2.2-.85,2.23,2.23,0,0,0,.47-.67,3.75,3.75,0,0,0,.26-.9h-3V598h4.18a3.92,3.92,0,0,1,.07.7,4.47,4.47,0,0,1-.26,1.55,3.48,3.48,0,0,1-.79,1.3,3.9,3.9,0,0,1-1.38,1,4.73,4.73,0,0,1-1.8.33A4.51,4.51,0,0,1,110.63,602.22Z"/><path class="cls-6" d="M118.55,595.34a.84.84,0,0,1-.25-.62.82.82,0,0,1,.25-.61.86.86,0,0,1,.62-.25.84.84,0,0,1,.62.25.83.83,0,0,1,.26.61.89.89,0,0,1-.88.88A.87.87,0,0,1,118.55,595.34Zm0,1.16h1.3v6.12h-1.3Z"/><path class="cls-6" d="M122.11,602.55a1.88,1.88,0,0,1-.8-.73,2,2,0,0,1-.29-1.06,1.78,1.78,0,0,1,.34-1.1,2,2,0,0,1,.91-.71,3.28,3.28,0,0,1,1.28-.25,4.2,4.2,0,0,1,1,.11,2.73,2.73,0,0,1,.7.23v-.32a1.19,1.19,0,0,0-.43-1,1.69,1.69,0,0,0-1.12-.36,1.93,1.93,0,0,0-.88.21,1.81,1.81,0,0,0-.68.57l-.88-.69a2.57,2.57,0,0,1,1.05-.87,3.23,3.23,0,0,1,1.43-.32,3,3,0,0,1,2,.66,2.33,2.33,0,0,1,.72,1.83v3.83h-1.26v-.76h-.07a2.1,2.1,0,0,1-.76.68,2.25,2.25,0,0,1-1.11.27A2.66,2.66,0,0,1,122.11,602.55Zm2.28-1a1.7,1.7,0,0,0,.84-1.48,2.47,2.47,0,0,0-.66-.27,3.33,3.33,0,0,0-.78-.09,1.71,1.71,0,0,0-1.11.3,1,1,0,0,0-.35.79.91.91,0,0,0,.32.71,1.33,1.33,0,0,0,.87.27A1.71,1.71,0,0,0,124.39,601.52Zm-1.15-6.45a1.24,1.24,0,0,0,.49-.24.43.43,0,0,0,.16-.35.36.36,0,0,0-.13-.28.64.64,0,0,0-.36-.09,1.45,1.45,0,0,0-.63.13l-.24-.72a2.89,2.89,0,0,1,1-.19,1.39,1.39,0,0,1,.94.28,1,1,0,0,1,.33.81,1.19,1.19,0,0,1-.35.9,1.82,1.82,0,0,1-1,.43Z"/><path class="cls-6" d="M127.92,596.5h1.22v.84h.08a2,2,0,0,1,.78-.75,2.18,2.18,0,0,1,1.1-.29,2.09,2.09,0,0,1,1.15.32,1.8,1.8,0,0,1,.7.82,2.44,2.44,0,0,1,.84-.82,2.35,2.35,0,0,1,1.23-.32,2,2,0,0,1,1.6.65,2.61,2.61,0,0,1,.54,1.74v3.93h-1.28v-3.71c0-.95-.4-1.42-1.2-1.42a1.33,1.33,0,0,0-1.08.53,2.1,2.1,0,0,0-.41,1.32v3.28H131.9v-3.71c0-.95-.41-1.42-1.23-1.42a1.27,1.27,0,0,0-1,.54,2.09,2.09,0,0,0-.4,1.32v3.27h-1.3Z"/><path class="cls-6" d="M142.34,604.89a2.52,2.52,0,0,1-1-1.23l1.2-.5a1.72,1.72,0,0,0,1.64,1.09,1.71,1.71,0,0,0,1.33-.53,2.06,2.06,0,0,0,.48-1.46v-.59h-.07a2.06,2.06,0,0,1-.8.69,2.53,2.53,0,0,1-1.15.26,2.7,2.7,0,0,1-1.44-.4,2.86,2.86,0,0,1-1-1.11,3.66,3.66,0,0,1,0-3.29,3,3,0,0,1,1-1.12,2.79,2.79,0,0,1,1.44-.4,2.52,2.52,0,0,1,1.14.26,2.13,2.13,0,0,1,.81.7H146v-.76h1.24v5.79a3.54,3.54,0,0,1-.38,1.69,2.57,2.57,0,0,1-1.08,1.06,3.39,3.39,0,0,1-1.59.36A3.18,3.18,0,0,1,142.34,604.89Zm2.76-3.69a1.67,1.67,0,0,0,.66-.68,2.14,2.14,0,0,0,.24-1,2.27,2.27,0,0,0-.24-1.08,1.67,1.67,0,0,0-.66-.68,1.83,1.83,0,0,0-.9-.23,1.85,1.85,0,0,0-.9.23,1.61,1.61,0,0,0-.66.68,2.16,2.16,0,0,0-.25,1.08,2.1,2.1,0,0,0,.25,1.06,1.61,1.61,0,0,0,.66.68,1.85,1.85,0,0,0,.9.23A1.73,1.73,0,0,0,145.1,601.2Z"/><path class="cls-6" d="M148.88,595.34a.85.85,0,0,1-.26-.62.83.83,0,0,1,.26-.61.84.84,0,0,1,.62-.25.82.82,0,0,1,.61.25.8.8,0,0,1,.26.61.82.82,0,0,1-.26.62.83.83,0,0,1-.61.26A.85.85,0,0,1,148.88,595.34Zm0,1.16h1.29v6.12h-1.29Z"/><path class="cls-6" d="M152.44,602.55a1.85,1.85,0,0,1-.81-.73,2,2,0,0,1-.29-1.06,1.84,1.84,0,0,1,.34-1.1,2.09,2.09,0,0,1,.91-.71,3.33,3.33,0,0,1,1.29-.25,4.11,4.11,0,0,1,1,.11,2.81,2.81,0,0,1,.71.23v-.32a1.2,1.2,0,0,0-.44-1,1.66,1.66,0,0,0-1.11-.36,2,2,0,0,0-.89.21,1.78,1.78,0,0,0-.67.57l-.89-.69a2.57,2.57,0,0,1,1.05-.87,3.26,3.26,0,0,1,1.43-.32,2.94,2.94,0,0,1,2.05.66,2.34,2.34,0,0,1,.73,1.83v3.83h-1.26v-.76h-.08a2,2,0,0,1-.75.68,2.29,2.29,0,0,1-1.12.27A2.58,2.58,0,0,1,152.44,602.55Zm2.28-1a1.67,1.67,0,0,0,.61-.63,1.72,1.72,0,0,0,.23-.85,2.77,2.77,0,0,0-.66-.27,3.33,3.33,0,0,0-.78-.09,1.67,1.67,0,0,0-1.11.3,1,1,0,0,0-.36.79.89.89,0,0,0,.33.71,1.28,1.28,0,0,0,.86.27A1.78,1.78,0,0,0,154.72,601.52Zm-.58-7.78h1.46l-1,1.57h-1.06Z"/><path class="cls-6" d="M161,594h1.3v5h0l2.55-2.56h1.61v.07l-2.37,2.35,2.45,3.62v.08h-1.54l-1.82-2.81-.92.92v1.89H161Z"/><path class="cls-6" d="M167.42,594h1.3v2.36l-.07,1h.07a2,2,0,0,1,.79-.75,2.33,2.33,0,0,1,1.14-.29,2.18,2.18,0,0,1,1.71.67,2.6,2.6,0,0,1,.58,1.78v3.87h-1.28v-3.7a1.42,1.42,0,0,0-.38-1.07,1.33,1.33,0,0,0-1-.36,1.37,1.37,0,0,0-.81.26,1.71,1.71,0,0,0-.58.69,2.06,2.06,0,0,0-.21.91v3.27h-1.3Z"/><path class="cls-6" d="M175,602.14a2.75,2.75,0,0,1-.58-1.85V596.5h1.3v3.61a1.61,1.61,0,0,0,.35,1.13,1.21,1.21,0,0,0,.93.38,1.44,1.44,0,0,0,.85-.25,1.62,1.62,0,0,0,.57-.67,2,2,0,0,0,.2-.92V596.5h1.29v6.12h-1.22v-.83h-.07a2,2,0,0,1-.79.73,2.36,2.36,0,0,1-1.14.29A2.11,2.11,0,0,1,175,602.14Zm1.65-7.07a1.29,1.29,0,0,0,.5-.24.45.45,0,0,0,.15-.35.33.33,0,0,0-.13-.28.64.64,0,0,0-.36-.09,1.44,1.44,0,0,0-.62.13l-.24-.72a2.84,2.84,0,0,1,1-.19,1.39,1.39,0,0,1,.94.28,1,1,0,0,1,.33.81,1.18,1.18,0,0,1-.34.9,1.85,1.85,0,0,1-1,.43Z"/><path class="cls-6" d="M181.38,596.5h1.22v.84h.08a1.91,1.91,0,0,1,.79-.75,2.36,2.36,0,0,1,1.14-.29,2.13,2.13,0,0,1,1.68.66,2.62,2.62,0,0,1,.57,1.79v3.87h-1.28v-3.7a1.43,1.43,0,0,0-.36-1.07,1.33,1.33,0,0,0-1-.36,1.39,1.39,0,0,0-.81.25,1.79,1.79,0,0,0-.56.68,2.12,2.12,0,0,0-.19.91v3.29h-1.3Z"/><path class="cls-6" d="M189.19,604.89a2.42,2.42,0,0,1-1-1.23l1.2-.5a1.62,1.62,0,0,0,.63.79,1.74,1.74,0,0,0,1,.3,1.71,1.71,0,0,0,1.33-.53,2.06,2.06,0,0,0,.48-1.46v-.59h-.07a2.06,2.06,0,0,1-.8.69,2.54,2.54,0,0,1-1.16.26,2.66,2.66,0,0,1-1.43-.4,2.79,2.79,0,0,1-1-1.11,3.66,3.66,0,0,1,0-3.29,2.88,2.88,0,0,1,1-1.12,2.75,2.75,0,0,1,1.43-.4,2.53,2.53,0,0,1,1.15.26,2.13,2.13,0,0,1,.81.7h.07v-.76h1.24v5.79a3.43,3.43,0,0,1-.39,1.69,2.49,2.49,0,0,1-1.07,1.06,3.39,3.39,0,0,1-1.59.36A3.18,3.18,0,0,1,189.19,604.89ZM192,601.2a1.73,1.73,0,0,0,.66-.68,2.14,2.14,0,0,0,.24-1,2.27,2.27,0,0,0-.24-1.08,1.73,1.73,0,0,0-.66-.68,1.88,1.88,0,0,0-1.8,0,1.61,1.61,0,0,0-.66.68,2.16,2.16,0,0,0-.25,1.08,2.1,2.1,0,0,0,.25,1.06,1.61,1.61,0,0,0,.66.68,1.83,1.83,0,0,0,.9.23A1.73,1.73,0,0,0,192,601.2Z"/><path class="cls-6" d="M199.6,602.39a3,3,0,0,1-1.13-1.16,3.71,3.71,0,0,1,0-3.35,3,3,0,0,1,1.13-1.16,3.17,3.17,0,0,1,1.63-.42,3.11,3.11,0,0,1,1.71.45,2.55,2.55,0,0,1,1,1.25l-1.17.48a1.58,1.58,0,0,0-1.58-1,1.78,1.78,0,0,0-1.6,1,2.32,2.32,0,0,0-.24,1.08,2.38,2.38,0,0,0,.24,1.08,1.87,1.87,0,0,0,.67.72,1.9,1.9,0,0,0,1.92,0,1.71,1.71,0,0,0,.65-.75l1.16.51a2.85,2.85,0,0,1-1.07,1.23,3,3,0,0,1-1.7.46A3.17,3.17,0,0,1,199.6,602.39Z"/><path class="cls-6" d="M205.1,594h1.3v2.36l-.07,1h.07a2,2,0,0,1,.79-.75,2.33,2.33,0,0,1,1.14-.29A2.18,2.18,0,0,1,210,597a2.6,2.6,0,0,1,.58,1.78v3.87h-1.28v-3.7a1.42,1.42,0,0,0-.38-1.07,1.33,1.33,0,0,0-1-.36,1.37,1.37,0,0,0-.81.26,1.71,1.71,0,0,0-.58.69,2.06,2.06,0,0,0-.21.91v3.27h-1.3Z"/><path class="cls-6" d="M213.32,602.38a3.05,3.05,0,0,1-1.14-1.17,3.39,3.39,0,0,1-.4-1.65,3.42,3.42,0,0,1,.4-1.66,3.05,3.05,0,0,1,1.14-1.17,3.28,3.28,0,0,1,1.66-.43,3.12,3.12,0,0,1,1.64.44,3,3,0,0,1,1.14,1.17,3.53,3.53,0,0,1,0,3.3,3,3,0,0,1-1.13,1.17,3.12,3.12,0,0,1-1.65.43A3.19,3.19,0,0,1,213.32,602.38Zm2.61-1a1.84,1.84,0,0,0,.69-.72,2.15,2.15,0,0,0,.27-1.09,2.19,2.19,0,0,0-.27-1.1,1.84,1.84,0,0,0-.69-.72,1.93,1.93,0,0,0-1.9,0,1.89,1.89,0,0,0-.71.72,2.29,2.29,0,0,0-.26,1.1,2.25,2.25,0,0,0,.26,1.09,1.89,1.89,0,0,0,.71.72,1.93,1.93,0,0,0,1.9,0Z"/><path class="cls-6" d="M228.77,595.69H228v6.93h-1.21v-.82h-.07a2.16,2.16,0,0,1-.78.71,2.31,2.31,0,0,1-1.19.3,2.83,2.83,0,0,1-2.55-1.57,3.59,3.59,0,0,1-.39-1.68,3.53,3.53,0,0,1,.39-1.68,2.88,2.88,0,0,1,1.05-1.16,2.78,2.78,0,0,1,1.5-.42,2.31,2.31,0,0,1,1.19.3,2.18,2.18,0,0,1,.78.72h.07l-.07-.81v-.82H225v-1h1.75V594H228v.72h.75Zm-2.9,5.67a1.89,1.89,0,0,0,.68-.72,2.16,2.16,0,0,0,.26-1.08,2.11,2.11,0,0,0-.26-1.08,1.85,1.85,0,0,0-.68-.73,1.74,1.74,0,0,0-.91-.26,1.71,1.71,0,0,0-.9.26,1.87,1.87,0,0,0-.69.73,2.21,2.21,0,0,0-.25,1.08,2.26,2.26,0,0,0,.25,1.08,1.91,1.91,0,0,0,.69.72,1.71,1.71,0,0,0,.9.26A1.74,1.74,0,0,0,225.87,601.36Z"/><path class="cls-6" d="M230.69,602.38a2.92,2.92,0,0,1-1.14-1.17,3.39,3.39,0,0,1-.41-1.65,3.43,3.43,0,0,1,.41-1.66,2.92,2.92,0,0,1,1.14-1.17,3.27,3.27,0,0,1,1.65-.43,3.18,3.18,0,0,1,1.65.44,3,3,0,0,1,1.14,1.17,3.53,3.53,0,0,1,0,3.3,2.92,2.92,0,0,1-1.14,1.17,3.12,3.12,0,0,1-1.65.43A3.17,3.17,0,0,1,230.69,602.38Zm2.6-1a1.94,1.94,0,0,0,.7-.72,2.25,2.25,0,0,0,.26-1.09,2.29,2.29,0,0,0-.26-1.1,1.9,1.9,0,0,0-2.6-.72,1.86,1.86,0,0,0-.7.72,2.19,2.19,0,0,0-.27,1.1,2.15,2.15,0,0,0,.27,1.09,1.85,1.85,0,0,0,1.65,1A1.82,1.82,0,0,0,233.29,601.37Zm-2.83-6.13,1.3-1.44h1.12l1.31,1.44v.08h-1.25l-.56-.7h-.12l-.56.7h-1.24Zm2.17-2.88h1.47l.52,1.48h-1Z"/><path class="cls-6" d="M240.72,602.39a3,3,0,0,1-1.12-1.16,3.71,3.71,0,0,1,0-3.35,3,3,0,0,1,1.12-1.16,3.17,3.17,0,0,1,1.63-.42,3.11,3.11,0,0,1,1.71.45,2.57,2.57,0,0,1,1,1.25l-1.18.48a1.57,1.57,0,0,0-1.57-1,1.76,1.76,0,0,0-.93.26,1.7,1.7,0,0,0-.67.73,2.21,2.21,0,0,0-.25,1.08,2.26,2.26,0,0,0,.25,1.08,1.73,1.73,0,0,0,.67.72,1.76,1.76,0,0,0,.93.26,1.87,1.87,0,0,0,1-.26,1.7,1.7,0,0,0,.64-.75l1.16.51a2.82,2.82,0,0,1-1.06,1.23,3.06,3.06,0,0,1-1.71.46A3.17,3.17,0,0,1,240.72,602.39Z"/><path class="cls-6" d="M246.23,594h1.29v2.36l-.07,1h.07a2,2,0,0,1,.79-.75,2.37,2.37,0,0,1,1.15-.29,2.16,2.16,0,0,1,1.7.67,2.6,2.6,0,0,1,.59,1.78v3.87h-1.29v-3.7a1.39,1.39,0,0,0-.38-1.07,1.33,1.33,0,0,0-1-.36,1.37,1.37,0,0,0-.81.26,1.71,1.71,0,0,0-.58.69,2.06,2.06,0,0,0-.21.91v3.27h-1.29Z"/><path class="cls-6" d="M254.45,602.38a2.92,2.92,0,0,1-1.14-1.17,3.39,3.39,0,0,1-.41-1.65,3.43,3.43,0,0,1,.41-1.66,2.92,2.92,0,0,1,1.14-1.17,3.27,3.27,0,0,1,1.65-.43,4.6,4.6,0,0,1,1,.11l.3.05a3.42,3.42,0,0,0,.45,0,.83.83,0,0,0,.51-.12.44.44,0,0,0,.14-.36v-.88h1v1.13a1.19,1.19,0,0,1-.21.75.72.72,0,0,1-.6.28.84.84,0,0,1-.27,0v0a3,3,0,0,1,.92,2.25,3.39,3.39,0,0,1-.41,1.65,2.92,2.92,0,0,1-1.14,1.17,3.12,3.12,0,0,1-1.65.43A3.17,3.17,0,0,1,254.45,602.38Zm2.6-1a1.94,1.94,0,0,0,.7-.72,2.25,2.25,0,0,0,.26-1.09,2.29,2.29,0,0,0-.26-1.1,1.9,1.9,0,0,0-2.6-.72,1.86,1.86,0,0,0-.7.72,2.19,2.19,0,0,0-.27,1.1,2.15,2.15,0,0,0,.27,1.09,1.85,1.85,0,0,0,1.65,1A1.82,1.82,0,0,0,257.05,601.37Z"/><path class="cls-6" d="M260.61,595.34a.85.85,0,0,1-.26-.62.83.83,0,0,1,.26-.61.84.84,0,0,1,.62-.25.86.86,0,0,1,.62.25.82.82,0,0,1,.25.61.84.84,0,0,1-.25.62.87.87,0,0,1-.62.26A.85.85,0,0,1,260.61,595.34Zm0,1.16h1.3v6.12h-1.3Z"/><path class="cls-6" d="M267.48,602.39a2.91,2.91,0,0,1-1.12-1.16,3.71,3.71,0,0,1,0-3.35,2.91,2.91,0,0,1,1.12-1.16,3.17,3.17,0,0,1,1.63-.42,3.11,3.11,0,0,1,1.71.45,2.49,2.49,0,0,1,1,1.25l-1.17.48a1.57,1.57,0,0,0-1.57-1,1.76,1.76,0,0,0-.93.26,1.78,1.78,0,0,0-.68.73,2.32,2.32,0,0,0-.24,1.08,2.38,2.38,0,0,0,.24,1.08,1.82,1.82,0,0,0,.68.72,1.76,1.76,0,0,0,.93.26,1.87,1.87,0,0,0,1-.26,1.7,1.7,0,0,0,.64-.75l1.16.51a2.78,2.78,0,0,1-1.07,1.23,3,3,0,0,1-1.7.46A3.17,3.17,0,0,1,267.48,602.39Z"/><path class="cls-6" d="M273.52,602.14a2.7,2.7,0,0,1-.58-1.85V596.5h1.29v3.61a1.66,1.66,0,0,0,.35,1.13,1.23,1.23,0,0,0,.94.38,1.47,1.47,0,0,0,.85-.25,1.62,1.62,0,0,0,.57-.67,2.17,2.17,0,0,0,.2-.92V596.5h1.28v6.12h-1.21v-.83h-.07a2.07,2.07,0,0,1-.79.73,2.41,2.41,0,0,1-1.14.29A2.11,2.11,0,0,1,273.52,602.14Zm1.65-7.07a1.17,1.17,0,0,0,.49-.24.43.43,0,0,0,.16-.35.36.36,0,0,0-.13-.28.64.64,0,0,0-.36-.09,1.48,1.48,0,0,0-.63.13l-.24-.72a2.89,2.89,0,0,1,1-.19,1.39,1.39,0,0,1,.94.28,1,1,0,0,1,.33.81,1.19,1.19,0,0,1-.35.9,1.82,1.82,0,0,1-1,.43Z"/><path class="cls-6" d="M280.63,602.55a1.88,1.88,0,0,1-.8-.73,2,2,0,0,1-.29-1.06,1.78,1.78,0,0,1,.34-1.1,2,2,0,0,1,.91-.71,3.28,3.28,0,0,1,1.28-.25,4.2,4.2,0,0,1,1,.11,2.73,2.73,0,0,1,.7.23v-.32a1.19,1.19,0,0,0-.43-1,1.69,1.69,0,0,0-1.12-.36,1.93,1.93,0,0,0-.88.21,1.81,1.81,0,0,0-.68.57l-.88-.69a2.57,2.57,0,0,1,1.05-.87,3.23,3.23,0,0,1,1.43-.32,3,3,0,0,1,2.05.66,2.33,2.33,0,0,1,.72,1.83v3.83h-1.26v-.76h-.07a2.1,2.1,0,0,1-.76.68,2.25,2.25,0,0,1-1.11.27A2.66,2.66,0,0,1,280.63,602.55Zm2.28-1a1.7,1.7,0,0,0,.84-1.48,2.47,2.47,0,0,0-.66-.27,3.33,3.33,0,0,0-.78-.09,1.71,1.71,0,0,0-1.11.3,1,1,0,0,0-.35.79.91.91,0,0,0,.32.71,1.33,1.33,0,0,0,.87.27A1.74,1.74,0,0,0,282.91,601.52Z"/><path class="cls-6" d="M289.23,596.5h1.23v.84h.07a2.08,2.08,0,0,1,.78-.75,2.21,2.21,0,0,1,1.11-.29,2.06,2.06,0,0,1,1.14.32,1.74,1.74,0,0,1,.7.82,2.47,2.47,0,0,1,.85-.82,2.35,2.35,0,0,1,1.23-.32,2,2,0,0,1,1.6.65,2.66,2.66,0,0,1,.54,1.74v3.93h-1.29v-3.71c0-.95-.4-1.42-1.2-1.42a1.29,1.29,0,0,0-1.07.53,2,2,0,0,0-.42,1.32v3.28h-1.28v-3.71c0-.95-.41-1.42-1.24-1.42a1.25,1.25,0,0,0-1,.54,2.1,2.1,0,0,0-.41,1.32v3.27h-1.3Z"/><path class="cls-6" d="M301.15,602.39a3,3,0,0,1-1.12-1.16,3.4,3.4,0,0,1-.4-1.66,3.47,3.47,0,0,1,.39-1.63,3,3,0,0,1,1.08-1.19,2.85,2.85,0,0,1,1.57-.45,3,3,0,0,1,1.6.41,2.57,2.57,0,0,1,1,1.11,3.58,3.58,0,0,1,.35,1.6c0,.16,0,.3,0,.41H300.9a1.91,1.91,0,0,0,.62,1.35,1.95,1.95,0,0,0,2.27.21,2,2,0,0,0,.67-.72l1.07.52a3.26,3.26,0,0,1-1.11,1.19,3.19,3.19,0,0,1-1.67.43A3.06,3.06,0,0,1,301.15,602.39Zm3.22-3.53a1.6,1.6,0,0,0-.22-.67,1.5,1.5,0,0,0-.56-.56,1.67,1.67,0,0,0-.9-.22,1.61,1.61,0,0,0-1.1.39,2.06,2.06,0,0,0-.62,1.06Zm-3.22-5.12h1.48l.56,1.57H302.1Z"/><path class="cls-6" d="M308.13,602.38a3.05,3.05,0,0,1-1.14-1.17,3.39,3.39,0,0,1-.4-1.65,3.42,3.42,0,0,1,.4-1.66,3.05,3.05,0,0,1,1.14-1.17,3.28,3.28,0,0,1,1.66-.43,3.12,3.12,0,0,1,1.64.44,3,3,0,0,1,1.14,1.17,3.53,3.53,0,0,1,0,3.3,3,3,0,0,1-1.13,1.17,3.12,3.12,0,0,1-1.65.43A3.19,3.19,0,0,1,308.13,602.38Zm2.61-1a1.84,1.84,0,0,0,.69-.72,2.15,2.15,0,0,0,.27-1.09,2.19,2.19,0,0,0-.27-1.1,1.84,1.84,0,0,0-.69-.72,1.93,1.93,0,0,0-1.9,0,1.89,1.89,0,0,0-.71.72,2.29,2.29,0,0,0-.26,1.1,2.25,2.25,0,0,0,.26,1.09,1.89,1.89,0,0,0,.71.72,1.93,1.93,0,0,0,1.9,0Z"/><path class="cls-6" d="M314.34,602.35a.85.85,0,0,1-.27-.63.87.87,0,0,1,.27-.64.85.85,0,0,1,.65-.26.87.87,0,0,1,.64.25.91.91,0,0,1,.26.65.88.88,0,0,1-.26.63.91.91,0,0,1-1.29,0Zm0-5.63V594h1.29v2.7l-.13,3.16h-1Z"/><path class="cls-6" d="M769,605.29h4.29a3.72,3.72,0,0,1,1.69.4,3.09,3.09,0,0,1,1.24,1.1,2.71,2.71,0,0,1,.46,1.54,2.6,2.6,0,0,1-.42,1.48,2.8,2.8,0,0,1-1.13,1v.08a2.84,2.84,0,0,1,1.42,1,2.64,2.64,0,0,1,.53,1.66,2.88,2.88,0,0,1-.49,1.67,3.23,3.23,0,0,1-1.31,1.14,4,4,0,0,1-1.8.41H769Zm4.21,4.82a1.7,1.7,0,0,0,1.28-.49,1.57,1.57,0,0,0,.48-1.13,1.54,1.54,0,0,0-.47-1.11,1.7,1.7,0,0,0-1.23-.47h-2.51v3.2Zm.27,5a1.8,1.8,0,0,0,1.34-.51,1.66,1.66,0,0,0,.5-1.21,1.62,1.62,0,0,0-.52-1.21,1.9,1.9,0,0,0-1.38-.51h-2.66v3.44Z"/><path class="cls-6" d="M779.71,616.66a2.52,2.52,0,0,1-1.07-1,2.61,2.61,0,0,1-.39-1.42,2.42,2.42,0,0,1,.45-1.47,2.89,2.89,0,0,1,1.22-.94,4.27,4.27,0,0,1,1.71-.33,5.76,5.76,0,0,1,1.3.14,4.12,4.12,0,0,1,.94.31v-.43a1.57,1.57,0,0,0-.58-1.27,2.17,2.17,0,0,0-1.48-.49,2.6,2.6,0,0,0-1.19.28,2.28,2.28,0,0,0-.89.76l-1.19-.91a3.57,3.57,0,0,1,1.4-1.17,4.35,4.35,0,0,1,1.91-.42,3.93,3.93,0,0,1,2.73.87,3.12,3.12,0,0,1,1,2.44v5.11h-1.68v-1h-.1a2.74,2.74,0,0,1-1,.9,3.07,3.07,0,0,1-1.49.36A3.45,3.45,0,0,1,779.71,616.66Zm3-1.38a2.07,2.07,0,0,0,.82-.84,2.25,2.25,0,0,0,.3-1.13A3.3,3.3,0,0,0,783,613a4,4,0,0,0-1-.13,2.26,2.26,0,0,0-1.48.4,1.33,1.33,0,0,0-.47,1,1.19,1.19,0,0,0,.43,1,1.74,1.74,0,0,0,1.15.37A2.23,2.23,0,0,0,782.75,615.28Zm-1.57,4.47a1,1,0,0,1-.3-.73,1,1,0,0,1,.3-.73,1.06,1.06,0,0,1,1.46,0,1.06,1.06,0,0,1,0,1.47,1,1,0,0,1-.73.3A1,1,0,0,1,781.18,619.75Z"/><path class="cls-6" d="M787.45,608.59h1.64v1.12h.09a2.61,2.61,0,0,1,1.06-1,3.07,3.07,0,0,1,1.52-.39,2.83,2.83,0,0,1,2.24.87,3.53,3.53,0,0,1,.77,2.4v5.15h-1.72v-4.93a1.91,1.91,0,0,0-.48-1.43,1.75,1.75,0,0,0-1.31-.47,1.86,1.86,0,0,0-1.08.33,2.24,2.24,0,0,0-.73.9,2.75,2.75,0,0,0-.27,1.21v4.39h-1.73Z"/><path class="cls-6" d="M802.06,616.44a3.81,3.81,0,0,1-1.49-1.54,4.87,4.87,0,0,1,0-4.46,3.9,3.9,0,0,1,1.49-1.55,4.29,4.29,0,0,1,2.18-.56,4.17,4.17,0,0,1,2.28.6,3.41,3.41,0,0,1,1.35,1.66l-1.57.64a2.08,2.08,0,0,0-2.09-1.31,2.31,2.31,0,0,0-1.24.34,2.41,2.41,0,0,0-.9,1,3,3,0,0,0-.33,1.44,3.06,3.06,0,0,0,.33,1.44,2.48,2.48,0,0,0,.9,1,2.31,2.31,0,0,0,1.24.34,2.45,2.45,0,0,0,1.32-.34,2.33,2.33,0,0,0,.85-1l1.55.67a3.86,3.86,0,0,1-1.42,1.65,4.56,4.56,0,0,1-4.45,0Z"/><path class="cls-6" d="M811,616.44a4,4,0,0,1-1.52-1.56,4.72,4.72,0,0,1,0-4.42A4,4,0,0,1,811,608.9a4.28,4.28,0,0,1,2.21-.57,4.17,4.17,0,0,1,2.19.58,4,4,0,0,1,1.52,1.57,4.5,4.5,0,0,1,.54,2.19,4.58,4.58,0,0,1-.54,2.21,4,4,0,0,1-1.51,1.56,4.62,4.62,0,0,1-4.41,0Zm3.47-1.36a2.53,2.53,0,0,0,.93-1,2.94,2.94,0,0,0,.35-1.45,3,3,0,0,0-.35-1.46,2.68,2.68,0,0,0-.93-1,2.5,2.5,0,0,0-1.26-.33,2.57,2.57,0,0,0-1.28.33,2.52,2.52,0,0,0-.93,1,2.87,2.87,0,0,0-.35,1.46,2.83,2.83,0,0,0,.35,1.45,2.39,2.39,0,0,0,.93,1,2.48,2.48,0,0,0,1.28.34A2.41,2.41,0,0,0,814.43,615.08Zm-1.2-10.17h1.95L813.9,607h-1.42Z"/><path class="cls-6" d="M825.06,616.83a1.94,1.94,0,0,1-.77-.48,2.49,2.49,0,0,1-.69-1.89v-4.37h-1.43v-1.5h1.43v-2.31h1.73v2.31h2v1.5h-2v4a1.45,1.45,0,0,0,.25,1,1.07,1.07,0,0,0,.83.31,1.77,1.77,0,0,0,.5-.07,2.28,2.28,0,0,0,.46-.24v1.68a3.16,3.16,0,0,1-1.29.24A2.84,2.84,0,0,1,825.06,616.83Z"/><path class="cls-6" d="M829.08,605.29h1.73v3.14l-.09,1.28h.09a2.65,2.65,0,0,1,1.05-1,3.08,3.08,0,0,1,1.53-.39,2.87,2.87,0,0,1,2.27.89,3.47,3.47,0,0,1,.79,2.38v5.15h-1.72v-4.93a1.85,1.85,0,0,0-.5-1.42,1.81,1.81,0,0,0-1.29-.48,1.84,1.84,0,0,0-1.08.34,2.48,2.48,0,0,0-.77.92,2.83,2.83,0,0,0-.28,1.22v4.35h-1.73Z"/><path class="cls-6" d="M840,616.44a3.85,3.85,0,0,1-1.48-1.54,4.79,4.79,0,0,1,0-4.38,4.15,4.15,0,0,1,1.45-1.6,3.86,3.86,0,0,1,2.09-.59,4,4,0,0,1,2.13.54,3.5,3.5,0,0,1,1.37,1.48,4.65,4.65,0,0,1,.47,2.14,4.22,4.22,0,0,1,0,.55h-6.3a2.61,2.61,0,0,0,.83,1.8,2.47,2.47,0,0,0,1.68.63,2.42,2.42,0,0,0,1.34-.36,2.64,2.64,0,0,0,.9-1l1.42.68a4.28,4.28,0,0,1-1.48,1.59,4.2,4.2,0,0,1-2.23.57A4.1,4.1,0,0,1,840,616.44Zm-.47-9.53,1.73-1.93h1.5l1.75,1.93V607h-1.67l-.75-.93h-.16l-.75.93h-1.65Zm4.77,4.83a2.11,2.11,0,0,0-.29-.9,2.18,2.18,0,0,0-.74-.74,2.29,2.29,0,0,0-1.21-.3,2.15,2.15,0,0,0-1.46.53,2.71,2.71,0,0,0-.83,1.41Zm-.32-6.26a1.3,1.3,0,0,0,.53-.85.44.44,0,0,0-.16-.38.71.71,0,0,0-.43-.13,1.78,1.78,0,0,0-.64.13v-1.07a4.2,4.2,0,0,1,.83-.09,1.79,1.79,0,0,1,1.2.36,1.23,1.23,0,0,1,.41,1,2.08,2.08,0,0,1-1.07,1.77Z"/><path class="cls-6" d="M852.94,616.44a3.9,3.9,0,0,1-1.5-1.54,5,5,0,0,1,0-4.46,4,4,0,0,1,1.5-1.55,4.29,4.29,0,0,1,2.18-.56,4.17,4.17,0,0,1,2.28.6,3.41,3.41,0,0,1,1.35,1.66l-1.57.64a2.08,2.08,0,0,0-2.1-1.31,2.36,2.36,0,0,0-1.24.34,2.46,2.46,0,0,0-.89,1,3,3,0,0,0-.33,1.44,3.06,3.06,0,0,0,.33,1.44,2.53,2.53,0,0,0,.89,1,2.36,2.36,0,0,0,1.24.34,2.4,2.4,0,0,0,1.32-.34,2.28,2.28,0,0,0,.86-1l1.55.67a3.86,3.86,0,0,1-1.42,1.65,4.56,4.56,0,0,1-4.45,0Z"/><path class="cls-6" d="M860.28,605.29H862v3.14l-.09,1.28H862a2.65,2.65,0,0,1,1-1,3.06,3.06,0,0,1,1.53-.39,2.87,2.87,0,0,1,2.27.89,3.46,3.46,0,0,1,.78,2.38v5.15h-1.71v-4.93a1.89,1.89,0,0,0-.5-1.42,1.81,1.81,0,0,0-1.29-.48,1.84,1.84,0,0,0-1.08.34,2.48,2.48,0,0,0-.77.92,2.83,2.83,0,0,0-.28,1.22v4.35h-1.73Z"/><path class="cls-6" d="M870.32,616.12a3.7,3.7,0,0,1-.77-2.48v-5h1.73v4.81a2.17,2.17,0,0,0,.46,1.51,1.61,1.61,0,0,0,1.25.51,1.91,1.91,0,0,0,1.13-.34,2.06,2.06,0,0,0,.76-.89,2.79,2.79,0,0,0,.27-1.22v-4.38h1.71v8.16h-1.62v-1.11h-.09a2.73,2.73,0,0,1-1.06,1,3.06,3.06,0,0,1-1.52.38A2.84,2.84,0,0,1,870.32,616.12Z"/><path class="cls-6" d="M881.42,616.3,878,608.59h1.92l2.34,5.57h.08l2.25-5.57h1.91l-5,11.61h-1.84Z"/><path class="cls-6" d="M888.92,616.44a3.87,3.87,0,0,1-1.49-1.54,4.53,4.53,0,0,1-.54-2.22,4.68,4.68,0,0,1,.52-2.16,4.15,4.15,0,0,1,1.45-1.6,3.87,3.87,0,0,1,2.1-.59,4,4,0,0,1,2.12.54,3.5,3.5,0,0,1,1.37,1.48,4.65,4.65,0,0,1,.47,2.14,4.22,4.22,0,0,1,0,.55h-6.3a2.61,2.61,0,0,0,.83,1.8,2.47,2.47,0,0,0,1.68.63,2.42,2.42,0,0,0,1.34-.36,2.64,2.64,0,0,0,.9-1l1.42.68a4.28,4.28,0,0,1-1.48,1.59,4.18,4.18,0,0,1-2.23.57A4,4,0,0,1,888.92,616.44Zm-.48-9.53,1.73-1.93h1.51l1.74,1.93V607h-1.66l-.76-.93h-.16l-.75.93h-1.65Zm4.77,4.83a2.12,2.12,0,0,0-1-1.64,2.29,2.29,0,0,0-1.21-.3,2.15,2.15,0,0,0-1.46.53,2.71,2.71,0,0,0-.83,1.41Zm-.32-6.26a1.3,1.3,0,0,0,.53-.85.44.44,0,0,0-.16-.38.71.71,0,0,0-.43-.13,1.78,1.78,0,0,0-.64.13v-1.07a4.2,4.2,0,0,1,.83-.09,1.79,1.79,0,0,1,1.2.36,1.24,1.24,0,0,1,.42,1,2.09,2.09,0,0,1-1.08,1.77Z"/><path class="cls-6" d="M896.52,608.59h1.64v1.12h.09a2.61,2.61,0,0,1,1.06-1,3.07,3.07,0,0,1,1.52-.39,2.83,2.83,0,0,1,2.24.87,3.53,3.53,0,0,1,.77,2.4v5.15h-1.72v-4.93a1.91,1.91,0,0,0-.48-1.43,1.75,1.75,0,0,0-1.31-.47,1.86,1.86,0,0,0-1.08.33,2.24,2.24,0,0,0-.73.9,2.75,2.75,0,0,0-.27,1.21v4.39h-1.73Z"/><path class="cls-6" d="M911.86,616.83a2,2,0,0,1-.78-.48,2.49,2.49,0,0,1-.68-1.89v-4.37H909v-1.5h1.43v-2.31h1.72v2.31h2v1.5h-2v4a1.44,1.44,0,0,0,.26,1,1.07,1.07,0,0,0,.83.31,1.83,1.83,0,0,0,.5-.07,2.28,2.28,0,0,0,.46-.24v1.68a3.16,3.16,0,0,1-1.29.24A2.8,2.8,0,0,1,911.86,616.83Z"/><path class="cls-6" d="M917.12,616.44a3.93,3.93,0,0,1-1.52-1.56,4.72,4.72,0,0,1,0-4.42,3.93,3.93,0,0,1,1.52-1.56,4.27,4.27,0,0,1,2.2-.57,5.7,5.7,0,0,1,1.3.15l.4.06a4.07,4.07,0,0,0,.61.05,1.12,1.12,0,0,0,.67-.15.6.6,0,0,0,.19-.49v-1.17h1.31v1.5a1.6,1.6,0,0,1-.28,1,1,1,0,0,1-.8.37,1.49,1.49,0,0,1-.36,0v.07a3.92,3.92,0,0,1,1.22,3,4.58,4.58,0,0,1-.54,2.21,4.07,4.07,0,0,1-1.52,1.56,4.31,4.31,0,0,1-2.2.56A4.36,4.36,0,0,1,917.12,616.44Zm3.47-1.36a2.53,2.53,0,0,0,.93-1,2.94,2.94,0,0,0,.35-1.45,3,3,0,0,0-.35-1.46,2.68,2.68,0,0,0-.93-1,2.53,2.53,0,0,0-1.27-.33,2.56,2.56,0,0,0-1.27.33,2.52,2.52,0,0,0-.93,1,2.87,2.87,0,0,0-.36,1.46,2.84,2.84,0,0,0,.36,1.45,2.39,2.39,0,0,0,.93,1,2.47,2.47,0,0,0,1.27.34A2.44,2.44,0,0,0,920.59,615.08Zm-1.22-10.17h2L920,607h-1.42Z"/><path class="cls-6" d="M925.33,607a1.16,1.16,0,0,1,0-1.64,1.16,1.16,0,0,1,.83-.33,1.14,1.14,0,0,1,.82.33,1.17,1.17,0,0,1-.82,2A1.14,1.14,0,0,1,925.33,607Zm0,1.55H927v8.16h-1.73Z"/><path class="cls-6" d="M932,608.59h1.92l2.28,5.93h.08l2.34-5.93h1.89l-3.41,8.16h-1.73Z"/><path class="cls-6" d="M941.79,607a1.16,1.16,0,0,1,0-1.64,1.16,1.16,0,0,1,.83-.33,1.14,1.14,0,0,1,.82.33,1.17,1.17,0,0,1-.82,2A1.14,1.14,0,0,1,941.79,607Zm0,1.55h1.72v8.16h-1.72Z"/><path class="cls-6" d="M947,616.45a3.82,3.82,0,0,1-1.41-1.54,4.83,4.83,0,0,1-.51-2.24,4.76,4.76,0,0,1,.51-2.23,3.91,3.91,0,0,1,1.41-1.55,3.7,3.7,0,0,1,2-.56,3.16,3.16,0,0,1,1.58.39,3,3,0,0,1,1,1h.1l-.1-1.13v-3.27h1.71v11.46h-1.61v-1.09h-.1a2.92,2.92,0,0,1-1,1A3.16,3.16,0,0,1,949,617,3.69,3.69,0,0,1,947,616.45Zm3.46-1.37a2.58,2.58,0,0,0,.91-1,3,3,0,0,0,.35-1.44,2.9,2.9,0,0,0-.35-1.44,2.51,2.51,0,0,0-.91-1,2.29,2.29,0,0,0-1.21-.34,2.31,2.31,0,0,0-1.21.34,2.58,2.58,0,0,0-.91,1,2.89,2.89,0,0,0-.34,1.44,3,3,0,0,0,.34,1.44,2.66,2.66,0,0,0,.91,1,2.31,2.31,0,0,0,1.21.34A2.29,2.29,0,0,0,950.5,615.08Z"/><path class="cls-6" d="M956.92,616.44a3.87,3.87,0,0,1-1.49-1.54,4.79,4.79,0,0,1,0-4.38,4.15,4.15,0,0,1,1.45-1.6,3.87,3.87,0,0,1,2.1-.59,4,4,0,0,1,2.12.54,3.5,3.5,0,0,1,1.37,1.48,4.65,4.65,0,0,1,.47,2.14,4.22,4.22,0,0,1,0,.55h-6.3a2.61,2.61,0,0,0,.83,1.8,2.47,2.47,0,0,0,1.68.63,2.42,2.42,0,0,0,1.34-.36,2.64,2.64,0,0,0,.9-1l1.42.68a4.28,4.28,0,0,1-1.48,1.59,4.18,4.18,0,0,1-2.23.57A4,4,0,0,1,956.92,616.44Zm4.29-4.7a2.11,2.11,0,0,0-.29-.9,2.18,2.18,0,0,0-.74-.74,2.29,2.29,0,0,0-1.21-.3,2.15,2.15,0,0,0-1.46.53,2.71,2.71,0,0,0-.83,1.41Z"/><path class="cls-6" d="M966.24,616.44a3.93,3.93,0,0,1-1.52-1.56,4.72,4.72,0,0,1,0-4.42,3.93,3.93,0,0,1,1.52-1.56,4.5,4.5,0,0,1,4.4,0,4,4,0,0,1,1.52,1.57,4.5,4.5,0,0,1,.54,2.19,4.58,4.58,0,0,1-.54,2.21,4.07,4.07,0,0,1-1.52,1.56,4.6,4.6,0,0,1-4.4,0Zm3.47-1.36a2.53,2.53,0,0,0,.93-1,2.94,2.94,0,0,0,.35-1.45,3,3,0,0,0-.35-1.46,2.68,2.68,0,0,0-.93-1,2.51,2.51,0,0,0-3.47,1,2.87,2.87,0,0,0-.36,1.46,2.84,2.84,0,0,0,.36,1.45,2.39,2.39,0,0,0,.93,1,2.54,2.54,0,0,0,2.54,0Z"/><path class="cls-6" d="M978.69,616.4a3.28,3.28,0,0,1-1.27-1.59l1.55-.67a2.15,2.15,0,0,0,.82,1,2.13,2.13,0,0,0,1.2.34,2.48,2.48,0,0,0,1.15-.24.81.81,0,0,0,.46-.75.82.82,0,0,0-.39-.71,3.75,3.75,0,0,0-1.22-.46l-1-.22a3.5,3.5,0,0,1-1.62-.85,2,2,0,0,1-.64-1.53,2,2,0,0,1,.43-1.25,2.78,2.78,0,0,1,1.13-.84,4,4,0,0,1,1.57-.3,4.24,4.24,0,0,1,2,.45,2.67,2.67,0,0,1,1.24,1.31l-1.49.67a1.78,1.78,0,0,0-1.74-1,1.87,1.87,0,0,0-1,.25.74.74,0,0,0-.41.64c0,.48.41.83,1.24,1l1.19.29a3.9,3.9,0,0,1,1.81.91,2.05,2.05,0,0,1,.62,1.51,2.21,2.21,0,0,1-.44,1.35,2.8,2.8,0,0,1-1.21.9A4.21,4.21,0,0,1,981,617,4.07,4.07,0,0,1,978.69,616.4Z"/><path class="cls-6" d="M986.91,616.66a2.61,2.61,0,0,1-1.08-1,2.69,2.69,0,0,1-.38-1.42,2.42,2.42,0,0,1,.45-1.47,2.83,2.83,0,0,1,1.22-.94,4.27,4.27,0,0,1,1.71-.33,5.76,5.76,0,0,1,1.3.14,4.3,4.3,0,0,1,.94.31v-.43a1.57,1.57,0,0,0-.58-1.27,2.19,2.19,0,0,0-1.49-.49,2.56,2.56,0,0,0-1.18.28,2.38,2.38,0,0,0-.9.76l-1.18-.91a3.57,3.57,0,0,1,1.4-1.17,4.35,4.35,0,0,1,1.91-.42,4,4,0,0,1,2.73.87,3.16,3.16,0,0,1,1,2.44v5.11h-1.68v-1H991a2.7,2.7,0,0,1-1,.9,3,3,0,0,1-1.49.36A3.44,3.44,0,0,1,986.91,616.66Zm3-1.38a2.14,2.14,0,0,0,.82-.84,2.25,2.25,0,0,0,.3-1.13,3.3,3.3,0,0,0-.88-.35,4,4,0,0,0-1-.13,2.22,2.22,0,0,0-1.48.4,1.3,1.3,0,0,0-.47,1,1.19,1.19,0,0,0,.43,1,1.74,1.74,0,0,0,1.15.37A2.26,2.26,0,0,0,990,615.28Z"/><path class="cls-6" d="M995.36,616.12a3.7,3.7,0,0,1-.77-2.48v-5h1.72v4.81a2.17,2.17,0,0,0,.47,1.51,1.6,1.6,0,0,0,1.25.51,1.93,1.93,0,0,0,1.13-.34,2.12,2.12,0,0,0,.76-.89,2.79,2.79,0,0,0,.27-1.22v-4.38h1.71v8.16h-1.62v-1.11h-.09a2.73,2.73,0,0,1-1.06,1,3.06,3.06,0,0,1-1.52.38A2.84,2.84,0,0,1,995.36,616.12Z"/><path class="cls-6" d="M1009.55,616.68a3.75,3.75,0,0,1-1.36-1,3.79,3.79,0,0,1-.82-1.64l1.55-.6a2.82,2.82,0,0,0,.79,1.42,2,2,0,0,0,1.42.53,2.07,2.07,0,0,0,1.51-.59,2,2,0,0,0,.6-1.49,2.07,2.07,0,0,0-.58-1.51,2,2,0,0,0-1.51-.6,2.09,2.09,0,0,0-1,.23,2,2,0,0,0-.74.63l-1.7-.75.66-5.51h5.92v1.57h-4.5l-.41,3h.09a3.12,3.12,0,0,1,2-.69,3.38,3.38,0,0,1,1.73.47,3.52,3.52,0,0,1,1.28,1.29,3.93,3.93,0,0,1,0,3.8,3.52,3.52,0,0,1-1.36,1.32,4,4,0,0,1-2,.48A4.23,4.23,0,0,1,1009.55,616.68Z"/><rect class="cls-14" x="1030.1" y="575.02" width="114.22" height="68.34"/><g class="cls-15"><path class="cls-16" d="M944,520c-.21-2.52,1-4.91,2.72-4.94s4.06.53,5.32-1.72.9-7.58,1-11.22-1.13-8.28-2.94-10.67c-2.67-3.51-7.14-3.33-10.78-3.19s-12.14,2.23-12.76,10.21c-.68,9,6.81,10.66,6.81,12.34s-2.43,6.88-2.43,6.88Z"/><path class="cls-16" d="M892.12,591.39s-7.25,21.48-10.48,27.17c-2.19,3.85-19.15,7.78-21.31,8.4s-.92,1.94.62,1.94h23.58c3.09,0,4.15-.9,5.26-3.85S902,596.38,902,596.38Z"/><path class="cls-17" d="M891,595.37l9.1,5.49,1-3.29-9.32-4.33Z"/><path class="cls-6" d="M918,521.84c-6.18,8.73-13.52,27.33-29.17,69.85,4.85,3.12,10.59,5.06,15.93,7,1.75-4.45,5.68-16.76,5.68-16.76"/><path class="cls-18" d="M918,521.84c-6.18,8.73-13.52,27.33-29.17,69.85,4.85,3.12,10.59,5.06,15.93,7,1.75-4.45,5.68-16.76,5.68-16.76"/><path class="cls-16" d="M953.06,629.52l156.21-3.65,1.86-10.47c-17.07,0-19.62-3.73-67.59-5.91L951.84,599Z"/><path class="cls-19" d="M953.06,629.52H1093.9V610.14c-8.08,0-50.36-3.3-50.36-3.3l-91.7-7.8Z"/><path class="cls-17" d="M996.19,602.81l-25.64,26.71-17.63.33Z"/><path class="cls-18" d="M953.06,629.52H1093.9V610.14"/><path class="cls-16" d="M979.88,570.87c7.44-3.45,22.12-13.65,29.49-14.29s10.75,1.91,14.43,6.33,43.41,50.61,43.41,50.61-2.6,14-10,5.67-31.92-31-39.48-37.62C1001.4,589,981.39,612,981.39,612Z"/><path class="cls-19" d="M909.58,584.13c.32,17.44,7,28.53,11.71,33s13.29,12.75,31.63,12.75c19.67,0,52.06-34.94,60.44-41.23-.28-1.07,17.62,14.77,24.34,22.73,7.48-5.12,19.37-15.34,21.1-18.16-8.56-10-30.81-29-35.28-33.08-6.36-5.85-15.06-4.52-19.46-2.8-8.8,3.43-43.58,22.31-43.58,22.31"/><path class="cls-18" d="M909.58,584.13c.32,17.44,7,28.53,11.71,33s13.29,12.75,31.63,12.75c19.67,0,52.06-34.94,60.44-41.23,5.71,4.56,14.77,13.14,24.34,22.73a133.48,133.48,0,0,0,21.6-18.18"/><path class="cls-6" d="M953.59,558.84c0-4.83,1.71-12.43,2-17.5s2.27-14.76-5.2-19.5c-7.19-4.56-17.42-6.81-22.48-4s-9.81,5.7-11.71,13-7,35.82-6.64,53.25a30,30,0,0,0,.52,7.26c15.51,0,39.26-7.26,39.26-7.26"/><path class="cls-18" d="M953.59,558.84c0-4.83,1.71-12.43,2-17.5s2.27-14.76-5.2-19.5c-7.19-4.56-17.42-6.81-22.48-4s-9.81,5.7-11.71,13-7,35.82-6.64,53.25a30,30,0,0,0,.52,7.26c15.51,0,39.26-7.26,39.26-7.26"/><path class="cls-6" d="M951.84,560.27a48,48,0,0,0,7.63-8.41c3.48,4.45,13.13,11.58,13.13,11.58-6,6.77-8.42,12-12.14,16.17-6.15,6.95-11.31,9.18-17.35,7.06-7.37-2.58-8.54-10-8.54-21.24,0-6,1.27-20.07,2.85-25.45"/><path class="cls-18" d="M951.84,560.27a48,48,0,0,0,7.63-8.41c3.48,4.45,13.13,11.58,13.13,11.58-6,6.77-8.42,12-12.14,16.17-6.15,6.95-11.31,9.18-17.35,7.06-7.37-2.58-8.54-10-8.54-21.24,0-6,1.27-20.07,2.85-25.45"/><path class="cls-17" d="M972.61,563.46c.84-1-1.42-4.34-5.05-7.54s-7.25-5-8.09-4,1.41,4.33,5,7.53S971.76,564.42,972.61,563.46Z"/><path class="cls-16" d="M959.47,551.86c2.32-3.91,13.7-18.41,15.09-20.71a30.3,30.3,0,0,1,6.82-7.48c2.22-1.76,12.55-10,14-10.46s-.64,3.11-1.81,4-5.2,4.15-5.2,4.15c1.75,1,1.89,8.74.14,9.61s-6.14,5.36-6.14,5.36l-15,25.31a22.35,22.35,0,0,1-6.33-5.84C959.84,554.23,958.93,553.47,959.47,551.86Z"/><path class="cls-20" d="M1109.27,625.87c.85-5.23,1.86-10.47,1.86-10.47,4.07-3.41,10.76-14,12.19-18.6s4.78-4.36,6.76-3.81c-.91,7.36-3.22,27.58-3.22,27.58s-.26,3.53-.69,6.21-2.59,2.37-5.38,1.91S1113.77,626.55,1109.27,625.87Z"/><path class="cls-17" d="M950.88,492.68c-.74,4.26-3.46,7.8-4.14,9-2.17-.95-3.8.29-4,1.62-.34,2.09,1,3,2,3.83-6.75,11.73.55,15.83-6.75,24.52-5.08,6-21.28,7.32-25.53-3.87S921,506,927.7,494.32c3.54-6.1,9.36-7.35,14.92-6.54S950.25,491.35,950.88,492.68Z"/><path class="cls-20" d="M1057.24,619.19a37.64,37.64,0,0,0,10-5.67c5.35,2.1,21.16,5.41,26.26,4.38s6.14,1.23,6.64,3.4c-3.44,2.77-30.13,12-32.9,12.93s-4.85-.08-5.86-3S1058.09,622.56,1057.24,619.19Z"/><path class="cls-18" d="M915.09,628.9H813.22"/><path class="cls-6" d="M1099.27,619.19c-2.57.91-33.73,12.2-37.16,13.4,0,0,.66,2.56,5.11,1.64s32.9-12.93,32.9-12.93Z"/><path class="cls-18" d="M1057.24,619.19a37.64,37.64,0,0,0,10-5.67c5.35,2.1,21.16,5.41,26.26,4.38s6.14,1.23,6.64,3.4c-3.44,2.77-30.13,12-32.9,12.93s-4.85-.08-5.86-3S1058.09,622.56,1057.24,619.19Z"/><path class="cls-18" d="M1062.11,632.59c3.43-1.2,34.59-12.49,37.16-13.4"/><path class="cls-6" d="M1127.15,592.71l-4.79,36a2.76,2.76,0,0,0,3.81-1.9c1.08-3.1,3.91-33.79,3.91-33.79Z"/><path class="cls-18" d="M1109.27,625.87c.85-5.23,1.86-10.47,1.86-10.47,4.07-3.41,10.76-14,12.19-18.6s4.78-4.36,6.76-3.81c-.91,7.36-3.22,27.58-3.22,27.58s-.26,3.53-.69,6.21-2.59,2.37-5.38,1.91S1113.77,626.55,1109.27,625.87Z"/><path class="cls-18" d="M1127.15,592.71l-4.79,36"/></g><rect class="cls-21" x="1030.1" y="575.02" width="114.22" height="68.34"/><circle class="cls-6" cx="1066.85" cy="623.31" r="3.71"/><line class="cls-18" x1="1070.92" y1="617.75" x2="1072.17" y2="615.05"/><line class="cls-18" x1="1074.08" y1="618.56" x2="1074.94" y2="615.72"/><line class="cls-18" x1="1117.49" y1="613.1" x2="1115.49" y2="610.9"/><line class="cls-18" x1="1119.47" y1="610.5" x2="1117.19" y2="608.6"/><path class="cls-18" d="M1091.23,618.09a19.43,19.43,0,0,0,1.24,3.55"/><path class="cls-18" d="M1122.64,598.64a18.86,18.86,0,0,0,3.64.94"/><rect class="cls-22" x="1122.62" y="631.46" width="14.93" height="6.7"/><path class="cls-6" d="M1126.32,635v-.26h.37a1.4,1.4,0,0,1,.54.08,1,1,0,0,1,.34.2.72.72,0,0,1,.17.29,1,1,0,0,1,0,.3,1.14,1.14,0,0,1-.08.43.82.82,0,0,1-.23.32,1,1,0,0,1-.34.19,1.25,1.25,0,0,1-.43.07,1.16,1.16,0,0,1-.42-.07,1,1,0,0,1-.35-.18.89.89,0,0,1-.24-.3,1,1,0,0,1-.08-.41h.43a.66.66,0,0,0,.08.32.58.58,0,0,0,.23.21.91.91,0,0,0,.35.07.74.74,0,0,0,.34-.07.5.5,0,0,0,.22-.21.64.64,0,0,0,.08-.36.63.63,0,0,0-.09-.35.5.5,0,0,0-.25-.2.92.92,0,0,0-.38-.07Zm0-.36h.31a.82.82,0,0,0,.37-.07.59.59,0,0,0,.23-.21.6.6,0,0,0,.07-.3.83.83,0,0,0-.06-.34.55.55,0,0,0-.2-.2.82.82,0,0,0-.34-.07.66.66,0,0,0-.32.08.47.47,0,0,0-.22.2.62.62,0,0,0-.08.31h-.43a.91.91,0,0,1,.13-.48,1,1,0,0,1,.37-.34,1.37,1.37,0,0,1,1.1,0,.86.86,0,0,1,.36.32,1,1,0,0,1,.13.54.74.74,0,0,1-.06.27.82.82,0,0,1-.19.28.92.92,0,0,1-.32.2,1.21,1.21,0,0,1-.48.09h-.37Z"/><path class="cls-6" d="M1128.44,636.37a.32.32,0,0,1,.07-.19.27.27,0,0,1,.2-.07.28.28,0,0,1,.21.07.32.32,0,0,1,.07.19.26.26,0,0,1-.28.26.28.28,0,0,1-.2-.08A.29.29,0,0,1,1128.44,636.37Z"/><path class="cls-6" d="M1130.3,635v-.26h.37a1.4,1.4,0,0,1,.54.08,1,1,0,0,1,.34.2.72.72,0,0,1,.17.29,1,1,0,0,1,0,.3,1.14,1.14,0,0,1-.08.43.82.82,0,0,1-.23.32,1,1,0,0,1-.34.19,1.21,1.21,0,0,1-.43.07,1.16,1.16,0,0,1-.42-.07,1,1,0,0,1-.35-.18.89.89,0,0,1-.24-.3,1,1,0,0,1-.08-.41h.43a.66.66,0,0,0,.08.32.58.58,0,0,0,.23.21.91.91,0,0,0,.35.07.74.74,0,0,0,.34-.07.5.5,0,0,0,.22-.21.64.64,0,0,0,.08-.36.63.63,0,0,0-.09-.35.5.5,0,0,0-.25-.2.92.92,0,0,0-.38-.07Zm0-.36h.31a.82.82,0,0,0,.37-.07.59.59,0,0,0,.23-.21.6.6,0,0,0,.07-.3.83.83,0,0,0-.06-.34.55.55,0,0,0-.2-.2.82.82,0,0,0-.34-.07.66.66,0,0,0-.32.08.47.47,0,0,0-.22.2.62.62,0,0,0-.08.31h-.43a.91.91,0,0,1,.13-.48,1,1,0,0,1,.37-.34,1.37,1.37,0,0,1,1.1,0,.86.86,0,0,1,.36.32,1,1,0,0,1,.13.54.74.74,0,0,1-.06.27.82.82,0,0,1-.19.28.92.92,0,0,1-.32.2,1.21,1.21,0,0,1-.48.09h-.37Z"/><path class="cls-6" d="M1132.92,635l-.35-.09.17-1.71h1.76v.41h-1.39l-.1.93a.91.91,0,0,1,.24-.1,1.14,1.14,0,0,1,.33,0,1.18,1.18,0,0,1,.43.08,1,1,0,0,1,.32.23.88.88,0,0,1,.2.37,1.37,1.37,0,0,1,.07.47,1.63,1.63,0,0,1-.06.45,1.25,1.25,0,0,1-.2.36.81.81,0,0,1-.34.24,1.21,1.21,0,0,1-.48.09,1.23,1.23,0,0,1-.39-.06.88.88,0,0,1-.33-.18.85.85,0,0,1-.24-.29,1.08,1.08,0,0,1-.11-.42h.41a.86.86,0,0,0,.11.32.55.55,0,0,0,.23.2.66.66,0,0,0,.32.07.76.76,0,0,0,.27,0,.65.65,0,0,0,.21-.16.9.9,0,0,0,.12-.24,1.14,1.14,0,0,0,.05-.33.94.94,0,0,0-.05-.3.7.7,0,0,0-.13-.24.6.6,0,0,0-.22-.16.65.65,0,0,0-.29-.06.69.69,0,0,0-.33.06A1.38,1.38,0,0,0,1132.92,635Z"/></g></svg>