<?xml version="1.0" encoding="UTF-8"?>
<svg xmlns="http://www.w3.org/2000/svg" xmlns:xlink="http://www.w3.org/1999/xlink" viewBox="0 0 1200 675">
  <defs>
    <style>
      .cls-1, .cls-2, .cls-3, .cls-4, .cls-5, .cls-6, .cls-7, .cls-8, .cls-9, .cls-10, .cls-11, .cls-12 {
        fill: none;
      }

      .cls-2 {
        stroke-width: 3.63px;
      }

      .cls-2, .cls-5 {
        stroke: #f9bc09;
      }

      .cls-2, .cls-5, .cls-13, .cls-14, .cls-15, .cls-8, .cls-9, .cls-16, .cls-17, .cls-18 {
        stroke-miterlimit: 10;
      }

      .cls-3, .cls-4, .cls-6, .cls-7, .cls-19, .cls-20, .cls-10, .cls-11, .cls-12 {
        stroke-linejoin: round;
      }

      .cls-3, .cls-4, .cls-7, .cls-8, .cls-9, .cls-19, .cls-16, .cls-20, .cls-10, .cls-11, .cls-12 {
        stroke-linecap: round;
      }

      .cls-3, .cls-12 {
        stroke: #70777d;
      }

      .cls-21 {
        letter-spacing: -.01em;
      }

      .cls-4, .cls-6, .cls-9, .cls-17, .cls-20, .cls-10, .cls-18 {
        stroke: #fff;
      }

      .cls-4, .cls-6, .cls-20, .cls-10, .cls-12 {
        stroke-width: .89px;
      }

      .cls-4, .cls-22 {
        fill-rule: evenodd;
      }

      .cls-5 {
        stroke-width: 3px;
      }

      .cls-13, .cls-14, .cls-15, .cls-7 {
        stroke-width: 1.15px;
      }

      .cls-13, .cls-23, .cls-17, .cls-24, .cls-22 {
        fill: #fff;
      }

      .cls-13, .cls-7, .cls-11 {
        stroke: #3c4043;
      }

      .cls-14 {
        stroke: #fbbc04;
      }

      .cls-14, .cls-25 {
        fill: #fbbc04;
      }

      .cls-26 {
        font-size: 11px;
      }

      .cls-26, .cls-27, .cls-20 {
        fill: #636669;
      }

      .cls-26, .cls-28, .cls-24 {
        font-family: GoogleSans-Medium, 'Google Sans';
        font-weight: 500;
      }

      .cls-29 {
        clip-path: url(#clippath);
      }

      .cls-30 {
        letter-spacing: -.02em;
      }

      .cls-31 {
        letter-spacing: -.02em;
      }

      .cls-32 {
        letter-spacing: 0em;
      }

      .cls-15 {
        fill: #34a853;
        stroke: #34a853;
      }

      .cls-33, .cls-16 {
        fill: #f6f6f6;
      }

      .cls-34 {
        fill: #f9bc09;
      }

      .cls-35 {
        fill: #e5e6e8;
      }

      .cls-36 {
        fill: #085fd4;
      }

      .cls-37 {
        fill: #4285f4;
      }

      .cls-38 {
        fill: #3c4043;
      }

      .cls-39 {
        fill: #282828;
      }

      .cls-40 {
        letter-spacing: .01em;
      }

      .cls-41 {
        letter-spacing: 0em;
      }

      .cls-8, .cls-16 {
        stroke: #bdc1c6;
      }

      .cls-19 {
        fill: #e8eaed;
        stroke: #e8eaed;
        stroke-width: .24px;
      }

      .cls-28 {
        fill: #4d4d4d;
        font-size: 12px;
      }

      .cls-42 {
        letter-spacing: 0em;
      }

      .cls-43 {
        letter-spacing: 0em;
      }

      .cls-44 {
        opacity: .91;
      }

      .cls-11 {
        stroke-width: 1px;
      }

      .cls-24 {
        font-size: 7.51px;
      }

      .cls-45 {
        letter-spacing: 0em;
      }

      .cls-46 {
        isolation: isolate;
      }

      .cls-47 {
        letter-spacing: 0em;
      }

      .cls-48 {
        letter-spacing: -.02em;
      }

      .cls-49 {
        letter-spacing: 0em;
      }

      .cls-50 {
        letter-spacing: 0em;
      }

      .cls-51 {
        letter-spacing: -.07em;
      }

      .cls-18 {
        fill: #70777d;
        stroke-width: .75px;
      }

      .cls-52 {
        letter-spacing: -.07em;
      }

      .cls-53 {
        letter-spacing: 0em;
      }

      .cls-54 {
        letter-spacing: 0em;
      }
    </style>
    <clipPath id="clippath">
      <circle class="cls-1" cx="886.09" cy="159.86" r="20.2"/>
    </clipPath>
  </defs>
  <g id="Layer_1" data-name="Layer 1">
    <rect class="cls-33" x="56.64" y="83.59" width="775.84" height="438.28"/>
    <rect class="cls-27" x="56.64" y="473.44" width="775.84" height="47.8"/>
    <rect class="cls-16" x="865.76" y="254.71" width="131.15" height="78.46"/>
    <rect class="cls-16" x="865.76" y="346.77" width="131.15" height="78.46"/>
    <rect class="cls-16" x="865.76" y="438.83" width="131.15" height="78.46"/>
    <rect class="cls-16" x="865.76" y="530.89" width="131.15" height="78.46"/>
    <rect class="cls-36" x="1036.33" y="139.55" width="101.06" height="25.03"/>
    <rect class="cls-35" x="1010.06" y="255.31" width="131.92" height="9.7"/>
    <rect class="cls-35" x="1010.06" y="270.16" width="58.74" height="4.85"/>
    <rect class="cls-16" x="865.8" y="82.84" width="273.93" height="37.9"/>
    <rect class="cls-35" x="56.64" y="551.1" width="332.71" height="14.55"/>
    <rect class="cls-35" x="56.64" y="574.78" width="166.91" height="7.28"/>
    <g>
      <g>
        <rect class="cls-12" x="665.15" y="558.46" width="3.69" height="8.51"/>
        <path class="cls-12" d="m655.86,573.02l6.72-5.82v-8.73l-9.4-1.01c-1.01-.11-1.9.56-2.24,1.46l-1.79,7.05c-.11.67.34,1.23,1.01,1.23h6.16c-1.9,2.46-1.01,4.81-.45,5.82Z"/>
      </g>
      <g>
        <rect class="cls-12" x="596.64" y="563.72" width="3.92" height="8.96"/>
        <path class="cls-12" d="m610.41,557.23l-7.16,6.16v9.29l10.19,1.12c1.01.11,1.9-.56,2.24-1.46l1.9-7.61c.11-.67-.34-1.23-1.01-1.23h-6.72c2.13-2.57,1.23-5.15.56-6.27Z"/>
      </g>
      <path class="cls-3" d="m700.39,571.34v-2.8h0c0-2.8,2.24-5.04,5.04-5.04h12.87m0,0l-4.48-4.48m4.48,4.48l-4.48,4.48"/>
      <g>
        <path class="cls-3" d="m768.33,568.78h-8.13"/>
        <path class="cls-3" d="m764.5,572.85v-8.13"/>
        <path class="cls-3" d="m749.84,565.03h10.36m-10.36,3.75h7.2m-7.2-8.13h10.36"/>
      </g>
      <g class="cls-44">
        <circle class="cls-18" cx="808.28" cy="564.29" r="1.58"/>
        <circle class="cls-18" cx="802.76" cy="564.22" r="1.58"/>
        <circle class="cls-18" cx="797.16" cy="564.22" r="1.58"/>
      </g>
    </g>
    <line class="cls-8" x1="56.64" y1="609.66" x2="832.48" y2="609.66"/>
    <line class="cls-8" x1="865.19" y1="195.27" x2="1139.78" y2="195.27"/>
    <polyline class="cls-8" points="1113.9 220.6 1117.37 224.07 1113.9 227.55"/>
    <line class="cls-8" x1="1010.06" y1="296.31" x2="1067.27" y2="296.31"/>
    <g>
      <rect class="cls-8" x="865.27" y="213.31" width="29.32" height="21.53" rx="10.77" ry="10.77"/>
      <line class="cls-8" x1="873.55" y1="224.07" x2="886.32" y2="224.07"/>
    </g>
    <g>
      <rect class="cls-8" x="901.05" y="213.31" width="60.02" height="21.53" rx="10.77" ry="10.77"/>
      <line class="cls-8" x1="910.74" y1="224.07" x2="951.38" y2="224.07"/>
    </g>
    <g>
      <rect class="cls-8" x="967.52" y="213.31" width="29.32" height="21.53" rx="10.77" ry="10.77"/>
      <line class="cls-8" x1="975.82" y1="224.07" x2="988.59" y2="224.07"/>
    </g>
    <g>
      <rect class="cls-8" x="1003.3" y="213.31" width="60.02" height="21.53" rx="10.77" ry="10.77"/>
      <line class="cls-8" x1="1013.02" y1="224.07" x2="1053.65" y2="224.07"/>
    </g>
    <g>
      <rect class="cls-8" x="1069.78" y="213.31" width="29.32" height="21.53" rx="10.77" ry="10.77"/>
      <line class="cls-8" x1="1078.05" y1="224.07" x2="1090.82" y2="224.07"/>
    </g>
    <g>
      <rect class="cls-35" x="1010.06" y="346.77" width="131.92" height="9.7"/>
      <rect class="cls-35" x="1010.06" y="361.62" width="58.74" height="4.85"/>
      <line class="cls-8" x1="1010.06" y1="387.77" x2="1067.27" y2="387.77"/>
    </g>
    <g>
      <rect class="cls-35" x="1010.06" y="438.83" width="131.92" height="9.7"/>
      <rect class="cls-35" x="1010.06" y="453.68" width="58.74" height="4.85"/>
      <line class="cls-8" x1="1010.06" y1="479.83" x2="1067.27" y2="479.83"/>
    </g>
    <g>
      <rect class="cls-35" x="1010.06" y="530.89" width="131.92" height="9.7"/>
      <rect class="cls-35" x="1010.06" y="545.74" width="58.74" height="4.85"/>
      <line class="cls-8" x1="1010.06" y1="571.89" x2="1067.27" y2="571.89"/>
    </g>
    <rect class="cls-25" x="63.73" y="463.7" width="761.67" height="4.42"/>
    <g>
      <rect class="cls-27" x="631.73" y="384.79" width="200.42" height="46.48"/>
      <path class="cls-38" d="m831.66,385.29v45.48h-199.42v-45.48h199.42m1-1h-201.42v47.48h201.42v-47.48h0Z"/>
    </g>
    <path class="cls-10" d="m92.66,496.68l-11.22-7v14.03l11.22-7.03Z"/>
    <g>
      <path class="cls-10" d="m121.62,496.68l-10.75-6.71v13.44l10.75-6.73Z"/>
      <line class="cls-6" x1="125.1" y1="489.42" x2="125.1" y2="503.97"/>
    </g>
    <g>
      <path class="cls-23" d="m154.37,493.75v5.89c1.08-.53,1.83-1.65,1.83-2.94s-.75-2.41-1.83-2.95Z"/>
      <path class="cls-9" d="m154.37,504.96c3.04-1.5,5.13-4.62,5.13-8.25s-2.09-6.75-5.13-8.27"/>
      <polygon class="cls-10" points="143.31 493.69 143.31 499.72 147.33 499.72 152.36 504.74 152.36 488.66 147.33 493.69 143.31 493.69"/>
    </g>
    <g>
      <rect class="cls-10" x="613.88" y="492.19" width="22.21" height="9.01" rx="4.51" ry="4.51"/>
      <circle class="cls-20" cx="632.77" cy="496.7" r="7.29"/>
      <path class="cls-23" d="m635.11,496.69l-3.87-2.41v4.84l3.87-2.42Z"/>
    </g>
    <g>
      <rect class="cls-10" x="657.42" y="489.43" width="17.84" height="14.52" rx="2.01" ry="2.01"/>
      <text class="cls-24" transform="translate(660.75 499.4)"><tspan class="cls-48" x="0" y="0">C</tspan><tspan x="5.47" y="0">C</tspan></text>
    </g>
    <g>
      <path class="cls-4" d="m705.46,497.42c.04-.23.04-.48.04-.72s-.04-.49-.04-.74l1.58-1.27c.16-.12.16-.32.09-.48l-1.51-2.61c-.07-.16-.27-.25-.45-.16l-1.86.76c-.42-.27-.82-.56-1.27-.74l-.29-1.99c-.04-.16-.16-.32-.36-.32h-3.01c-.2,0-.36.12-.36.32l-.29,1.99c-.45.22-.89.46-1.27.74l-1.86-.76c-.17-.09-.37,0-.45.16l-1.51,2.61c-.07.16-.04.36.09.48l1.58,1.27c-.04.25-.04.49-.04.74s.04.49.04.72l-1.58,1.27c-.16.12-.16.33-.09.49l1.51,2.6c.07.17.27.25.45.17l1.86-.78c.42.29.82.58,1.27.74l.29,1.99c.03.16.16.33.36.33h3.01c.2,0,.36-.13.36-.33l.29-1.99c.45-.2.89-.45,1.27-.74l1.86.78c.17.07.37,0,.45-.17l1.51-2.6c.07-.16.04-.38-.09-.49l-1.58-1.27Z"/>
      <path class="cls-22" d="m699.89,498.75c-1.13,0-2.05-.91-2.05-2.05s.91-2.06,2.05-2.06,2.06.92,2.06,2.06-.95,2.05-2.06,2.05Z"/>
    </g>
    <rect class="cls-10" x="761.71" y="489.7" width="17.77" height="13.99"/>
    <g>
      <rect class="cls-10" x="724.54" y="488.9" width="19.82" height="15.6" rx="1.34" ry="1.34"/>
      <rect class="cls-17" x="734.51" y="496.91" width="7.46" height="5.26"/>
    </g>
    <g>
      <polyline class="cls-10" points="801.38 489.92 796.85 489.94 796.87 494.47"/>
      <polyline class="cls-10" points="796.89 498.99 796.91 503.52 801.44 503.5"/>
      <polyline class="cls-10" points="807.1 503.47 811.62 503.45 811.6 498.93"/>
      <polyline class="cls-10" points="811.58 494.4 811.56 489.87 807.04 489.89"/>
    </g>
    <rect class="cls-11" x="56.64" y="82.84" width="775.84" height="438.28"/>
    <g>
      <circle class="cls-2" cx="886.39" cy="160.06" r="20.6"/>
      <g class="cls-29">
        <g id="dCTiGC.tif">
          <path class="cls-34" d="m883.59,168.96c-.2-.1-.4-.1-.5-.2-.7-.5-1.4-.9-2.1-1.4-.9-.6-1.6-1.4-2.3-2.2-.6-.8-1-1.6-1.3-2.5-.4-1-.6-2.1-.6-3.1v-.2l-.1-.1c0,.1-.1.1-.1.2v2.2c0,.5.2,1.1.3,1.6s.3,1,.5,1.4c.3.6.6,1.1.9,1.6.7,1.1,1.7,1.9,2.8,2.7.4.3.8.6,1.2.8.5.3,1.1.6,1.6.9.8.4,1.6.8,2.4,1.1.5.2,1,.4,1.5.6.1.1.2.2.4.2.1.1.3,0,.4.1.9.4,1.9.8,2.8,1.2.8.3,1.5.7,2.3,1,.6.3,1.1.5,1.7.8.4.2.9.5,1.3.7.5.3,1.1.6,1.6,1,.5.3,1,.7,1.5,1.1.2.1.3.3.5.4h-27.5c-.2,0-.3,0-.3-.3-.1-.6-.2-1.2-.3-1.8s-.2-1.2-.3-1.8c-.1-.3-.1-.6-.1-.9-.1-.3-.1-.6-.2-.9v-.1c-.2-1.4-.4-2.8-.3-4.2,0-.7,0-1.4.1-2,.1-.7.2-1.4.3-2.1.1-.6.2-1.2.4-1.8.1-.4.2-.8.4-1.2.1-.5.3-.9.5-1.3.2-.6.5-1.1.8-1.7.2-.5.4-.9.7-1.4.9-1.7,2.1-3.2,3.5-4.5.7-.6,1.3-1.2,2-1.7.5-.4,1.1-.8,1.7-1.1.6-.3,1.2-.6,1.9-.9.5-.2,1.1-.4,1.7-.6v.9c-.1.9-.2,1.9-.2,2.8,0,.2-.1.3-.1.5s.1.2.2.3c.7.2,1.4.3,2.1.5.6.2,1.2.5,1.6,1.1.3.4.5.9.6,1.5.3,1.1.7,2.1,1.7,2.9.3.2.7.4,1.1.6.2.1.4.2.6.3.1,0,.1.2.1.2,0,.5-.1,1-.2,1.5-.2,1-.6,1.9-1.4,2.6-.5.4-1.1.7-1.7.9-.8.2-1.6.2-2.4.3-.6.1-1.2.2-1.7.4-.3.1-.6.2-.9.4-.5.2-.7.6-.8,1.1-.1.4,0,.8.1,1.2-.5.2-.5.3-.4.4Z"/>
        </g>
      </g>
      <path class="cls-23" d="m885.59,159.86c.5,0,.9-.4.9-.9s-.4-.9-.9-.9-.9.4-.9.9.4.9.9.9Z"/>
    </g>
    <text class="cls-28" transform="translate(924.97 154.06)"><tspan class="cls-30" x="0" y="0">C</tspan><tspan class="cls-21" x="8.7" y="0">a</tspan><tspan class="cls-40" x="15.13" y="0">t</tspan><tspan class="cls-49" x="19.96" y="0">s</tspan><tspan class="cls-43" x="25.76" y="0">t</tspan><tspan class="cls-50" x="30.47" y="0">u</tspan><tspan class="cls-51" x="37.49" y="0">ff</tspan><tspan x="45.3" y="0">.</tspan><tspan class="cls-49" x="48.44" y="0">c</tspan><tspan class="cls-21" x="55.09" y="0">o</tspan><tspan class="cls-41" x="62.23" y="0">m</tspan></text>
    <g>
      <path class="cls-37" d="m333.18,197.13c15.02-5.79,28.96,3.39,41.04,11.09,6.65,4.24,13.29,6.39,21.2,5.79,8.2-.62,16.24-3.15,24.51-2.59,15.49,1.09,28.24,11.22,43.16,15.02,1.22.31.98,2.09-.28,2.09h-147.55c1.91-5.97,4.16-11.84,6.62-17.61,1.65-3.88,3.72-8.87,7.19-11.53,1.22-.96,2.61-1.71,4.11-2.28Z"/>
      <path class="cls-14" d="m467.12,138.72c-3.46,8.09-4.91,17.17-3.67,26.53,3.7,27.75,29.17,47.22,56.89,43.54,10.73-1.42,19.26-4.81,26.66-11.64-16.86-30.02-46.31-52-79.88-58.44Z"/>
      <path class="cls-7" d="m438.24,135.31v230.43"/>
      <path class="cls-7" d="m563.8,280.63h-251.13"/>
      <path class="cls-7" d="m311.2,410.12h-53.22"/>
      <path class="cls-7" d="m617.59,410.12h-53.24"/>
      <path class="cls-7" d="m565.28,261.6c0-70.05-56.89-126.86-127.04-126.86s-127.04,56.81-127.04,126.86v148.53h254.08v-148.53Z"/>
      <path class="cls-23" d="m478.94,384.29c-4.58-3.34-3.08-10.3,2.48-11.71.75-.18,1.5-.41,2.25-.72,6.23-2.34,30.72-19.96,40.57-18.96,0,0,7.09.2,7.11,4.62.03,3.75-10.76,5.06-12.62,6.16-4.55,2.7-7.37,7.71-11.4,11-4.19,3.39-8.22,6.88-13.47,8.32-2.38.64-12.72,2.85-14.87,1.33.03,0,0-.03-.05-.05Z"/>
      <path class="cls-7" d="m481.7,384.96s15.1-.64,27.77-13.23"/>
      <path class="cls-7" d="m524.91,360.58c.98-.67,8.79-2.34,6.72-5.63-1.45-2.29-7.29-2.23-9.44-2.18-5.46.15-13.08,2.7-17.25,6.32"/>
      <path class="cls-13" d="m361.31,376.12s-10.6,10.17-3.85,16.47c3.85,3.62,23.17,6.45,25.78,11.15,3.05,5.47-6.13,6.35-6.13,6.35,0,0-26.4.8-29.53-4.93-3.13-5.73-5.53-29.52,13.73-29.03Z"/>
      <path class="cls-38" d="m349.41,389.44l5.84-2.65s3.46-10.64,5.64-11.33c.03,0-11.48,3.94-11.48,13.98Z"/>
      <path class="cls-15" d="m527.7,410.12c13.65,0,24.72-11.07,24.72-24.72s-11.07-24.72-24.72-24.72-24.72,11.07-24.72,24.72,11.07,24.72,24.72,24.72Z"/>
      <path class="cls-7" d="m535.59,361.97c-2.48-.84-5.13-1.29-7.89-1.29-13.65,0-24.72,11.07-24.72,24.72s11.07,24.72,24.72,24.72c9.9,0,18.44-5.82,22.39-14.22"/>
      <path class="cls-23" d="m543.61,402.57c-2.09-4.5-8.92-6.18-30.75-4.73-21.82,1.45-26.74-9.23-31.39-13.24-.44-.36-.75-.75-1.09-1.14l-1.81-4.58c0,.47.05.96.16,1.45-.13-.52-.18-1.03-.18-1.53l.03.08c.03-1.47.54-2.77,1.34-3.62.03-.03.05-.08.1-.1.1-.1.23-.18.36-.28.26-.16.49-.34.78-.41.08-.03.1-.08.16-.16.21-.08.39-.18.59-.21,2.82-.39,19.26-3.67,22.42-6.28,3.15-2.59,2.72-7.06,2.72-7.06,0,0-4.29-3.75-6.54-6.05s-1.47-6.23-4.01-11.84c-2.53-5.59-11.33-7.14-13.73-10.21-2.17-2.77-.36-12.39-.36-12.41-.1.44-4.86,1.63-5.46,2.15-1.27,1.09-2.33,2.38-3.26,3.75-1.81,2.66-3.1,5.64-4.99,8.27-5.12,7.11-14.45,12.02-23.25,10.91-6.13-.78-12.02-3.13-17.56-5.77-13.34-6.39-25.55-15.2-37.11-24.36-38.79-31.78-68.96-15.57-78.66-3.7-10.11,12.36-14.17,12.98-27.77,6.59-20.87-9.8-25.16-22.47-33.2-35.97-5.79-17.48-7.76-31.03-5.17-49.13.96-3.34.34-9.75-2.59-11.64-3.1-1.99-6.36,4.94-8.2,8.15,0,8.66-2.09,13.47-2.09,20.56,0,18.38,5.64,32.17,12.88,48.87,7.78,12.75,19.13,21.57,32.32,28.44,4.53,1.63,9.08,4.03,12.49,7.42,3.75,3.7,4.94,9.21,6.36,14.27,10.89,24.85,25.11,40.36,44.73,59.5,2.9,2.4,33.46.57,33.46.57,0,0,5.25,1.11,2.51-2.9-2.72-4.01-25.75-8.92-28.44-11.64-2.28-2.3-1.58-7.94,0-10.34,6.77-10.29,21.41-11.33,32.4-10.03,16.89,1.99,28.37,15.88,43.23,22.57,13.01,5.84,27.44,7.21,40.86,11.69,7.71,2.56,61.8,1.97,64.52,1.63,2.74-.31,15.28-3.05,13.19-7.55Zm-64.49-21.05c-.03-.08-.08-.16-.1-.26.05.08.08.16.1.26Z"/>
      <path class="cls-38" d="m493.83,356.42c1.11,0,2.02-.9,2.02-2.02s-.9-2.02-2.02-2.02-2.02.9-2.02,2.02.9,2.02,2.02,2.02Z"/>
      <path class="cls-7" d="m370.2,349.13c.83,6.95,1.14,18.26-4.29,23.63-3.72,3.69-9.31,4.68-13.29,8.06-4.06,3.46-5.53,8.37-2.95,13.22,2.66,4.98,23.14,6.84,28.81,11.62,1.78,1.53.65,4.47-1.71,4.47h-28.47c-5.95,0-10.29-6.02-14.12-9.79-7.78-7.74-15-15.85-22.08-24.22,0,0-10.91-10.9-17.02-36.54-2.22-9.32-15.93-11.47-23.07-15.6-32.12-18.72-42.33-59.03-35.79-93.65.47-2.48,1.91-7.26,4.4-8.42,8.22-3.85,5.35,13.61,4.89,17.04-4.42,31.73,11.51,69.72,43.31,81.16,8.82,3.18,11.74,5.27,17.51-1.76,6.85-8.37,15.21-16.09,25.65-19.55,17.35-5.76,36.93-2.12,54.33,13.09,17.4,15.21,31.63,24.09,40.68,28.41"/>
      <path class="cls-38" d="m488.01,372.79s-3.75,8.84-2.74,11.43l-4.99.54s-2.61-6.8-.03-9.83c2.59-3.03,7.76-2.15,7.76-2.15Z"/>
      <path class="cls-7" d="m361.88,375.45s20.87-5.46,35.32,3.85c14.45,9.31,28.26,23.12,68.7,29.53,0,0,42.54,1.29,64.52,1.29,0,0,16.23-1.86,13.19-7.55-2.33-4.34-11.71-5.46-18.23-5.22-6.34.23-14.38-.23-26.74-1.37-12.36-1.11-20.56-14.61-19.57-19.26.96-4.65,4.16-3.36,11.87-4.65,7.01-1.16,14.89-2.25,15.98-9.08.21-1.24-.34-2.51-1.34-3.26-1.76-1.34-4.58-3.65-5.09-4.96-2.35-6.26-1.11-12.05-7.27-15.64-3.31-1.94-9.85-3.34-10.91-7.73-.78-3.18.88-6.18.67-9.33-.18-3-3.18-2.12-4.94-.78-1.73,1.34-3.13,3.13-4.37,4.94-4.09,5.92-10.65,20.35-25.26,18.93-14.61-1.42-21.41-4.84-21.41-4.84"/>
    </g>
    <g>
      <rect class="cls-23" x="63.74" y="392.62" width="232.29" height="34.68"/>
      <path d="m295.53,393.12v33.68H64.24v-33.68h231.29m1-1H63.24v35.68h233.29v-35.68h0Z"/>
    </g>
    <g>
      <circle class="cls-5" cx="82.14" cy="409.96" r="12.95"/>
      <g id="dCTiGC.tif-2" data-name="dCTiGC.tif">
        <path class="cls-34" d="m80.38,415.56c-.13-.06-.25-.06-.31-.13-.44-.31-.88-.57-1.32-.88-.57-.38-1.01-.88-1.45-1.38-.38-.5-.63-1.01-.82-1.57-.25-.63-.38-1.32-.38-1.95v-.13l-.06-.06c0,.06-.06.06-.06.13v1.38c0,.31.13.69.19,1.01s.19.63.31.88c.19.38.38.69.57,1.01.44.69,1.07,1.19,1.76,1.7.25.19.5.38.75.5.31.19.69.38,1.01.57.5.25,1.01.5,1.51.69.31.13.63.25.94.38.06.06.13.13.25.13.06.06.19,0,.25.06.57.25,1.19.5,1.76.75.5.19.94.44,1.45.63.38.19.69.31,1.07.5.25.13.57.31.82.44.31.19.69.38,1.01.63.31.19.63.44.94.69.13.06.19.19.31.25h-17.29c-.13,0-.19,0-.19-.19-.06-.38-.13-.75-.19-1.13s-.13-.75-.19-1.13c-.06-.19-.06-.38-.06-.57-.06-.19-.06-.38-.13-.57v-.06c-.13-.88-.25-1.76-.19-2.64,0-.44,0-.88.06-1.26.06-.44.13-.88.19-1.32.06-.38.13-.75.25-1.13.06-.25.13-.5.25-.75.06-.31.19-.57.31-.82.13-.38.31-.69.5-1.07.13-.31.25-.57.44-.88.57-1.07,1.32-2.01,2.2-2.83.44-.38.82-.75,1.26-1.07.31-.25.69-.5,1.07-.69.38-.19.75-.38,1.19-.57.31-.13.69-.25,1.07-.38v.57c-.06.57-.13,1.19-.13,1.76,0,.13-.06.19-.06.31s.06.13.13.19c.44.13.88.19,1.32.31.38.13.75.31,1.01.69.19.25.31.57.38.94.19.69.44,1.32,1.07,1.82.19.13.44.25.69.38.13.06.25.13.38.19.06,0,.06.13.06.13,0,.31-.06.63-.13.94-.13.63-.38,1.19-.88,1.63-.31.25-.69.44-1.07.57-.5.13-1.01.13-1.51.19-.38.06-.75.13-1.07.25-.19.06-.38.13-.57.25-.31.13-.44.38-.5.69-.06.25,0,.5.06.75-.31.13-.31.19-.25.25Z"/>
      </g>
      <path class="cls-23" d="m81.63,409.84c.31,0,.57-.25.57-.57s-.25-.57-.57-.57-.57.25-.57.57.25.57.57.57Z"/>
    </g>
    <text class="cls-26" transform="translate(100.67 419.03)"><tspan class="cls-31" x="0" y="0">C</tspan><tspan class="cls-45" x="7.98" y="0">a</tspan><tspan class="cls-42" x="13.87" y="0">t</tspan><tspan class="cls-53" x="18.29" y="0">s</tspan><tspan x="23.62" y="0">t</tspan><tspan class="cls-54" x="27.93" y="0">u</tspan><tspan class="cls-52" x="34.36" y="0">ff</tspan><tspan x="41.52" y="0">.</tspan><tspan class="cls-32" x="44.41" y="0">c</tspan><tspan class="cls-47" x="50.5" y="0">o</tspan><tspan x="57.05" y="0">m</tspan></text>
    <rect class="cls-36" x="246.83" y="402.7" width="43.28" height="16.33"/>
  </g>
  <g id="Layer_2" data-name="Layer 2">
    <g class="cls-46">
      <path class="cls-23" d="m1049.93,147.92h-2.41v-1.25h6.13v1.25h-2.4v7.34h-1.32v-7.34Z"/>
      <path class="cls-23" d="m1054.03,146.38h1.48l.56,1.57h-1.09l-.95-1.57Zm.84,2.76h1.3v6.12h-1.3v-6.12Z"/>
      <path class="cls-23" d="m1057.79,149.14h1.22v.84h.07c.18-.3.44-.55.78-.74s.7-.29,1.1-.29c.44,0,.82.1,1.15.31s.56.48.7.83c.22-.34.5-.62.85-.83s.76-.31,1.23-.31c.7,0,1.24.21,1.6.64.36.43.54,1.01.54,1.75v3.92h-1.28v-3.71c0-.94-.4-1.42-1.2-1.42-.44,0-.8.18-1.07.53-.28.35-.41.79-.41,1.32v3.28h-1.28v-3.71c0-.94-.41-1.42-1.24-1.42-.42,0-.77.18-1.04.53-.27.36-.41.8-.41,1.33v3.26h-1.3v-6.12Z"/>
      <path class="cls-23" d="m1071.3,146.67h1.3v2.35l-.07.96h.07c.18-.3.44-.55.79-.74s.73-.29,1.15-.29c.74,0,1.31.22,1.7.67.39.44.59,1.04.59,1.78v3.86h-1.28v-3.7c0-.47-.13-.83-.38-1.07-.25-.24-.57-.36-.97-.36-.3,0-.57.09-.81.26-.24.17-.44.4-.58.69-.14.29-.21.59-.21.91v3.26h-1.3v-8.59Z"/>
      <path class="cls-23" d="m1078.42,147.98c-.17-.17-.26-.38-.26-.62s.09-.44.26-.61.38-.25.62-.25.45.08.62.25.26.37.26.61-.09.45-.26.62-.38.26-.62.26-.45-.09-.62-.26Zm-.03,1.16h1.3v6.12h-1.3v-6.12Z"/>
      <path class="cls-23" d="m1082.43,155.03c-.48-.28-.85-.67-1.12-1.16-.27-.49-.4-1.05-.4-1.66,0-.58.13-1.13.39-1.63.26-.5.62-.9,1.09-1.19.46-.3.99-.44,1.57-.44.62,0,1.15.13,1.6.4.45.27.79.64,1.03,1.11.24.47.35,1.01.35,1.61,0,.16,0,.3-.02.41h-4.73c.06.58.26,1.03.62,1.35.36.32.78.47,1.26.47.39,0,.73-.09,1.01-.27s.5-.42.67-.71l1.07.52c-.28.5-.65.9-1.12,1.19-.46.29-1.02.43-1.67.43-.59,0-1.13-.14-1.6-.42Zm-.35-7.15l1.3-1.44h1.13l1.31,1.44v.08h-1.25l-.56-.7h-.12l-.56.7h-1.24v-.08Zm3.58,3.62c-.02-.22-.09-.45-.22-.67-.13-.22-.31-.41-.56-.56-.24-.15-.55-.22-.91-.22-.43,0-.8.13-1.1.4-.3.26-.51.62-.62,1.06h3.4Zm-.24-4.69c.26-.24.4-.45.4-.64,0-.13-.04-.22-.12-.29s-.19-.1-.32-.1c-.16,0-.32.03-.48.1v-.8c.22-.05.43-.07.62-.07.39,0,.69.09.9.27s.31.43.31.76c0,.53-.27.97-.8,1.33l-.5-.56Z"/>
      <path class="cls-23" d="m1088.67,154.79c-.39-.44-.58-1.06-.58-1.85v-3.79h1.3v3.61c0,.5.12.87.35,1.13.23.26.54.38.94.38.32,0,.6-.08.85-.25s.44-.39.57-.67c.13-.28.2-.58.2-.91v-3.29h1.28v6.12h-1.21v-.83h-.07c-.18.3-.44.54-.79.73-.35.19-.73.29-1.14.29-.74,0-1.3-.22-1.69-.67Z"/>
      <path class="cls-23" d="m1099.64,155.32c-.24-.09-.43-.21-.58-.36-.34-.33-.52-.81-.52-1.42v-3.28h-1.07v-1.13h1.07v-1.73h1.3v1.73h1.5v1.13h-1.5v3.01c0,.34.06.59.19.73.14.16.34.23.62.23.14,0,.27-.02.37-.05.1-.04.22-.09.35-.17v1.26c-.27.12-.6.18-.97.18-.27,0-.53-.04-.76-.13Z"/>
      <path class="cls-23" d="m1102.66,146.67h1.3v2.35l-.07.96h.07c.18-.3.44-.55.79-.74s.73-.29,1.15-.29c.74,0,1.31.22,1.7.67.39.44.59,1.04.59,1.78v3.86h-1.28v-3.7c0-.47-.13-.83-.38-1.07-.25-.24-.57-.36-.97-.36-.3,0-.57.09-.81.26-.24.17-.44.4-.58.69-.14.29-.21.59-.21.91v3.26h-1.3v-8.59Z"/>
      <path class="cls-23" d="m1110.85,155.03c-.48-.28-.85-.67-1.12-1.16-.27-.49-.4-1.05-.4-1.66,0-.58.13-1.13.39-1.63.26-.5.62-.9,1.09-1.19.46-.3.99-.44,1.57-.44.62,0,1.15.13,1.6.4.45.27.79.64,1.03,1.11.24.47.35,1.01.35,1.61,0,.16,0,.3-.02.41h-4.73c.06.58.26,1.03.62,1.35.36.32.78.47,1.26.47.39,0,.73-.09,1.01-.27s.5-.42.67-.71l1.07.52c-.28.5-.65.9-1.12,1.19-.46.29-1.02.43-1.67.43-.59,0-1.13-.14-1.6-.42Zm-.27-7.15l1.28-1.45h1.14l1.3,1.45v.08h-1.25l-.56-.73h-.12l-.55.73h-1.24v-.08Zm3.49,3.62c-.02-.22-.09-.45-.22-.67-.13-.22-.31-.41-.56-.56-.24-.15-.55-.22-.91-.22-.43,0-.8.13-1.1.4-.3.26-.51.62-.62,1.06h3.4Z"/>
      <path class="cls-23" d="m1116.55,149.14h1.22v.84h.07c.18-.3.44-.55.78-.74s.7-.29,1.1-.29c.44,0,.82.1,1.15.31s.56.48.7.83c.22-.34.5-.62.85-.83s.76-.31,1.23-.31c.7,0,1.24.21,1.6.64.36.43.54,1.01.54,1.75v3.92h-1.28v-3.71c0-.94-.4-1.42-1.2-1.42-.44,0-.8.18-1.07.53-.28.35-.41.79-.41,1.32v3.28h-1.28v-3.71c0-.94-.41-1.42-1.24-1.42-.42,0-.77.18-1.04.53-.27.36-.41.8-.41,1.33v3.26h-1.3v-6.12Z"/>
    </g>
    <g class="cls-46">
      <path class="cls-23" d="m251.79,409.47h-1.09v-.56h2.77v.56h-1.08v3.32h-.6v-3.32Z"/>
      <path class="cls-23" d="m253.64,408.78h.67l.25.71h-.49l-.43-.71Zm.38,1.25h.59v2.76h-.59v-2.76Z"/>
      <path class="cls-23" d="m255.34,410.02h.55v.38h.03c.08-.14.2-.25.35-.34.15-.09.32-.13.5-.13.2,0,.37.05.52.14.15.09.25.22.32.37.1-.16.23-.28.38-.37.16-.09.34-.14.56-.14.32,0,.56.1.72.29s.24.46.24.79v1.77h-.58v-1.67c0-.43-.18-.64-.54-.64-.2,0-.36.08-.48.24s-.19.36-.19.6v1.48h-.58v-1.67c0-.43-.19-.64-.56-.64-.19,0-.35.08-.47.24-.12.16-.18.36-.18.6v1.47h-.59v-2.76Z"/>
      <path class="cls-23" d="m261.44,408.91h.59v1.06l-.03.43h.03c.08-.14.2-.25.35-.34.16-.09.33-.13.52-.13.34,0,.59.1.77.3.18.2.27.47.27.81v1.75h-.58v-1.67c0-.21-.06-.37-.17-.48-.11-.11-.26-.16-.44-.16-.13,0-.26.04-.37.12-.11.08-.2.18-.26.31-.06.13-.1.27-.1.41v1.47h-.59v-3.88Z"/>
      <path class="cls-23" d="m264.66,409.5c-.08-.08-.12-.17-.12-.28s.04-.2.12-.28c.08-.08.17-.11.28-.11s.2.04.28.11c.08.08.12.17.12.28s-.04.2-.12.28c-.08.08-.17.12-.28.12s-.2-.04-.28-.12Zm-.01.52h.59v2.76h-.59v-2.76Z"/>
      <path class="cls-23" d="m266.47,412.69c-.21-.13-.38-.3-.5-.52-.12-.22-.18-.47-.18-.75,0-.26.06-.51.18-.73.12-.23.28-.41.49-.54s.45-.2.71-.2c.28,0,.52.06.72.18.2.12.36.29.46.5.11.21.16.46.16.73,0,.07,0,.13-.01.18h-2.14c.03.26.12.47.28.61s.35.21.57.21c.18,0,.33-.04.46-.12s.23-.19.3-.32l.48.23c-.13.23-.29.41-.5.54s-.46.2-.75.2c-.27,0-.51-.06-.72-.19Zm-.16-3.23l.59-.65h.51l.59.65v.04h-.56l-.25-.32h-.05l-.25.32h-.56v-.04Zm1.62,1.64c0-.1-.04-.2-.1-.3-.06-.1-.14-.19-.25-.25-.11-.07-.25-.1-.41-.1-.19,0-.36.06-.5.18-.14.12-.23.28-.28.48h1.53Zm-.11-2.12c.12-.11.18-.2.18-.29,0-.06-.02-.1-.05-.13-.04-.03-.08-.04-.15-.04-.07,0-.14.01-.22.04v-.36c.1-.02.2-.03.28-.03.18,0,.31.04.41.12s.14.2.14.34c0,.24-.12.44-.36.6l-.23-.25Z"/>
      <path class="cls-23" d="m269.28,412.57c-.18-.2-.26-.48-.26-.84v-1.71h.59v1.63c0,.22.05.39.16.51.1.12.25.17.42.17.14,0,.27-.04.38-.11.11-.08.2-.18.26-.3.06-.13.09-.26.09-.41v-1.49h.58v2.76h-.55v-.37h-.03c-.08.13-.2.24-.36.33-.16.09-.33.13-.52.13-.33,0-.59-.1-.76-.3Z"/>
      <path class="cls-23" d="m274.24,412.82c-.11-.04-.19-.09-.26-.16-.16-.15-.23-.37-.23-.64v-1.48h-.48v-.51h.48v-.78h.59v.78h.68v.51h-.68v1.36c0,.16.03.27.09.33.06.07.16.11.28.11.06,0,.12,0,.17-.02.05-.02.1-.04.16-.08v.57c-.12.05-.27.08-.44.08-.12,0-.24-.02-.34-.06Z"/>
      <path class="cls-23" d="m275.6,408.91h.59v1.06l-.03.43h.03c.08-.14.2-.25.35-.34.16-.09.33-.13.52-.13.34,0,.59.1.77.3.18.2.27.47.27.81v1.75h-.58v-1.67c0-.21-.06-.37-.17-.48-.11-.11-.26-.16-.44-.16-.13,0-.26.04-.37.12-.11.08-.2.18-.26.31-.06.13-.1.27-.1.41v1.47h-.59v-3.88Z"/>
      <path class="cls-23" d="m279.3,412.69c-.21-.13-.38-.3-.5-.52-.12-.22-.18-.47-.18-.75,0-.26.06-.51.18-.73.12-.23.28-.41.49-.54s.45-.2.71-.2c.28,0,.52.06.72.18.2.12.36.29.46.5.11.21.16.46.16.73,0,.07,0,.13-.01.18h-2.14c.03.26.12.47.28.61s.35.21.57.21c.18,0,.33-.04.46-.12s.23-.19.3-.32l.48.23c-.13.23-.29.41-.5.54s-.46.2-.75.2c-.27,0-.51-.06-.72-.19Zm-.12-3.23l.58-.66h.52l.59.66v.04h-.56l-.25-.33h-.05l-.25.33h-.56v-.04Zm1.58,1.64c0-.1-.04-.2-.1-.3-.06-.1-.14-.19-.25-.25-.11-.07-.25-.1-.41-.1-.19,0-.36.06-.5.18-.14.12-.23.28-.28.48h1.53Z"/>
      <path class="cls-23" d="m281.88,410.02h.55v.38h.03c.08-.14.2-.25.35-.34.15-.09.32-.13.5-.13.2,0,.37.05.52.14.15.09.25.22.32.37.1-.16.23-.28.38-.37.16-.09.34-.14.56-.14.32,0,.56.1.72.29s.24.46.24.79v1.77h-.58v-1.67c0-.43-.18-.64-.54-.64-.2,0-.36.08-.48.24s-.19.36-.19.6v1.48h-.58v-1.67c0-.43-.19-.64-.56-.64-.19,0-.35.08-.47.24-.12.16-.18.36-.18.6v1.47h-.59v-2.76Z"/>
    </g>
    <g>
      <path class="cls-27" d="m103.03,404.92c-.46-.26-.82-.62-1.09-1.08-.27-.46-.4-.96-.4-1.52s.13-1.07.4-1.52c.27-.46.63-.81,1.09-1.08s.96-.39,1.5-.39c.44,0,.84.08,1.21.23.37.15.68.37.94.65l-.61.61c-.39-.44-.9-.66-1.54-.66-.37,0-.72.09-1.05.27s-.58.43-.78.76c-.19.33-.29.71-.29,1.13s.1.8.29,1.13c.19.33.45.58.78.76s.67.27,1.05.27c.6,0,1.09-.19,1.47-.57.12-.12.23-.27.31-.45.08-.18.14-.38.17-.6h-1.97v-.78h2.78c.03.18.05.34.05.46,0,.36-.06.71-.17,1.04-.11.33-.29.62-.53.87-.26.28-.56.49-.92.64s-.76.22-1.2.22c-.54,0-1.05-.13-1.5-.39Z"/>
      <path class="cls-27" d="m108.31,400.34c-.11-.12-.17-.25-.17-.41s.06-.3.17-.41.25-.17.41-.17.3.06.41.17.17.25.17.41-.06.3-.17.41c-.11.11-.25.17-.41.17s-.3-.06-.41-.17Zm-.02.77h.86v4.08h-.86v-4.08Z"/>
      <path class="cls-27" d="m110.68,405.14c-.23-.11-.41-.28-.54-.48s-.19-.45-.19-.71c0-.28.07-.53.22-.73.15-.21.35-.36.61-.47s.54-.16.86-.16c.24,0,.46.02.65.07.19.05.35.1.47.16v-.22c0-.26-.1-.47-.29-.64-.19-.16-.44-.24-.74-.24-.21,0-.41.05-.59.14-.19.09-.34.22-.45.38l-.59-.46c.18-.25.41-.45.7-.58.29-.14.61-.21.96-.21.59,0,1.04.15,1.36.44.32.29.48.7.48,1.22v2.55h-.84v-.5h-.05c-.12.18-.29.33-.5.45s-.47.18-.74.18c-.29,0-.55-.06-.78-.17Zm1.52-.69c.18-.1.31-.24.41-.42.1-.18.15-.37.15-.57-.13-.08-.27-.13-.44-.18-.17-.04-.34-.06-.52-.06-.34,0-.58.07-.74.2-.16.13-.24.31-.24.53,0,.19.07.35.22.47.14.12.34.18.58.18.21,0,.41-.05.58-.16Zm-.77-4.3c.15-.04.26-.09.33-.16.07-.06.1-.14.1-.24,0-.08-.03-.14-.09-.18-.06-.04-.14-.06-.24-.06-.15,0-.29.03-.42.09l-.16-.48c.23-.08.46-.13.66-.13.27,0,.48.06.63.19.15.12.22.31.22.54,0,.26-.08.46-.23.6-.15.14-.37.24-.66.29l-.15-.46Z"/>
      <path class="cls-27" d="m114.55,401.11h.82v.56h.05c.12-.2.3-.37.52-.5.22-.13.47-.19.74-.19.29,0,.55.07.76.21.22.14.37.32.47.55.14-.23.33-.41.56-.55s.51-.21.82-.21c.47,0,.82.14,1.06.43.24.29.36.67.36,1.16v2.62h-.86v-2.47c0-.63-.27-.94-.8-.94-.29,0-.53.12-.72.35-.18.24-.28.53-.28.88v2.18h-.86v-2.47c0-.63-.27-.94-.82-.94-.28,0-.51.12-.7.36-.18.24-.27.53-.27.88v2.18h-.86v-4.08Z"/>
      <path class="cls-27" d="m124.17,406.7c-.33-.23-.55-.5-.66-.82l.8-.34c.08.22.23.39.42.53.19.13.42.2.68.2.38,0,.67-.12.89-.35s.32-.56.32-.98v-.39h-.05c-.13.2-.31.35-.54.46-.22.11-.48.17-.77.17-.35,0-.67-.09-.96-.26-.29-.17-.52-.42-.7-.74-.17-.32-.26-.69-.26-1.1s.09-.78.26-1.1c.17-.32.41-.57.7-.75.29-.18.61-.27.96-.27.28,0,.54.06.76.17.23.12.41.27.54.47h.05v-.51h.82v3.86c0,.44-.09.81-.26,1.12-.17.31-.41.55-.72.71s-.66.24-1.06.24c-.5,0-.91-.11-1.24-.34Zm1.84-2.46c.18-.11.33-.26.44-.45.11-.2.16-.43.16-.71s-.05-.52-.16-.72c-.11-.2-.25-.35-.44-.45-.18-.1-.38-.15-.6-.15s-.42.05-.6.15-.33.25-.44.45c-.11.2-.16.44-.16.72s.05.51.16.71c.11.2.26.35.44.45s.39.15.6.15.42-.05.6-.16Z"/>
      <path class="cls-27" d="m128.53,400.34c-.11-.12-.17-.25-.17-.41s.06-.3.17-.41.25-.17.41-.17.3.06.41.17.17.25.17.41-.06.3-.17.41c-.11.11-.25.17-.41.17s-.3-.06-.41-.17Zm-.02.77h.86v4.08h-.86v-4.08Z"/>
      <path class="cls-27" d="m130.9,405.14c-.23-.11-.41-.28-.54-.48s-.19-.45-.19-.71c0-.28.07-.53.22-.73.15-.21.35-.36.61-.47s.54-.16.86-.16c.24,0,.46.02.65.07.19.05.35.1.47.16v-.22c0-.26-.1-.47-.29-.64-.19-.16-.44-.24-.74-.24-.21,0-.41.05-.59.14-.19.09-.34.22-.45.38l-.59-.46c.18-.25.41-.45.7-.58.29-.14.61-.21.96-.21.59,0,1.04.15,1.36.44.32.29.48.7.48,1.22v2.55h-.84v-.5h-.05c-.12.18-.29.33-.5.45s-.47.18-.74.18c-.29,0-.55-.06-.78-.17Zm1.52-.69c.18-.1.31-.24.41-.42.1-.18.15-.37.15-.57-.13-.08-.27-.13-.44-.18-.17-.04-.34-.06-.52-.06-.34,0-.58.07-.74.2-.16.13-.24.31-.24.53,0,.19.07.35.22.47.14.12.34.18.58.18.21,0,.41-.05.58-.16Zm-.38-5.19h.98l-.64,1.05h-.71l.38-1.05Z"/>
      <path class="cls-27" d="m136.63,399.46h.86v3.36h.03l1.7-1.71h1.07v.05l-1.58,1.57,1.63,2.42v.05h-1.02l-1.22-1.87-.62.62v1.26h-.86v-5.73Z"/>
      <path class="cls-27" d="m140.89,399.46h.86v1.57l-.05.64h.05c.12-.2.29-.37.52-.5s.49-.19.76-.19c.5,0,.88.15,1.14.44s.39.69.39,1.19v2.58h-.86v-2.46c0-.31-.08-.55-.25-.71s-.38-.24-.64-.24c-.2,0-.38.06-.54.17-.16.12-.29.27-.38.46-.09.19-.14.39-.14.61v2.18h-.86v-5.73Z"/>
      <path class="cls-27" d="m145.91,404.87c-.26-.3-.39-.71-.39-1.24v-2.53h.86v2.41c0,.33.08.58.23.75s.36.26.62.26c.21,0,.4-.06.57-.17.17-.11.29-.26.38-.45.09-.19.13-.39.13-.61v-2.19h.86v4.08h-.81v-.55h-.05c-.12.2-.29.36-.53.49-.23.13-.49.19-.76.19-.49,0-.87-.15-1.12-.44Zm1.1-4.72c.15-.04.26-.09.33-.16.07-.06.1-.14.1-.24,0-.08-.03-.14-.09-.18-.06-.04-.14-.06-.24-.06-.15,0-.29.03-.42.09l-.16-.48c.23-.08.46-.13.66-.13.27,0,.48.06.63.19.15.12.22.31.22.54,0,.26-.08.46-.23.6-.15.14-.37.24-.66.29l-.15-.46Z"/>
      <path class="cls-27" d="m150.19,401.11h.82v.56h.05c.12-.2.29-.37.53-.5s.49-.19.76-.19c.49,0,.86.15,1.12.44.26.29.38.69.38,1.2v2.58h-.86v-2.46c0-.32-.08-.56-.24-.72s-.38-.24-.66-.24c-.2,0-.38.06-.54.17-.16.11-.28.26-.37.45s-.13.39-.13.61v2.19h-.86v-4.08Z"/>
      <path class="cls-27" d="m155.4,406.7c-.33-.23-.55-.5-.66-.82l.8-.34c.08.22.23.39.42.53.19.13.42.2.68.2.38,0,.67-.12.89-.35s.32-.56.32-.98v-.39h-.05c-.13.2-.31.35-.54.46-.22.11-.48.17-.77.17-.35,0-.67-.09-.96-.26-.29-.17-.52-.42-.7-.74-.17-.32-.26-.69-.26-1.1s.09-.78.26-1.1c.17-.32.41-.57.7-.75.29-.18.61-.27.96-.27.28,0,.54.06.76.17.23.12.41.27.54.47h.05v-.51h.82v3.86c0,.44-.09.81-.26,1.12-.17.31-.41.55-.72.71s-.66.24-1.06.24c-.5,0-.91-.11-1.24-.34Zm1.84-2.46c.18-.11.33-.26.44-.45.11-.2.16-.43.16-.71s-.05-.52-.16-.72c-.11-.2-.25-.35-.44-.45-.18-.1-.38-.15-.6-.15s-.42.05-.6.15-.33.25-.44.45c-.11.2-.16.44-.16.72s.05.51.16.71c.11.2.26.35.44.45s.39.15.6.15.42-.05.6-.16Z"/>
      <path class="cls-27" d="m162.34,405.04c-.32-.19-.57-.44-.75-.77s-.27-.7-.27-1.12.09-.79.27-1.12.43-.58.75-.77c.32-.19.68-.28,1.09-.28.45,0,.83.1,1.14.3s.54.48.68.83l-.78.32c-.19-.44-.54-.66-1.05-.66-.22,0-.43.06-.62.17-.19.12-.34.28-.45.48s-.16.45-.16.72.05.51.16.72.26.37.45.48.4.17.62.17c.26,0,.48-.06.66-.17s.33-.28.43-.5l.78.34c-.16.35-.4.62-.71.82-.31.2-.69.3-1.14.3-.41,0-.77-.09-1.09-.28Z"/>
      <path class="cls-27" d="m166.01,399.46h.86v1.57l-.05.64h.05c.12-.2.29-.37.52-.5s.49-.19.76-.19c.5,0,.88.15,1.14.44s.39.69.39,1.19v2.58h-.86v-2.46c0-.31-.08-.55-.25-.71s-.38-.24-.64-.24c-.2,0-.38.06-.54.17-.16.12-.29.27-.38.46-.09.19-.14.39-.14.61v2.18h-.86v-5.73Z"/>
      <path class="cls-27" d="m171.49,405.03c-.33-.19-.58-.45-.76-.78-.18-.33-.27-.7-.27-1.1s.09-.77.27-1.1c.18-.33.43-.59.76-.78s.69-.28,1.1-.28.77.1,1.1.29.58.45.76.78c.18.33.27.7.27,1.1s-.09.77-.27,1.1c-.18.33-.43.59-.76.78s-.69.28-1.1.28-.78-.09-1.1-.28Zm1.74-.68c.19-.11.35-.27.46-.48s.18-.45.18-.73-.06-.52-.18-.73-.27-.37-.46-.48c-.19-.11-.4-.17-.63-.17s-.44.06-.64.17c-.19.11-.35.27-.47.48s-.18.45-.18.73.06.52.18.73.27.37.47.48c.19.11.41.17.64.17s.44-.06.63-.17Z"/>
      <path class="cls-27" d="m181.79,400.57h-.5v4.62h-.81v-.54h-.05c-.12.19-.29.35-.52.48-.23.13-.49.2-.79.2-.37,0-.7-.09-1-.28-.3-.18-.53-.44-.7-.77s-.26-.7-.26-1.12.08-.79.26-1.12.41-.58.7-.77c.3-.19.63-.28,1-.28.3,0,.56.07.79.2.23.13.4.29.52.48h.05l-.05-.54v-.54h-1.17v-.63h1.17v-.48h.86v.48h.5v.63Zm-1.93,3.78c.19-.11.34-.28.46-.48s.17-.45.17-.72-.06-.51-.17-.72-.27-.37-.46-.48c-.19-.11-.39-.17-.6-.17s-.41.06-.6.17c-.19.12-.34.28-.46.48s-.17.45-.17.72.06.51.17.72.27.37.46.48.39.17.6.17.41-.06.6-.17Z"/>
      <path class="cls-27" d="m183.06,405.03c-.33-.19-.58-.45-.76-.78-.18-.33-.27-.7-.27-1.1s.09-.77.27-1.1c.18-.33.43-.59.76-.78s.69-.28,1.1-.28.77.1,1.1.29.58.45.76.78c.18.33.27.7.27,1.1s-.09.77-.27,1.1c-.18.33-.43.59-.76.78s-.69.28-1.1.28-.78-.09-1.1-.28Zm1.74-.68c.19-.11.35-.27.46-.48s.18-.45.18-.73-.06-.52-.18-.73-.27-.37-.46-.48c-.19-.11-.4-.17-.63-.17s-.44.06-.64.17c-.19.11-.35.27-.47.48s-.18.45-.18.73.06.52.18.73.27.37.47.48c.19.11.41.17.64.17s.44-.06.63-.17Zm-1.89-4.09l.86-.96h.75l.87.96v.06h-.83l-.38-.46h-.08l-.38.46h-.82v-.06Zm1.45-1.92h.98l.35.99h-.66l-.67-.99Z"/>
      <path class="cls-27" d="m189.75,405.04c-.32-.19-.57-.44-.75-.77s-.27-.7-.27-1.12.09-.79.27-1.12.43-.58.75-.77c.32-.19.68-.28,1.09-.28.45,0,.83.1,1.14.3s.54.48.68.83l-.78.32c-.19-.44-.54-.66-1.05-.66-.22,0-.43.06-.62.17-.19.12-.34.28-.45.48s-.16.45-.16.72.05.51.16.72.26.37.45.48.4.17.62.17c.26,0,.48-.06.66-.17s.33-.28.43-.5l.78.34c-.16.35-.4.62-.71.82-.31.2-.69.3-1.14.3-.41,0-.77-.09-1.09-.28Z"/>
      <path class="cls-27" d="m193.42,399.46h.86v1.57l-.05.64h.05c.12-.2.29-.37.52-.5s.49-.19.76-.19c.5,0,.88.15,1.14.44s.39.69.39,1.19v2.58h-.86v-2.46c0-.31-.08-.55-.25-.71s-.38-.24-.64-.24c-.2,0-.38.06-.54.17-.16.12-.29.27-.38.46-.09.19-.14.39-.14.61v2.18h-.86v-5.73Z"/>
      <path class="cls-27" d="m198.9,405.03c-.33-.19-.58-.45-.76-.78-.18-.33-.27-.7-.27-1.1s.09-.77.27-1.1c.18-.33.43-.59.76-.78s.69-.28,1.1-.28c.22,0,.43.02.65.07.03,0,.1.02.2.03.1.02.2.02.3.02.16,0,.27-.03.34-.08s.1-.13.1-.24v-.58h.66v.75c0,.21-.05.38-.14.5-.1.12-.23.18-.4.18-.06,0-.12,0-.18-.02v.03c.41.38.61.88.61,1.5,0,.41-.09.77-.27,1.1-.18.33-.43.59-.76.78s-.69.28-1.1.28-.78-.09-1.1-.28Zm1.74-.68c.19-.11.35-.27.46-.48s.18-.45.18-.73-.06-.52-.18-.73-.27-.37-.46-.48c-.19-.11-.4-.17-.63-.17s-.44.06-.64.17c-.19.11-.35.27-.47.48s-.18.45-.18.73.06.52.18.73.27.37.47.48c.19.11.41.17.64.17s.44-.06.63-.17Z"/>
      <path class="cls-27" d="m203.01,400.34c-.11-.12-.17-.25-.17-.41s.06-.3.17-.41.25-.17.41-.17.3.06.41.17.17.25.17.41-.06.3-.17.41c-.11.11-.25.17-.41.17s-.3-.06-.41-.17Zm-.02.77h.86v4.08h-.86v-4.08Z"/>
      <path class="cls-27" d="m207.59,405.04c-.32-.19-.57-.44-.75-.77s-.27-.7-.27-1.12.09-.79.27-1.12.43-.58.75-.77c.32-.19.68-.28,1.09-.28.45,0,.83.1,1.14.3s.54.48.68.83l-.78.32c-.19-.44-.54-.66-1.05-.66-.22,0-.43.06-.62.17-.19.12-.34.28-.45.48s-.16.45-.16.72.05.51.16.72.26.37.45.48.4.17.62.17c.26,0,.48-.06.66-.17s.33-.28.43-.5l.78.34c-.16.35-.4.62-.71.82-.31.2-.69.3-1.14.3-.41,0-.77-.09-1.09-.28Z"/>
      <path class="cls-27" d="m211.62,404.87c-.26-.3-.39-.71-.39-1.24v-2.53h.86v2.41c0,.33.08.58.23.75s.36.26.62.26c.21,0,.4-.06.57-.17.17-.11.29-.26.38-.45.09-.19.13-.39.13-.61v-2.19h.86v4.08h-.81v-.55h-.05c-.12.2-.29.36-.53.49-.23.13-.49.19-.76.19-.49,0-.87-.15-1.12-.44Zm1.1-4.72c.15-.04.26-.09.33-.16.07-.06.1-.14.1-.24,0-.08-.03-.14-.09-.18-.06-.04-.14-.06-.24-.06-.15,0-.29.03-.42.09l-.16-.48c.23-.08.46-.13.66-.13.27,0,.48.06.63.19.15.12.22.31.22.54,0,.26-.08.46-.23.6-.15.14-.37.24-.66.29l-.15-.46Z"/>
      <path class="cls-27" d="m216.36,405.14c-.23-.11-.41-.28-.54-.48s-.19-.45-.19-.71c0-.28.07-.53.22-.73.15-.21.35-.36.61-.47s.54-.16.86-.16c.24,0,.46.02.65.07.19.05.35.1.47.16v-.22c0-.26-.1-.47-.29-.64-.19-.16-.44-.24-.74-.24-.21,0-.41.05-.59.14-.19.09-.34.22-.45.38l-.59-.46c.18-.25.41-.45.7-.58.29-.14.61-.21.96-.21.59,0,1.04.15,1.36.44.32.29.48.7.48,1.22v2.55h-.84v-.5h-.05c-.12.18-.29.33-.5.45s-.47.18-.74.18c-.29,0-.55-.06-.78-.17Zm1.52-.69c.18-.1.31-.24.41-.42.1-.18.15-.37.15-.57-.13-.08-.27-.13-.44-.18-.17-.04-.34-.06-.52-.06-.34,0-.58.07-.74.2-.16.13-.24.31-.24.53,0,.19.07.35.22.47.14.12.34.18.58.18.21,0,.41-.05.58-.16Z"/>
      <path class="cls-27" d="m222.1,401.11h.82v.56h.05c.12-.2.3-.37.52-.5.22-.13.47-.19.74-.19.29,0,.55.07.76.21.22.14.37.32.47.55.14-.23.33-.41.56-.55s.51-.21.82-.21c.47,0,.82.14,1.06.43.24.29.36.67.36,1.16v2.62h-.86v-2.47c0-.63-.27-.94-.8-.94-.29,0-.53.12-.72.35-.18.24-.28.53-.28.88v2.18h-.86v-2.47c0-.63-.27-.94-.82-.94-.28,0-.51.12-.7.36-.18.24-.27.53-.27.88v2.18h-.86v-4.08Z"/>
      <path class="cls-27" d="m230.04,405.04c-.32-.19-.56-.44-.74-.77s-.27-.7-.27-1.11c0-.39.09-.75.26-1.08.17-.33.41-.6.72-.8.31-.2.66-.3,1.05-.3.41,0,.77.09,1.06.27.3.18.53.43.68.74.16.32.24.67.24,1.07,0,.11,0,.2-.02.27h-3.15c.04.39.18.69.42.9.24.21.52.32.84.32.26,0,.49-.06.67-.18s.34-.28.45-.48l.71.34c-.19.34-.44.6-.74.79-.31.19-.68.29-1.11.29-.4,0-.75-.09-1.07-.28Zm2.15-2.35c-.01-.15-.06-.3-.14-.45-.09-.15-.21-.27-.37-.37-.16-.1-.36-.15-.6-.15-.29,0-.53.09-.73.26-.2.18-.34.41-.41.7h2.26Zm-2.14-3.42h.98l.38,1.05h-.73l-.63-1.05Z"/>
      <path class="cls-27" d="m234.7,405.03c-.33-.19-.58-.45-.76-.78-.18-.33-.27-.7-.27-1.1s.09-.77.27-1.1c.18-.33.43-.59.76-.78s.69-.28,1.1-.28.77.1,1.1.29.58.45.76.78c.18.33.27.7.27,1.1s-.09.77-.27,1.1c-.18.33-.43.59-.76.78s-.69.28-1.1.28-.78-.09-1.1-.28Zm1.74-.68c.19-.11.35-.27.46-.48s.18-.45.18-.73-.06-.52-.18-.73-.27-.37-.46-.48c-.19-.11-.4-.17-.63-.17s-.44.06-.64.17c-.19.11-.35.27-.47.48s-.18.45-.18.73.06.52.18.73.27.37.47.48c.19.11.41.17.64.17s.44-.06.63-.17Z"/>
      <path class="cls-27" d="m238.83,405.01c-.12-.12-.18-.26-.18-.42s.06-.31.18-.42c.12-.12.26-.18.43-.18s.31.06.43.17c.11.12.17.26.17.43s-.06.31-.17.42-.26.18-.43.18-.31-.06-.43-.18Zm0-3.75v-1.8h.86v1.8l-.09,2.1h-.7l-.08-2.1Z"/>
    </g>
    <g>
      <path class="cls-23" d="m642.92,402.23h5.09c.72,0,1.39.16,2.01.47.62.32,1.11.75,1.47,1.3.36.55.54,1.16.54,1.83s-.17,1.26-.5,1.76-.78.88-1.34,1.15v.09c.71.24,1.27.64,1.69,1.2s.63,1.22.63,1.98-.19,1.41-.58,1.99c-.39.58-.91,1.03-1.56,1.35s-1.36.48-2.14.48h-5.32v-13.6Zm5,5.72c.63,0,1.14-.19,1.52-.58.38-.39.57-.83.57-1.34s-.19-.95-.56-1.32c-.37-.37-.86-.56-1.45-.56h-2.98v3.8h2.91Zm.32,5.95c.66,0,1.19-.2,1.59-.6s.6-.88.6-1.43-.21-1.04-.62-1.44c-.41-.41-.96-.61-1.64-.61h-3.15v4.08h3.23Z"/>
      <path class="cls-23" d="m656.41,415.46c-.77-.45-1.37-1.07-1.8-1.85s-.65-1.66-.65-2.62.22-1.84.65-2.62,1.03-1.4,1.8-1.85,1.65-.67,2.62-.67,1.83.23,2.6.68c.77.46,1.37,1.08,1.8,1.86.43.79.65,1.65.65,2.6s-.21,1.84-.65,2.62-1.03,1.4-1.8,1.85c-.77.45-1.64.67-2.61.67s-1.85-.22-2.62-.67Zm4.12-1.61c.46-.27.82-.65,1.1-1.14.28-.49.42-1.07.42-1.73s-.14-1.24-.42-1.73c-.28-.49-.65-.87-1.1-1.14-.46-.27-.96-.4-1.5-.4s-1.05.13-1.51.4c-.46.27-.83.65-1.11,1.14s-.42,1.07-.42,1.73.14,1.23.42,1.73.65.87,1.11,1.14c.46.27.97.4,1.51.4s1.04-.13,1.5-.4Zm-2.34-9.98c.35-.1.61-.22.78-.37.16-.15.25-.33.25-.56,0-.19-.07-.34-.21-.44-.14-.1-.33-.15-.57-.15-.35,0-.68.07-.99.21l-.38-1.14c.56-.2,1.08-.3,1.58-.3.65,0,1.14.15,1.49.45.35.3.52.73.52,1.28,0,.61-.18,1.08-.55,1.42s-.89.57-1.56.68l-.36-1.08Z"/>
      <path class="cls-23" d="m677.66,415.89l.11-1.35h-.11c-.28.44-.69.82-1.24,1.13-.54.31-1.17.46-1.88.46-.87,0-1.67-.22-2.38-.66-.71-.44-1.27-1.05-1.67-1.83-.41-.79-.61-1.67-.61-2.66s.2-1.87.61-2.65c.41-.78.96-1.39,1.67-1.83s1.5-.67,2.38-.67c.71,0,1.34.16,1.88.47s.96.69,1.24,1.15h.11v-1.31h1.92v13.79h-2.03v-4.05Zm-1.38-2.04c.45-.27.81-.66,1.08-1.15s.41-1.06.41-1.71-.14-1.22-.41-1.71-.63-.88-1.08-1.15c-.45-.27-.93-.41-1.43-.41s-.98.14-1.43.41c-.45.27-.81.66-1.08,1.15-.27.49-.41,1.06-.41,1.71s.14,1.22.41,1.71c.27.49.63.88,1.08,1.15.45.27.93.41,1.43.41s.99-.14,1.43-.41Z"/>
      <path class="cls-23" d="m682.87,415.08c-.62-.7-.92-1.68-.92-2.93v-6h2.05v5.72c0,.79.18,1.38.55,1.79s.86.61,1.48.61c.51,0,.96-.13,1.35-.4.39-.27.69-.62.9-1.06s.31-.92.31-1.44v-5.21h2.03v9.69h-1.92v-1.31h-.11c-.28.47-.7.85-1.25,1.16-.56.3-1.16.46-1.8.46-1.17,0-2.06-.35-2.67-1.05Z"/>
      <path class="cls-23" d="m694.13,415.73c-.54-.27-.97-.66-1.27-1.15-.3-.49-.46-1.06-.46-1.69,0-.67.18-1.25.53-1.74.35-.49.84-.86,1.44-1.12s1.29-.39,2.03-.39c.57,0,1.09.05,1.55.16.46.11.83.23,1.11.37v-.51c0-.62-.23-1.12-.68-1.51-.46-.39-1.04-.58-1.77-.58-.49,0-.96.11-1.41.33s-.8.52-1.06.9l-1.41-1.08c.42-.59.97-1.06,1.66-1.39s1.45-.49,2.27-.49c1.39,0,2.47.35,3.24,1.04.77.69,1.15,1.66,1.15,2.9v6.06h-1.99v-1.2h-.11c-.28.43-.68.79-1.2,1.07-.52.28-1.11.43-1.77.43-.7,0-1.32-.14-1.86-.41Zm3.61-1.63c.42-.25.74-.58.98-1,.23-.42.35-.87.35-1.35-.3-.18-.65-.32-1.05-.42s-.8-.15-1.23-.15c-.8,0-1.38.16-1.76.48s-.56.73-.56,1.25c0,.46.17.83.51,1.12.34.29.8.44,1.37.44.51,0,.97-.12,1.39-.37Z"/>
      <path class="cls-23" d="m715.01,415.89l.11-1.35h-.11c-.28.44-.69.82-1.24,1.13-.54.31-1.17.46-1.88.46-.87,0-1.67-.22-2.38-.66-.71-.44-1.27-1.05-1.67-1.83-.41-.79-.61-1.67-.61-2.66s.2-1.87.61-2.65c.41-.78.96-1.39,1.67-1.83s1.5-.67,2.38-.67c.71,0,1.34.16,1.88.47s.96.69,1.24,1.15h.11v-1.31h1.92v13.79h-2.03v-4.05Zm-1.38-2.04c.45-.27.81-.66,1.08-1.15s.41-1.06.41-1.71-.14-1.22-.41-1.71-.63-.88-1.08-1.15c-.45-.27-.93-.41-1.43-.41s-.98.14-1.43.41c-.45.27-.81.66-1.08,1.15-.27.49-.41,1.06-.41,1.71s.14,1.22.41,1.71c.27.49.63.88,1.08,1.15.45.27.93.41,1.43.41s.99-.14,1.43-.41Z"/>
      <path class="cls-23" d="m720.22,415.08c-.62-.7-.92-1.68-.92-2.93v-6h2.05v5.72c0,.79.18,1.38.55,1.79s.86.61,1.48.61c.51,0,.96-.13,1.35-.4.39-.27.69-.62.9-1.06s.31-.92.31-1.44v-5.21h2.03v9.69h-1.92v-1.31h-.11c-.28.47-.7.85-1.25,1.16-.56.3-1.16.46-1.8.46-1.17,0-2.06-.35-2.67-1.05Z"/>
      <path class="cls-23" d="m731.48,415.73c-.54-.27-.97-.66-1.27-1.15-.3-.49-.46-1.06-.46-1.69,0-.67.18-1.25.53-1.74.35-.49.84-.86,1.44-1.12s1.29-.39,2.03-.39c.57,0,1.09.05,1.55.16.46.11.83.23,1.11.37v-.51c0-.62-.23-1.12-.68-1.51-.46-.39-1.04-.58-1.77-.58-.49,0-.96.11-1.41.33s-.8.52-1.06.9l-1.41-1.08c.42-.59.97-1.06,1.66-1.39s1.45-.49,2.27-.49c1.39,0,2.47.35,3.24,1.04.77.69,1.15,1.66,1.15,2.9v6.06h-1.99v-1.2h-.11c-.28.43-.68.79-1.2,1.07-.52.28-1.11.43-1.77.43-.7,0-1.32-.14-1.86-.41Zm3.61-1.63c.42-.25.74-.58.98-1,.23-.42.35-.87.35-1.35-.3-.18-.65-.32-1.05-.42s-.8-.15-1.23-.15c-.8,0-1.38.16-1.76.48s-.56.73-.56,1.25c0,.46.17.83.51,1.12.34.29.8.44,1.37.44.51,0,.97-.12,1.39-.37Zm-1.82-10.21c.35-.1.61-.22.78-.37.16-.15.25-.33.25-.56,0-.19-.07-.34-.21-.44-.14-.1-.33-.15-.57-.15-.35,0-.68.07-.99.21l-.38-1.14c.56-.2,1.08-.3,1.58-.3.65,0,1.14.15,1.49.45.35.3.52.73.52,1.28,0,.61-.18,1.08-.55,1.42s-.89.57-1.56.68l-.36-1.08Z"/>
      <path class="cls-23" d="m740.68,406.14h1.94v1.33h.11c.28-.48.7-.87,1.25-1.18s1.16-.46,1.8-.46c1.17,0,2.05.35,2.66,1.04.61.69.91,1.64.91,2.84v6.12h-2.03v-5.85c0-.76-.19-1.33-.57-1.7-.38-.37-.9-.56-1.56-.56-.48,0-.91.13-1.28.4-.37.27-.67.62-.87,1.06-.21.44-.31.92-.31,1.44v5.21h-2.05v-9.69Z"/>
      <path class="cls-23" d="m753.04,419.43c-.78-.54-1.3-1.19-1.57-1.95l1.9-.8c.2.52.54.94,1,1.25.46.32,1,.47,1.61.47.9,0,1.6-.28,2.11-.83.51-.55.76-1.33.76-2.33v-.93h-.11c-.32.47-.74.84-1.27,1.1-.53.27-1.14.4-1.82.4-.82,0-1.58-.21-2.27-.62s-1.24-1-1.65-1.76c-.41-.76-.62-1.63-.62-2.61s.21-1.85.62-2.61c.41-.76.96-1.35,1.65-1.77.69-.42,1.45-.63,2.27-.63.67,0,1.28.14,1.81.41.54.27.97.64,1.28,1.11h.11v-1.22h1.96v9.18c0,1.04-.2,1.93-.61,2.67s-.97,1.3-1.7,1.68c-.73.38-1.57.57-2.52.57-1.18,0-2.16-.27-2.94-.81Zm4.38-5.84c.43-.25.78-.61,1.04-1.08.26-.47.39-1.03.39-1.67s-.13-1.23-.39-1.7c-.26-.47-.61-.83-1.04-1.08-.43-.24-.91-.37-1.42-.37s-1,.12-1.43.37c-.44.24-.79.6-1.04,1.08-.26.47-.39,1.04-.39,1.7s.13,1.21.39,1.68c.26.47.61.83,1.04,1.08.44.24.92.36,1.43.36s.99-.12,1.42-.37Z"/>
      <path class="cls-23" d="m769.52,415.47c-.76-.44-1.35-1.05-1.78-1.83s-.64-1.66-.64-2.65.21-1.87.64-2.65c.42-.78,1.02-1.39,1.78-1.83.76-.44,1.62-.67,2.58-.67,1.06,0,1.97.24,2.71.71.74.47,1.28,1.13,1.61,1.97l-1.86.76c-.46-1.04-1.29-1.56-2.49-1.56-.53,0-1.02.14-1.47.41-.45.27-.8.66-1.06,1.15s-.39,1.06-.39,1.71.13,1.22.39,1.71.61.88,1.06,1.15c.45.27.94.41,1.47.41.61,0,1.13-.14,1.57-.41.44-.27.78-.67,1.02-1.19l1.84.8c-.38.82-.94,1.48-1.69,1.96s-1.65.72-2.7.72c-.96,0-1.82-.22-2.58-.67Z"/>
      <path class="cls-23" d="m779.32,415.73c-.54-.27-.97-.66-1.27-1.15-.3-.49-.46-1.06-.46-1.69,0-.67.18-1.25.53-1.74.35-.49.84-.86,1.44-1.12s1.29-.39,2.03-.39c.57,0,1.09.05,1.55.16.46.11.83.23,1.11.37v-.51c0-.62-.23-1.12-.68-1.51-.46-.39-1.04-.58-1.77-.58-.49,0-.96.11-1.41.33s-.8.52-1.06.9l-1.41-1.08c.42-.59.97-1.06,1.66-1.39s1.45-.49,2.27-.49c1.39,0,2.47.35,3.24,1.04.77.69,1.15,1.66,1.15,2.9v6.06h-1.99v-1.2h-.11c-.28.43-.68.79-1.2,1.07-.52.28-1.11.43-1.77.43-.7,0-1.32-.14-1.86-.41Zm3.61-1.63c.42-.25.74-.58.98-1,.23-.42.35-.87.35-1.35-.3-.18-.65-.32-1.05-.42s-.8-.15-1.23-.15c-.8,0-1.38.16-1.76.48s-.56.73-.56,1.25c0,.46.17.83.51,1.12.34.29.8.44,1.37.44.51,0,.97-.12,1.39-.37Zm-.91-12.32h2.32l-1.52,2.49h-1.69l.89-2.49Z"/>
      <path class="cls-23" d="m790.36,415.46c-.77-.45-1.37-1.07-1.8-1.85s-.65-1.66-.65-2.62.22-1.84.65-2.62,1.03-1.4,1.8-1.85,1.65-.67,2.62-.67,1.83.23,2.6.68c.77.46,1.37,1.08,1.8,1.86.43.79.65,1.65.65,2.6s-.21,1.84-.65,2.62-1.03,1.4-1.8,1.85c-.77.45-1.64.67-2.61.67s-1.85-.22-2.62-.67Zm4.12-1.61c.46-.27.82-.65,1.1-1.14.28-.49.42-1.07.42-1.73s-.14-1.24-.42-1.73c-.28-.49-.65-.87-1.1-1.14-.46-.27-.96-.4-1.5-.4s-1.05.13-1.51.4c-.46.27-.83.65-1.11,1.14s-.42,1.07-.42,1.73.14,1.23.42,1.73.65.87,1.11,1.14c.46.27.97.4,1.51.4s1.04-.13,1.5-.4Z"/>
    </g>
    <path class="cls-22" d="m817.17,409.52l-10.52,7.42v-14.84l10.52,7.42Zm4.33,7.42h-2.48v-14.84h2.48v14.84Z"/>
    <rect class="cls-19" x="990.22" y="166.98" width="36.02" height="6.88"/>
    <g id="Stark_-_YTADS_ad_badge_VI-44" data-name="Stark - YTADS ad badge_VI-44">
      <path class="cls-39" d="m981.54,170.21c0-.18.09-.44.26-.53.18-.18.35-.26.61-.26s.44.09.61.26.26.35.26.53-.09.44-.26.53c-.18.18-.35.26-.61.26s-.44-.09-.61-.26c-.18-.09-.26-.26-.26-.53Z"/>
      <g>
        <path d="m931.89,169.99v.35c0,.57-.08,1.08-.23,1.53s-.37.83-.66,1.16-.62.56-1.01.73-.82.25-1.29.25-.9-.09-1.29-.25-.73-.41-1.01-.73-.51-.7-.66-1.16-.24-.96-.24-1.53v-.35c0-.57.08-1.09.24-1.53s.38-.83.66-1.16.61-.56,1.01-.73.82-.25,1.29-.25.9.09,1.29.25.73.41,1.01.73.5.7.66,1.16c.16.46.23.96.23,1.53Zm-1.56.35v-.37c0-.39-.04-.75-.11-1.05s-.18-.55-.32-.76-.31-.36-.51-.46-.43-.16-.69-.16-.49.05-.69.16-.37.26-.51.46-.25.46-.32.76-.11.65-.11,1.05v.37c0,.39.04.75.11,1.04s.18.56.32.76.32.37.52.47.44.16.69.16.49-.05.69-.16.37-.26.51-.47.25-.46.32-.76.11-.65.11-1.04Zm-.52,2.45l2.03,1.6-.97.84-1.99-1.6.94-.84Z"/>
        <path d="m936.37,171.43h.44c0,.36-.04.7-.13,1.02s-.21.59-.39.82-.39.41-.65.54-.57.19-.92.19c-.27,0-.52-.04-.75-.11s-.42-.2-.59-.37-.29-.38-.38-.64-.14-.58-.14-.95v-3.6h1.48v3.6c0,.17.02.31.06.41s.1.2.17.28.16.12.25.16.21.04.32.04c.31,0,.54-.06.72-.18s.3-.29.38-.51.11-.46.11-.72Zm-.17,1.14v-4.23h1.48v5.56h-1.39l-.09-1.33Z"/>
        <path d="m942,170.52v.84h-.82c-.19,0-.37.03-.51.07s-.26.11-.35.18-.16.18-.2.28-.06.22-.06.35.03.24.09.34.14.18.25.24.24.09.39.09c.22,0,.41-.04.58-.13s.29-.2.39-.33.14-.25.14-.37l.39.62c-.05.14-.13.29-.22.44s-.21.29-.36.42-.32.24-.52.32-.44.12-.72.12c-.35,0-.68-.07-.96-.21s-.51-.34-.68-.59-.25-.53-.25-.86c0-.29.05-.55.17-.77s.27-.42.48-.57c.21-.15.48-.27.81-.35s.69-.12,1.12-.12h.86l-.04-.02Zm-.19,2.13v-2.47c0-.18-.03-.33-.09-.46s-.15-.23-.27-.3-.28-.11-.47-.11c-.17,0-.31.03-.43.09s-.21.14-.28.25-.1.23-.1.37h-1.48c0-.24.05-.46.17-.68s.27-.4.47-.56.46-.29.75-.39.61-.14.97-.14c.43,0,.82.07,1.15.22.33.15.6.36.8.65s.29.65.29,1.08v2.38c0,.31.02.55.05.75s.1.36.17.51v.09h-1.5c-.07-.15-.12-.34-.16-.57s-.05-.46-.05-.68l.02-.02Zm-.19-5.24h-1.11l-.08-.69c.18,0,.31-.03.41-.05s.18-.06.23-.11.07-.11.07-.18-.02-.13-.05-.18-.09-.08-.16-.11-.15-.04-.24-.05-.18-.02-.29-.02l.04-.68c.32,0,.6.03.84.07s.45.11.61.2.29.19.37.32.12.26.12.41c0,.24-.08.41-.25.53s-.34.18-.53.21v.33h.02Z"/>
        <path d="m945.88,169.53v4.38h-1.48v-5.56h1.39l.1,1.18Zm-.22,1.39h-.4c0-.41.05-.78.16-1.11s.25-.61.45-.85.42-.41.68-.54.56-.18.89-.18c.26,0,.5.04.71.11s.4.19.56.36.27.39.36.65.12.61.12.99v3.54h-1.49v-3.55c0-.25-.04-.44-.11-.58s-.17-.24-.3-.29-.29-.09-.48-.09-.37.04-.52.11-.26.18-.36.32-.17.3-.21.48-.07.39-.07.6v.03Z"/>
        <path d="m950.12,171.19v-.11c0-.42.05-.81.16-1.16s.25-.65.45-.89.43-.45.71-.58.59-.2.94-.2c.37,0,.68.07.93.2.25.13.46.33.61.59s.29.54.38.89.16.71.21,1.11v.24c-.05.39-.13.75-.23,1.08s-.24.62-.4.87-.38.44-.62.58-.54.2-.89.2-.65-.07-.93-.21-.51-.33-.71-.59-.34-.55-.45-.89-.16-.72-.16-1.12Zm3.74-2.85h1.34v5.38c0,.51-.11.94-.33,1.29s-.53.62-.94.81-.87.27-1.39.27c-.24,0-.48-.04-.74-.1s-.51-.16-.74-.29-.43-.3-.59-.49l.65-.88c.18.2.37.35.6.46s.47.17.75.17.49-.05.68-.15c.18-.1.32-.24.43-.43s.15-.41.15-.68v-4.1l.14-1.28v.02Zm-2.27,2.74v.11c0,.23.03.45.07.64s.11.38.21.53.21.27.35.35.31.12.51.12c.27,0,.49-.06.67-.18s.3-.27.39-.47.13-.44.15-.7v-.68c0-.22-.04-.41-.09-.59s-.12-.32-.22-.45-.21-.22-.36-.29-.32-.11-.53-.11-.37.04-.51.13-.26.21-.35.36-.17.32-.21.53-.07.42-.07.66v.03Z"/>
        <path d="m961.27,172.85c.18,0,.34-.04.48-.11s.25-.17.33-.3.12-.28.12-.46h1.39c0,.39-.11.74-.32,1.04s-.48.54-.82.71-.74.26-1.16.26-.81-.07-1.13-.22-.59-.34-.8-.6-.37-.55-.47-.89-.16-.71-.16-1.1v-.15c0-.39.05-.76.16-1.11s.26-.64.47-.89.47-.46.8-.6.69-.22,1.12-.22c.46,0,.86.09,1.2.26s.61.42.82.75.3.71.3,1.15h-1.39c0-.18-.04-.35-.11-.5s-.18-.27-.32-.36-.31-.14-.51-.14c-.22,0-.39.04-.53.14s-.25.21-.32.37-.13.33-.16.53-.04.4-.04.62v.15c0,.22.02.42.04.62s.08.38.16.53.18.27.32.37.32.13.53.13h-.03Z"/>
        <path d="m967.64,170.52v.84h-.82c-.19,0-.37.03-.51.07s-.26.11-.35.18-.16.18-.2.28-.06.22-.06.35.03.24.09.34.14.18.25.24.24.09.39.09c.22,0,.41-.04.58-.13s.29-.2.39-.33.14-.25.14-.37l.39.62c-.05.14-.13.29-.22.44s-.21.29-.36.42-.32.24-.52.32-.44.12-.72.12c-.35,0-.68-.07-.96-.21s-.51-.34-.68-.59-.25-.53-.25-.86c0-.29.05-.55.17-.77s.27-.42.48-.57.48-.27.81-.35.69-.12,1.12-.12h.86l-.04-.02Zm-.19,2.13v-2.47c0-.18-.03-.33-.09-.46s-.15-.23-.27-.3-.28-.11-.47-.11c-.17,0-.31.03-.43.09s-.21.14-.28.25-.1.23-.1.37h-1.48c0-.24.05-.46.17-.68s.27-.4.47-.56.46-.29.75-.39.61-.14.97-.14c.43,0,.82.07,1.15.22.33.15.6.36.8.65s.29.65.29,1.08v2.38c0,.31.02.55.05.75s.1.36.17.51v.09h-1.5c-.07-.15-.12-.34-.16-.57s-.05-.46-.05-.68l.02-.02Zm-1.46-5.06l1.01-1.58h1.6l-1.41,1.58s-1.2,0-1.2,0Z"/>
        <path d="m969.84,171.18v-.11c0-.4.06-.78.18-1.13s.29-.64.51-.89.5-.45.82-.6.7-.21,1.12-.21.8.07,1.12.21c.32.14.61.34.83.6s.39.55.51.89.18.72.18,1.13v.11c0,.4-.06.78-.18,1.12s-.29.64-.51.9-.5.46-.82.6-.7.21-1.12.21-.8-.07-1.12-.21-.61-.34-.82-.6-.39-.55-.51-.9-.18-.72-.18-1.12h0Zm1.48-.11v.11c0,.24.02.45.06.65s.11.38.2.53.21.27.36.36.32.13.54.13.39-.04.53-.13.26-.2.35-.36.16-.33.2-.53.06-.42.06-.65v-.11c0-.23-.02-.44-.06-.64s-.11-.38-.2-.53-.21-.28-.36-.37-.32-.13-.53-.13-.39.04-.53.13-.26.21-.35.37-.16.33-.2.53-.06.41-.06.64Z"/>
      </g>
    </g>
  </g>
</svg>